<svg id="Layer_1" data-name="Layer 1" xmlns="http://www.w3.org/2000/svg" width="115mm" height="115mm" viewBox="0 0 326 326"><defs><style>.cls-1{fill:#1d1d1b;}</style></defs><title>nafnahringur</title><path class="cls-1" d="M202.2,22.5l-9.5-2.3V20a2.1,2.1,0,0,0,1.4-.2c.3-.2.5-.9.7-1.5s.5-1.9.8-3l.6-2.8a3,3,0,0,0,.2-1.8,1.5,1.5,0,0,0-1.1-.8V9.7l5,1.2v.2c-.6-.1-1.6-.2-1.9.9a31.5,31.5,0,0,0-.9,3.6l-.8,3.3a5.3,5.3,0,0,0-.2,1.6,3.8,3.8,0,0,0,1.6.8,6.2,6.2,0,0,0,2.1.2,3.7,3.7,0,0,0,3.1-2h.2Z"/><path class="cls-1" d="M207.8,24.3a1.4,1.4,0,0,1-1-1.8h0a2.4,2.4,0,0,1-2.5.7,1.4,1.4,0,0,1-.9-1.8c.1-.5.8-.9,1.5-1.1l2.8-.6.3-1.3a1.1,1.1,0,0,0-.8-1.2c-.6-.2-1.1.2-1.1.4l-.3.9a1,1,0,0,1-1,.3.9.9,0,0,1-.5-.9c.2-.5.7-.6,1.2-.7a7.3,7.3,0,0,1,3.1-.3,1.5,1.5,0,0,1,1.1,1.2l-.2.9-1,3.2c-.3.8,0,1.2.4,1.3a.8.8,0,0,0,.8-.3h.1A1.8,1.8,0,0,1,207.8,24.3Zm-.2-4.4c-.8.3-2.3.3-2.6,1.4a.9.9,0,0,0,.6,1.2,1.4,1.4,0,0,0,1.1-.1c.1,0,.2-.2.2-.3Z"/><path class="cls-1" d="M214,26.5h-.1l.5-1.4h0a3.1,3.1,0,0,1-2.8.6c-1.2-.4-1.5-1.4-1-2.7l1.2-3.5a1.4,1.4,0,0,0,.2-.7c0-.3-.4-.5-.8-.7h.1l2.4.9-1.4,4c-.4,1.2-.4,1.9.5,2.2a1.9,1.9,0,0,0,1.7-.2l1.4-4a1.1,1.1,0,0,0,.1-.8l-.9-.6v-.2l2.7,1-2,5.5c-.1.1-.1.2,0,.4l.7.6h-.1Z"/><path class="cls-1" d="M223,24.1c-.7-.3-.4-.8-.8-.9s-1.1.1-1.5.6l-1.6,4c-.1.4.6.7,1,.9H220l-3.4-1.4h.1c.4.1.8.1,1-.2l1.8-4.5c.1-.1.1-.2,0-.4l-.5-.6h2.6l-.8,1.9h0c.4-.3,1.6-1.6,2.7-1.1a.9.9,0,0,1,.5,1.2C223.8,24.1,223.4,24.3,223,24.1Z"/><path class="cls-1" d="M226,31.6a1.4,1.4,0,0,1-.7-1.9h0a2.4,2.4,0,0,1-2.5.4,1.5,1.5,0,0,1-.7-2,2,2,0,0,1,1.7-.9l2.8-.2.5-1.2a1.2,1.2,0,0,0-.6-1.3,1.1,1.1,0,0,0-1.2.2l-.4.9a.9.9,0,0,1-1,.1.6.6,0,0,1-.4-.9c.2-.5.8-.5,1.2-.6a9.8,9.8,0,0,1,3.2.2,1.6,1.6,0,0,1,.9,1.3,9.2,9.2,0,0,1-.3.9c-.6,1.3-.9,1.8-1.5,3s-.1,1.2.2,1.3.7.1.9-.2h.1A1.7,1.7,0,0,1,226,31.6Zm.5-4.4c-.9.2-2.3,0-2.8,1a1.1,1.1,0,0,0,.4,1.3,1.1,1.1,0,0,0,1.1.1c.2,0,.2-.1.3-.3Z"/><path class="cls-1" d="M237.5,37.7a7.1,7.1,0,0,1-.2-1.4c-.1-1.4-.1-2.1-.3-3.5s-.3-1.3-.7-1.6l-.4-.3a24.6,24.6,0,0,0-1.4,2.6,2.2,2.2,0,0,0-.6,1.3c0,.3.3.8,1,1.2v.2l-4.5-2.6h.1a1.7,1.7,0,0,0,1.4.1c.3-.1.7-.7,1-1.3s1-1.6,1.6-2.7l1.4-2.5c.4-.6.8-1.4.7-1.7a1.9,1.9,0,0,0-.8-1h0l3.9,2.1a9.4,9.4,0,0,1,2.6,2,2.7,2.7,0,0,1,0,2.9c-.7,1.2-2.1,1.4-3.5,1.1h0a4,4,0,0,1,.4,1.3,26.4,26.4,0,0,0,.2,2.9,3,3,0,0,0,1.2,2.5v.2Zm3-10.1a2.3,2.3,0,0,0-1.2-1l-.6-.4-.7,1-2,3.5a4.6,4.6,0,0,0,1.9.8,2.4,2.4,0,0,0,2.6-1.3A2.4,2.4,0,0,0,240.5,27.6Z"/><path class="cls-1" d="M244.2,42a1.3,1.3,0,0,1-.4-1.9h0a2.4,2.4,0,0,1-2.6.1,1.5,1.5,0,0,1-.4-2.1,2.4,2.4,0,0,1,1.8-.6l2.8.2.7-1.1a1.1,1.1,0,0,0-.4-1.4c-.6-.3-1.1-.2-1.2,0l-.5.8a1.1,1.1,0,0,1-1.1,0,.7.7,0,0,1-.2-.9c.3-.5.8-.5,1.3-.5a14.1,14.1,0,0,1,3.1.6,1.8,1.8,0,0,1,.7,1.5,2,2,0,0,1-.4.8l-1.9,2.8c-.5.8-.3,1.1,0,1.3a.6.6,0,0,0,.9,0h.1A1.6,1.6,0,0,1,244.2,42Zm1.1-4.2c-.9,0-2.3-.4-2.9.6a.9.9,0,0,0,.2,1.3l1.1.3.3-.3Z"/><path class="cls-1" d="M254.8,42.4c-.3-.2-.5-1-.8-1.6h0a3.3,3.3,0,0,1-.4,1.5c-1,1.3-2.4,1.3-4,.1l-.8-.6c-.4-.3-.8-.3-1,0s.1,1,.7,1.4l1.9,1.4a2.2,2.2,0,0,1,.6,3.2c-1,1.3-3.1,1.4-5,0s-2.5-2.6-1.8-3.5,1.6-.5,2.5-.4h0a1.6,1.6,0,0,1-.4-2.1,1.9,1.9,0,0,1,2.4-.3h0a2.1,2.1,0,0,1,.1-2.5c.7-1,2.3-1.1,3.7-.1a3.6,3.6,0,0,1,1.4,1.6l.4.3c.4.3.8.2,1.2.5a.6.6,0,0,1,.1.9A.6.6,0,0,1,254.8,42.4Zm-5.1,4a3.7,3.7,0,0,0-1.4-1.5l-1.3-.8a1.6,1.6,0,0,0-1.4.7,2.1,2.1,0,0,0,.8,2.9,2.4,2.4,0,0,0,1.1.6,1.8,1.8,0,0,0,2-.7A1.4,1.4,0,0,0,249.7,46.4Zm2.6-7.4c-.7-.5-1.7.1-2.3.9s-.7,2-.1,2.4,1.8,0,2.4-.9S253.1,39.6,252.3,39Z"/><path class="cls-1" d="M255,50v-.2c.4.4.8.5,1,.2l2.3-2.8c.6-.8.9-1.7.1-2.3a1.9,1.9,0,0,0-1.5-.3l-3,3.8c-.2.3,0,.5.3.8h-.1l-2.5-2h.1c.4.3.8.4,1,.1l3.1-3.8c.1-.2.2-.2.1-.4a2.1,2.1,0,0,0-.3-.7h.1l2.3.8h.1l-1.1,1.2h0a3.2,3.2,0,0,1,3,.2c.9.8.8,1.9-.1,3l-2.7,3.4c-.2.2.1.6.4.9h-.1Z"/><path class="cls-1" d="M261.6,55.8a1.4,1.4,0,0,1-.1-2h0a2.6,2.6,0,0,1-2.5-.4,1.4,1.4,0,0,1-.1-2.1,2,2,0,0,1,1.9-.3l2.7.6.9-1a1.2,1.2,0,0,0-.3-1.5.9.9,0,0,0-1.2-.1l-.6.7c-.2.2-.7.1-1-.2a.6.6,0,0,1-.1-.9,1.4,1.4,0,0,1,1.4-.2,9.6,9.6,0,0,1,2.9,1A1.8,1.8,0,0,1,266,51l-.5.7-2.3,2.5c-.6.7-.5,1.1-.2,1.3a.6.6,0,0,0,.9.1h.1A1.9,1.9,0,0,1,261.6,55.8Zm1.7-4.1c-.8,0-2.2-.6-2.9.2a.9.9,0,0,0,0,1.3,1.6,1.6,0,0,0,1,.5.5.5,0,0,0,.4-.2Z"/><path class="cls-1" d="M270,56.1c-.5-.5-.1-.9-.4-1.2a1.6,1.6,0,0,0-1.6.1l-3,3.1c-.2.3.3.9.6,1.2h-.1l-2.7-2.6h.1c.4.3.8.5,1,.2l3.4-3.5c.1-.1.2-.1.1-.3a3.1,3.1,0,0,0-.2-.8h.1l2.3.9h0l-1.5,1.4h.1c.4-.2,2-1,2.9-.1a.9.9,0,0,1,0,1.3A.7.7,0,0,1,270,56.1Z"/><path class="cls-1" d="M268.3,62.4a6,6,0,0,1-1.3-2.1l1.5-1.5h.1c-.4.9-1,2.5-.2,3.3a1.4,1.4,0,0,0,2.2,0,1.1,1.1,0,0,0,.1-1.5,6.1,6.1,0,0,1-.7-1.4,1.8,1.8,0,0,1,.5-2.2,2.3,2.3,0,0,1,3.3.4,8,8,0,0,1,1.2,1.8l-1.4,1.5h-.1c.5-1.2.8-2.5.1-3.2a1.3,1.3,0,0,0-1.8-.1c-.6.5-.4,1.1-.1,1.6l.7,1.3A2.1,2.1,0,0,1,272,63C270.9,64.1,269.4,63.5,268.3,62.4Z"/><path class="cls-1" d="M280.8,77.1l-6-7.7h.1a2.1,2.1,0,0,0,1.3.7,4.5,4.5,0,0,0,1.4-.7l2.5-1.9,2.3-1.8c.5-.5,1.1-.9,1.2-1.3a2,2,0,0,0-.4-1.4h.2l3.1,4.1h-.1c-.4-.4-1.2-1.1-2-.5l-3,2.3-2.7,2.1c-.5.4-1,.8-1.1,1.1s.3,1.1.8,1.7a9,9,0,0,0,1.4,1.4c1.3,1,2.5.7,3.8.4h.1Z"/><path class="cls-1" d="M284.1,82a1.4,1.4,0,0,1,.3-2h0a2.6,2.6,0,0,1-2.4-1,1.5,1.5,0,0,1,.4-2,2.4,2.4,0,0,1,2,.1l2.5,1.2,1.1-.7a1.3,1.3,0,0,0,.1-1.5,1.1,1.1,0,0,0-1.2-.4l-.7.5a.8.8,0,0,1-1-.4.6.6,0,0,1,.1-.9,1.4,1.4,0,0,1,1.4.1,8.9,8.9,0,0,1,2.6,1.7,1.4,1.4,0,0,1,.1,1.6c0,.2-.4.4-.7.6l-2.8,1.9c-.7.5-.7.9-.4,1.2a.6.6,0,0,0,.8.3h.1A1.7,1.7,0,0,1,284.1,82Zm2.6-3.5c-.8-.3-2-1.2-2.9-.6a1,1,0,0,0-.3,1.3,2,2,0,0,0,.9.7h.4Z"/><path class="cls-1" d="M287.6,87.6h-.1l1.3-.9h.1a3,3,0,0,1-2.7-1.2c-.6-1.1-.3-2,1-2.8l3.1-1.9.6-.4c.2-.3-.1-.8-.2-1.1h.1l1.4,2.3-3.6,2.2c-1.1.7-1.5,1.2-1,2.1a1.4,1.4,0,0,0,1.4.8l3.7-2.2c.1-.1.4-.3.5-.5a3,3,0,0,0-.4-1.1h.2l1.5,2.4-5,3.1c-.1.1-.2.1-.2.3s.1.6.1.9h-.1Z"/><path class="cls-1" d="M296.2,91.3c-.4-.6.1-.9-.1-1.2a1.4,1.4,0,0,0-1.6-.4l-3.7,2c-.3.3.1,1,.2,1.4h-.1l-1.8-3.2h.1c.3.3.6.6.9.4l4.3-2.3.2-.3v-.8h.1l1.9,1.5h0l-1.8,1h0c.5-.1,2.2-.3,2.8.8a.8.8,0,0,1-.3,1.2A.7.7,0,0,1,296.2,91.3Z"/><path class="cls-1" d="M293.9,99.1a1.4,1.4,0,0,1,.6-2h0a2.5,2.5,0,0,1-2.2-1.2,1.4,1.4,0,0,1,.6-2,1.9,1.9,0,0,1,1.9.3l2.3,1.6,1.2-.6a1,1,0,0,0,.3-1.4c-.3-.6-.8-.7-1-.6l-.9.4c-.2.1-.7-.1-.9-.5s0-.8.3-.9.9,0,1.3.3a8.7,8.7,0,0,1,2.4,2,1.5,1.5,0,0,1-.1,1.6,1.6,1.6,0,0,1-.8.5c-1.2.7-1.8.9-3,1.5s-.8.8-.6,1.2a.6.6,0,0,0,.8.4h0A1.8,1.8,0,0,1,293.9,99.1Zm3-3.2c-.7-.4-1.8-1.4-2.8-.9a1,1,0,0,0-.4,1.2,1.5,1.5,0,0,0,.8.8h.4Z"/><path class="cls-1" d="M299.1,111c.2-.5.1-.3.8-1.3a20.4,20.4,0,0,0,1.8-2.9,2.8,2.8,0,0,0,.5-1.7l-.2-.5-2.6,1.1c-.6.3-1.1.4-1.3.7a2.1,2.1,0,0,0,0,1.6H298l-2-4.8h.2a1.8,1.8,0,0,0,.9,1,3,3,0,0,0,1.7-.4l2.9-1.1,2.7-1.1a5.7,5.7,0,0,0,1.6-.9,2,2,0,0,0-.1-1.3h.2l1.6,4.1a6.9,6.9,0,0,1,.8,3.2,2.7,2.7,0,0,1-1.7,2.3,3.1,3.1,0,0,1-3.5-1.3h0a3,3,0,0,1-.6,1.3c-.4.7-1.1,1.7-1.6,2.4a3.7,3.7,0,0,0-.6,2.8h-.1Zm8.6-6.2a2.2,2.2,0,0,0-.2-1.4l-.4-.7-1.1.3-3.8,1.6a6.9,6.9,0,0,0,1,1.7,2.4,2.4,0,0,0,2.9.6A2.4,2.4,0,0,0,307.7,104.8Z"/><path class="cls-1" d="M301.7,118.5a1.4,1.4,0,0,1,.9-1.8h0a2.5,2.5,0,0,1-2-1.6,1.3,1.3,0,0,1,.9-1.8,1.9,1.9,0,0,1,1.8.6l2.1,1.8,1.3-.4a1.1,1.1,0,0,0,.5-1.4,1.4,1.4,0,0,0-1-.7l-.9.3c-.3.1-.7-.2-.8-.6s0-.8.4-.9.9.2,1.3.5a9.7,9.7,0,0,1,2,2.4,1.6,1.6,0,0,1-.3,1.6l-.9.3-3.2,1.1c-.8.2-.9.7-.8,1s.5.6.8.5h0A1.8,1.8,0,0,1,301.7,118.5Zm3.5-2.7c-.7-.5-1.6-1.6-2.7-1.3a1,1,0,0,0-.6,1.2,1.6,1.6,0,0,0,.7.9h.4Z"/><path class="cls-1" d="M309.7,125.3c-.1-.3.3-1,.5-1.6h-.1a2.6,2.6,0,0,1-1.3,1c-1.5.4-2.6-.6-3.1-2.4s-.1-.6-.2-1-.5-.7-.9-.6-.5.8-.3,1.5l.6,2.3a2.1,2.1,0,0,1-1.5,2.8c-1.5.5-3.2-.7-3.9-3s-.3-3.6.8-3.9,1.6.6,2.2,1.3h0a1.7,1.7,0,0,1,1-2,1.8,1.8,0,0,1,2,1.3h.1a2,2,0,0,1,1.5-1.9c1.3-.4,2.6.6,3.1,2.3a4.6,4.6,0,0,1,.1,2v.5c.2.5.6.7.7,1.2s-.1.6-.5.7A.6.6,0,0,1,309.7,125.3Zm-6.4,0a3.8,3.8,0,0,0-.2-2c-.1-.4-.4-1.1-.5-1.4a1.4,1.4,0,0,0-1.5-.3,2.1,2.1,0,0,0-1.2,2.7,2.7,2.7,0,0,0,.5,1.2,2.1,2.1,0,0,0,2,.7A1.6,1.6,0,0,0,303.3,125.3Zm6.6-4.1c-.2-.9-1.4-1-2.4-.8s-1.7,1.1-1.5,1.9,1.4,1.1,2.4.8S310.2,122.2,309.9,121.2Z"/><path class="cls-1" d="M305.2,131.4h.2c.1.5.3.8.6.7l3.6-.8c1-.2,1.7-.7,1.5-1.7a1.6,1.6,0,0,0-.9-1.1l-4.8,1c-.4.2-.3.5-.3.9H305l-.7-3.1h.1c.2.4.4.8.8.7l4.8-1.1c.2,0,.2-.1.3-.2s.1-.5.2-.8h.1l1.3,2.1h0l-1.6.4h0a3.5,3.5,0,0,1,2.2,2.1c.2,1.1-.6,1.9-1.9,2.2l-4.3,1c-.3,0-.2.6-.2,1H306Z"/><path class="cls-1" d="M306.8,140.1a1.3,1.3,0,0,1,1.2-1.6h0a2.5,2.5,0,0,1-1.8-1.8,1.4,1.4,0,0,1,1.2-1.7,2,2,0,0,1,1.7.9,21.8,21.8,0,0,1,1.8,2.2l1.3-.3a1.2,1.2,0,0,0,.7-1.3.9.9,0,0,0-.9-.8h-.9c-.2.1-.6-.3-.7-.7s.2-.8.5-.8.9.3,1.3.7a8.7,8.7,0,0,1,1.6,2.6,1.4,1.4,0,0,1-.6,1.5l-.8.3-3.4.5c-.9.1-1,.6-.9.9s.3.6.6.7h0A2,2,0,0,1,306.8,140.1Zm3.9-2.1c-.6-.6-1.3-1.9-2.4-1.7a.9.9,0,0,0-.8,1.1,1.1,1.1,0,0,0,.5.9h.4Z"/><path class="cls-1" d="M313.2,145.6c-.1-.8.4-.8.4-1.2a1.6,1.6,0,0,0-1.3-1l-4.3.6c-.3.1-.3.9-.3,1.3h-.1l-.5-3.6h.2c.1.5.3.9.6.8l4.9-.6.2-.2a2.1,2.1,0,0,0,.3-.7h.1l1.2,2.1h0l-2,.2h0c.5.1,2.1.5,2.3,1.8a.9.9,0,0,1-.8,1C313.6,146.2,313.2,145.9,313.2,145.6Z"/><path class="cls-1" d="M307.9,149.5a8.5,8.5,0,0,1,.3-2.5l2.2-.2h0c-.9.4-2.4,1.3-2.3,2.5a1.5,1.5,0,0,0,1.8,1.3c.6,0,.9-.5,1-1.1l.3-1.5a1.9,1.9,0,0,1,1.7-1.5,2.4,2.4,0,0,1,2.4,2.4,7.2,7.2,0,0,1-.2,2.2l-2,.3H313c1.1-.6,2.2-1.5,2.1-2.5a1.3,1.3,0,0,0-1.4-1.1c-.8,0-1,.5-1.1,1.2s-.2,1.2-.2,1.4a2.2,2.2,0,0,1-1.9,1.8C308.9,152.3,308.1,151,307.9,149.5Z"/><path class="cls-1" d="M308.5,168.7l.2-9.8h.1a3,3,0,0,0,.6,1.4,3.2,3.2,0,0,0,1.6.3h6a4.4,4.4,0,0,0,1.8-.2,1.9,1.9,0,0,0,.5-1.3h.2v5.1h-.1c-.1-.5-.3-1.5-1.3-1.6h-8.7a3.2,3.2,0,0,0-.5,1.8,8.3,8.3,0,0,0,.2,2c.4,1.6,1.6,2.1,2.7,2.7h0Z"/><path class="cls-1" d="M308.1,174.6a1.4,1.4,0,0,1,1.5-1.4h0a2.4,2.4,0,0,1-1.2-2.2,1.4,1.4,0,0,1,1.5-1.4,2.3,2.3,0,0,1,1.5,1.3c.7,1.4.9,2.1,1.2,2.5h1.3c.4,0,.9-.3,1-1.1s-.4-1-.6-1h-1c-.2,0-.5-.5-.5-.9s.4-.7.7-.6.8.5,1,.9a7.5,7.5,0,0,1,1,3,1.3,1.3,0,0,1-.9,1.3h-.9l-3.4-.2c-.9-.1-1.1.3-1.1.7a.7.7,0,0,0,.5.7h0A1.8,1.8,0,0,1,308.1,174.6Zm4.3-1.2c-.5-.7-.9-2.1-2-2.2a.8.8,0,0,0-1,.8c0,.4,0,.9.3,1.1h.4Z"/><path class="cls-1" d="M307.4,181.1h0l1.6.2h0a3.3,3.3,0,0,1-1.3-2.6c.1-1.3,1-1.8,2.5-1.6l3.6.4h.7c.4-.1.5-.5.5-.9h.2l-.3,2.6-4.2-.5c-1.3-.1-2,.1-2.1,1.1a1.6,1.6,0,0,0,.6,1.5l4.2.5h.8a5.1,5.1,0,0,0,.4-1h.1l-.3,2.8-5.8-.7h-.3a3.5,3.5,0,0,0-.5.8h-.1Z"/><path class="cls-1" d="M311.8,189.4c.1-.8.7-.6.7-1s-.4-1-.9-1.3l-4.3-.7c-.4.1-.5.8-.6,1.2h-.2l.6-3.6h.2c0,.5.1.9.4,1l4.8.8h.3a1.8,1.8,0,0,0,.5-.7h.1l.6,2.4h-.1l-2-.3h0c.4.3,1.9,1.1,1.7,2.4a.8.8,0,0,1-1,.7A.7.7,0,0,1,311.8,189.4Z"/><path class="cls-1" d="M305.2,194.1a1.5,1.5,0,0,1,1.7-1.2h0a2.2,2.2,0,0,1-.9-2.4,1.4,1.4,0,0,1,1.7-1.1c.5.1,1,.8,1.3,1.5s.6,2.2.8,2.6l1.3.3a1,1,0,0,0,1.1-.9c.1-.7-.2-1.1-.5-1.2h-.9a1,1,0,0,1-.3-1,.7.7,0,0,1,.7-.6c.6.1.7.7.9,1.1a8.3,8.3,0,0,1,.6,3.1,1.7,1.7,0,0,1-1.1,1.2h-.9l-3.3-.7c-.9-.2-1.2.1-1.2.5a.7.7,0,0,0,.3.8h0A1.8,1.8,0,0,1,305.2,194.1Zm4.4-.6c-.4-.8-.5-2.3-1.6-2.5a1,1,0,0,0-1.2.7c0,.4,0,.9.2,1.1l.3.2Z"/><path class="cls-1" d="M302,206.7c.4-.3.2-.2,1.3-.6a21.3,21.3,0,0,0,3.3-1.1c.5-.3,1.2-.6,1.4-1.1l.2-.4-2.8-.8a2.6,2.6,0,0,0-1.4-.2,1.6,1.6,0,0,0-1,1.2h-.2l1.5-5h.1c0,.5-.1,1.1.2,1.4s.9.5,1.5.7l3,.9,2.8.9c.7.2,1.5.4,1.8.2a1.6,1.6,0,0,0,.8-1h.1l-1.2,4.3A7.1,7.1,0,0,1,312,209a2.5,2.5,0,0,1-2.7.8c-1.4-.4-1.9-1.8-2-3.2h0a2.7,2.7,0,0,1-1.2.7l-2.8.9a3.2,3.2,0,0,0-2.2,1.8H301Zm10.5.5a2.4,2.4,0,0,0,.7-1.3l.2-.8-1.1-.4-3.9-1.2a5.1,5.1,0,0,0-.3,2,2.3,2.3,0,0,0,1.9,2.3A2.4,2.4,0,0,0,312.5,207.2Z"/><path class="cls-1" d="M299.3,214.2a1.3,1.3,0,0,1,1.8-.9h0a2.4,2.4,0,0,1-.6-2.5,1.4,1.4,0,0,1,1.9-.9,2.1,2.1,0,0,1,1,1.7c.3,1.5.4,2.2.5,2.7l1.3.4a1,1,0,0,0,1.2-.7,1.1,1.1,0,0,0-.3-1.2l-.9-.3c-.3-.1-.4-.6-.2-1a.7.7,0,0,1,.8-.5c.5.2.6.8.7,1.2a8.9,8.9,0,0,1,.2,3.1,1.8,1.8,0,0,1-1.3,1.1l-.9-.2c-1.3-.5-1.8-.8-3.1-1.2s-1.2-.1-1.3.3a.7.7,0,0,0,.2.9h0A1.8,1.8,0,0,1,299.3,214.2Zm4.4,0c-.3-.8-.2-2.3-1.3-2.7a1,1,0,0,0-1.2.6,1.4,1.4,0,0,0,0,1.1l.3.2Z"/><path class="cls-1" d="M301.4,224.5c.1-.3.8-.7,1.3-1.1h0a2.9,2.9,0,0,1-1.6-.1c-1.4-.6-1.7-2-.9-3.8a7.9,7.9,0,0,0,.4-.9c.2-.5.1-.9-.3-1.1s-.9.4-1.2,1.1l-.9,2.1a2.2,2.2,0,0,1-3,1.3c-1.4-.6-2.1-2.6-1.1-4.8s1.9-3,3-2.5.9,1.4.9,2.3h.1c.5-.8,1.2-1.2,1.9-.9a1.9,1.9,0,0,1,.8,2.3h.1a1.9,1.9,0,0,1,2.4-.5c1.2.5,1.6,2,.9,3.6a3.1,3.1,0,0,1-1.2,1.7l-.2.5c-.2.4,0,.8-.2,1.3a.6.6,0,0,1-.8.3A.5.5,0,0,1,301.4,224.5Zm-5.1-4a4,4,0,0,0,1.1-1.8,7.8,7.8,0,0,0,.5-1.4,1.3,1.3,0,0,0-1-1.1,2,2,0,0,0-2.6,1.4,3.4,3.4,0,0,0-.4,1.2,2.2,2.2,0,0,0,1.2,1.8A1.2,1.2,0,0,0,296.3,220.5Zm7.8.8c.3-.8-.5-1.6-1.4-2s-2.1-.3-2.4.5.4,1.7,1.4,2.1S303.7,222.2,304.1,221.3Z"/><path class="cls-1" d="M294,226.5h.2c-.2.5-.3.9,0,1l3.3,1.6c1,.5,1.9.5,2.3-.4a1.9,1.9,0,0,0,0-1.5l-4.4-2.1c-.4-.1-.6.2-.8.5h-.1l1.4-2.9h.1c-.2.5-.2.9.1,1l4.5,2.2h.4l.6-.5h0l-.2,2.4h0l-1.5-.7h0a3.2,3.2,0,0,1,.4,2.9c-.5,1.1-1.6,1.2-2.8.6l-4-1.9c-.3-.1-.6.4-.8.7h-.1Z"/><path class="cls-1" d="M289.9,234.3a1.3,1.3,0,0,1,1.9-.6h0a2.6,2.6,0,0,1-.2-2.6,1.4,1.4,0,0,1,2-.5,1.9,1.9,0,0,1,.8,1.7,23.9,23.9,0,0,1,0,2.8l1.2.6a1.1,1.1,0,0,0,1.4-.5,1.1,1.1,0,0,0-.2-1.2l-.8-.5c-.2-.1-.3-.6-.1-1a.7.7,0,0,1,.9-.3c.5.2.5.8.6,1.3a11.7,11.7,0,0,1-.4,3.1,1.6,1.6,0,0,1-1.4.8,2,2,0,0,1-.8-.4l-3-1.6c-.8-.4-1.1-.2-1.3.1a.7.7,0,0,0,.1.9h0A1.7,1.7,0,0,1,289.9,234.3Zm4.3.7c-.1-.8.2-2.3-.8-2.8a1,1,0,0,0-1.3.3,1.5,1.5,0,0,0-.2,1.1l.3.3Z"/><path class="cls-1" d="M291.5,242.5c.4-.7.8-.3,1.1-.7s-.1-1.1-.5-1.6l-3.6-2.2c-.4,0-.8.6-1.1.9h-.1l1.9-3.1h.1c-.2.5-.2.9,0,1.1l4.2,2.5h.4l.6-.4h.1l-.4,2.4h0l-1.8-1.1h0c.3.4,1.4,1.7.7,2.8a.9.9,0,0,1-1.2.4A.8.8,0,0,1,291.5,242.5Z"/><path class="cls-1" d="M285,242.3a6.2,6.2,0,0,1,1.8-1.8l1.8,1.2h-.1c-1-.2-2.6-.4-3.3.6a1.4,1.4,0,0,0,.5,2.1,1.1,1.1,0,0,0,1.5-.3l1.2-1a1.9,1.9,0,0,1,2.3,0,2.3,2.3,0,0,1,.3,3.3,5.8,5.8,0,0,1-1.5,1.6l-1.8-1h.1c1.2.2,2.5.1,3.1-.7a1.2,1.2,0,0,0-.4-1.8,1.1,1.1,0,0,0-1.5.3l-1.1,1a2.1,2.1,0,0,1-2.6.2C284,245.1,284.2,243.6,285,242.3Z"/><path class="cls-1" d="M273.5,257.8l6.2-7.6h.1a1.9,1.9,0,0,0-.4,1.4,3.8,3.8,0,0,0,1.1,1.2l2.4,2,2.3,1.8c.5.4,1.1.9,1.4.9a1.9,1.9,0,0,0,1.3-.7h.1l-3.2,4h-.1a1.5,1.5,0,0,0,0-2.1l-2.9-2.3a27.8,27.8,0,0,0-2.7-2.1,6.1,6.1,0,0,0-1.3-.9,2.4,2.4,0,0,0-1.4,1.2,3.8,3.8,0,0,0-1.1,1.7c-.7,1.5-.1,2.6.5,3.7h-.1Z"/><path class="cls-1" d="M269.5,262.1a1.4,1.4,0,0,1,2-.1h.1a2.5,2.5,0,0,1,.3-2.6,1.4,1.4,0,0,1,2.1,0,2.2,2.2,0,0,1,.4,1.9c-.3,1.5-.6,2.2-.7,2.7l1,.9a1.2,1.2,0,0,0,1.5-.3.9.9,0,0,0,.1-1.2l-.7-.6c-.2-.2-.1-.7.2-1a.8.8,0,0,1,1-.1,1.4,1.4,0,0,1,.2,1.4,12.6,12.6,0,0,1-1.1,2.9,1.8,1.8,0,0,1-1.6.5l-.7-.6-2.5-2.3c-.6-.6-1-.4-1.3-.1s-.2.6-.1.9h0A1.7,1.7,0,0,1,269.5,262.1Zm4.1,1.7c.1-.8.7-2.2-.2-2.9a.9.9,0,0,0-1.3,0,1.1,1.1,0,0,0-.4,1,.5.5,0,0,0,.2.4Z"/><path class="cls-1" d="M264.9,266.8h.1l1.1,1.1h0a3.3,3.3,0,0,1,.6-2.8c.9-.9,1.9-.8,2.9.3l2.6,2.5a1.3,1.3,0,0,0,.6.5c.3.1.7-.2,1-.4h.1l-1.9,1.9-3-3c-.9-1-1.5-1.2-2.3-.5a1.7,1.7,0,0,0-.4,1.6l3,3c.1.1.4.4.6.4l1-.6h.1l-2,2-4.1-4.1c-.1-.2-.2-.2-.4-.2l-.8.3h-.1Z"/><path class="cls-1" d="M263.2,276c.6-.5.9-.1,1.2-.3a1.7,1.7,0,0,0,.1-1.7l-2.9-3.1c-.4-.2-.9.3-1.3.5h-.1l2.8-2.5h.1c-.4.4-.5.8-.3,1l3.3,3.6c.1.1.1.2.3.1l.8-.2h0l-1,2.2h-.1l-1.4-1.6h0c.2.5.8,2.1-.1,3a.9.9,0,0,1-1.3-.1A.8.8,0,0,1,263.2,276Z"/><path class="cls-1" d="M255.2,275.6a1.3,1.3,0,0,1,2,.1h0a2.3,2.3,0,0,1,.7-2.4,1.4,1.4,0,0,1,2.1.2,2.4,2.4,0,0,1,.1,1.9c-.5,1.5-.8,2.1-1,2.6l.9,1a1.2,1.2,0,0,0,1.4,0c.5-.5.5-1,.3-1.2l-.6-.7c-.2-.2,0-.7.3-1a.9.9,0,0,1,1,0,1.4,1.4,0,0,1,0,1.4,10.3,10.3,0,0,1-1.4,2.8,1.5,1.5,0,0,1-1.7.2c-.1,0-.4-.3-.6-.6s-1.3-1.5-2.1-2.6-1-.6-1.3-.3-.4.6-.2.8H255A1.6,1.6,0,0,1,255.2,275.6Zm3.8,2.2c.1-.8.9-2.1.2-2.9a.9.9,0,0,0-1.3-.2,1.5,1.5,0,0,0-.6,1c0,.1.1.2.2.4Z"/><path class="cls-1" d="M244.8,283.4l1.4.4a20.9,20.9,0,0,0,3.3,1.2,3.3,3.3,0,0,0,1.7,0l.4-.2c-.7-1.1-1.3-1.8-1.7-2.4s-.6-.9-.9-1a2.1,2.1,0,0,0-1.6.3h-.1l4.2-3h.1c-.3.4-.7.8-.7,1.2a4,4,0,0,0,.7,1.5l1.8,2.6,1.7,2.3c.4.6.9,1.3,1.3,1.4s.7-.1,1.2-.3h.1l-3.6,2.5a6.2,6.2,0,0,1-2.9,1.5,2.5,2.5,0,0,1-2.6-1.1,3.2,3.2,0,0,1,.4-3.7h0l-1.3-.2-2.8-1a3.1,3.1,0,0,0-2.8,0H242Zm7.9,7a3.5,3.5,0,0,0,1.4-.6l.6-.5-.6-1-2.4-3.3a5.8,5.8,0,0,0-1.4,1.3,2.4,2.4,0,0,0,0,3A2.6,2.6,0,0,0,252.7,290.4Z"/><path class="cls-1" d="M238,287.7a1.4,1.4,0,0,1,2,.4h0a2.6,2.6,0,0,1,1.1-2.3,1.4,1.4,0,0,1,2,.5,1.9,1.9,0,0,1-.2,1.9c-.7,1.4-1.1,2-1.3,2.4l.7,1.2a1.1,1.1,0,0,0,1.4.1.9.9,0,0,0,.5-1.1l-.5-.8a.9.9,0,0,1,.4-.9c.4-.2.8-.2,1,.1s0,1-.2,1.4a9.5,9.5,0,0,1-1.8,2.5,1.4,1.4,0,0,1-1.6.1,2.2,2.2,0,0,1-.6-.7l-1.7-2.9c-.5-.8-.9-.8-1.3-.6a.7.7,0,0,0-.3.9h-.1A1.8,1.8,0,0,1,238,287.7Zm3.5,2.7c.3-.8,1.2-1.9.6-2.9a.9.9,0,0,0-1.3-.3,1.6,1.6,0,0,0-.7.9c0,.1.1.2.1.4Z"/><path class="cls-1" d="M233.3,297a5.2,5.2,0,0,1,1.7.1h0a2.9,2.9,0,0,1-1.2-1c-.8-1.4-.1-2.7,1.6-3.6l.9-.4a.8.8,0,0,0,.4-1.1c-.3-.5-.9-.2-1.6.1l-2,1.1a2.1,2.1,0,0,1-3.1-.8c-.8-1.4-.1-3.3,2-4.5s3.4-1.1,4-.1-.2,1.6-.7,2.4h0a1.6,1.6,0,0,1,2.1.6,1.8,1.8,0,0,1-.8,2.2h0a2.1,2.1,0,0,1,2.3,1c.6,1.2,0,2.7-1.6,3.5a3.5,3.5,0,0,1-1.9.6l-.5.2c-.5.2-.5.7-1,.9s-.6,0-.8-.3A.7.7,0,0,1,233.3,297Zm-1.5-6.2a4,4,0,0,0,1.9-.7l1.3-.8a1.4,1.4,0,0,0,0-1.5,2.2,2.2,0,0,0-3-.6,2.9,2.9,0,0,0-1,.8,1.8,1.8,0,0,0-.2,2.1A1.3,1.3,0,0,0,231.8,290.8Zm5.5,5.4c.8-.4.7-1.5.2-2.4s-1.5-1.5-2.1-1.1-.8,1.6-.2,2.6S236.5,296.7,237.3,296.2Z"/><path class="cls-1" d="M226.3,294.1h.1c-.5.3-.8.5-.6.8l1.6,3.3c.4,1,1.1,1.5,2,1.1s.7-.6.9-1.2l-2.1-4.4c-.3-.3-.6-.2-.9,0v-.2l2.9-1.4h0c-.4.3-.6.6-.5.9l2.2,4.5c.1.1.1.2.3.2h.8l-1.7,1.8h-.1l-.7-1.5h0a3.2,3.2,0,0,1-1.5,2.6c-1.1.5-2-.1-2.6-1.3l-1.9-3.9c-.2-.3-.7-.2-1.1,0v-.2Z"/><path class="cls-1" d="M218.2,297.6a1.4,1.4,0,0,1,1.9.8h0a2.4,2.4,0,0,1,1.4-2.2,1.5,1.5,0,0,1,1.9.8,2.1,2.1,0,0,1-.5,1.9c-.9,1.3-1.4,1.8-1.7,2.2l.6,1.2a1.1,1.1,0,0,0,1.4.4c.5-.3.7-.8.6-1l-.4-.9c-.1-.2.2-.7.6-.8s.8-.1.9.3-.1.9-.4,1.3a7.5,7.5,0,0,1-2.2,2.2,1.4,1.4,0,0,1-1.6-.2,2.9,2.9,0,0,1-.4-.8c-.6-1.3-.7-1.8-1.3-3.1s-.8-.9-1.1-.7a.8.8,0,0,0-.5.8h-.1A1.9,1.9,0,0,1,218.2,297.6Zm3,3.3c.4-.7,1.5-1.7,1.1-2.8a1.1,1.1,0,0,0-1.3-.5c-.3.2-.7.4-.8.7a.9.9,0,0,0,.1.5Z"/><path class="cls-1" d="M214.4,305.1c.7-.3.8.2,1.2.1s.7-.9.7-1.5l-1.6-4c-.2-.3-.9-.1-1.3,0h-.1l3.5-1.3h0c-.4.2-.7.5-.6.8l1.8,4.6c0,.1,0,.2.2.2h.8l-1.8,1.7h-.1l-.7-1.9h0c0,.5,0,2.2-1.2,2.7a1,1,0,0,1-1.2-.6A.7.7,0,0,1,214.4,305.1Z"/><path class="cls-1" d="M209.4,300.9a5.7,5.7,0,0,1,2.5-.3l.7,2h-.1c-.7-.7-1.9-1.9-3-1.5a1.3,1.3,0,0,0-.9,1.9c.2.6.7.8,1.4.8h1.5a1.9,1.9,0,0,1,1.8,1.4,2.3,2.3,0,0,1-1.7,2.8,6.4,6.4,0,0,1-2.2.3l-.8-1.8h.1c.8.9,1.9,1.7,2.8,1.4a1.2,1.2,0,0,0,.8-1.6c-.2-.7-.7-.8-1.4-.8h-1.4a2,2,0,0,1-2.2-1.4C206.8,302.5,208,301.4,209.4,300.9Z"/><path class="cls-1" d="M190.8,305.9l9.5-2.1h.1a2.3,2.3,0,0,0-1.2.9c-.2.2-.1,1,.1,1.6l.6,3,.7,2.9a2.7,2.7,0,0,0,.6,1.6,2.1,2.1,0,0,0,1.4.3h0l-5,1.2v-.2c.5-.2,1.5-.6,1.3-1.6l-.8-3.6c-.3-1.4-.5-2.1-.8-3.4a6.4,6.4,0,0,0-.5-1.5,2.9,2.9,0,0,0-1.9,0,7.6,7.6,0,0,0-1.9.7,4,4,0,0,0-1.9,3.3h-.2Z"/><path class="cls-1" d="M185,306.8a1.3,1.3,0,0,1,1.6,1.2h.1a2.5,2.5,0,0,1,1.8-1.8,1.4,1.4,0,0,1,1.7,1.2,2.1,2.1,0,0,1-.9,1.8l-2.2,1.7.3,1.3a1,1,0,0,0,1.2.7,1.1,1.1,0,0,0,.9-.8l-.2-.9a.9.9,0,0,1,.8-.7.6.6,0,0,1,.8.5c.1.5-.3.9-.7,1.2a10.1,10.1,0,0,1-2.6,1.6,1.6,1.6,0,0,1-1.6-.6c-.1-.1-.1-.5-.2-.8s-.3-2-.5-3.4-.6-1-.9-1a.8.8,0,0,0-.7.7h-.1A2,2,0,0,1,185,306.8Zm2.1,3.9c.6-.6,1.9-1.3,1.7-2.4a.9.9,0,0,0-1.1-.8,1.2,1.2,0,0,0-.9.5.6.6,0,0,0-.1.4Z"/><path class="cls-1" d="M178.5,307.6h.1v1.6h.1a3.1,3.1,0,0,1,2.2-1.9q1.8-.2,2.1,2.1l.4,3.6a1.9,1.9,0,0,0,.2.7c.2.3.6.3,1,.3h0l-2.6.4-.5-4.3c-.1-1.3-.5-1.9-1.5-1.8a1.7,1.7,0,0,0-1.3,1l.5,4.2a1.4,1.4,0,0,0,.2.7l1.1.2h.1l-2.8.3-.7-5.8c0-.1-.1-.2-.2-.3l-.9-.3h0Z"/><path class="cls-1" d="M171.4,313.8c.7-.1.7.5,1.1.5s.9-.7,1.1-1.3l-.3-4.3c-.2-.3-.9-.3-1.3-.3v-.2l3.6-.2h.1c-.5.1-.9.3-.9.6l.4,4.9c0,.2,0,.2.2.3l.7.3h0l-2.2,1.1h-.1v-2.1h-.1c-.2.5-.6,2.2-1.9,2.2a.8.8,0,0,1-1-.8A.8.8,0,0,1,171.4,313.8Z"/><path class="cls-1" d="M165.4,308.4a1.3,1.3,0,0,1,1.4,1.4h.1a2.7,2.7,0,0,1,2.1-1.5,1.4,1.4,0,0,1,1.4,1.5c.1.5-.4,1.1-1.1,1.5l-2.4,1.5v1.3c0,.4.4.9,1.2.9s.9-.5.9-.7v-1c0-.2.4-.5.8-.6a.8.8,0,0,1,.8.7c0,.5-.5.8-.9,1.1a7.8,7.8,0,0,1-2.8,1.2,1.4,1.4,0,0,1-1.4-.8,1.5,1.5,0,0,1-.2-.8v-3.4c-.1-.9-.4-1.1-.8-1.1s-.7.2-.7.5h-.1A1.8,1.8,0,0,1,165.4,308.4Zm1.5,4.1c.7-.5,2.1-1,2.1-2.1a1.1,1.1,0,0,0-1-.9,1.5,1.5,0,0,0-1,.3.9.9,0,0,0-.1.5Z"/><path class="cls-1" d="M152.3,308.1a5.8,5.8,0,0,1,.8,1.2,24.9,24.9,0,0,0,1.9,3,2.9,2.9,0,0,0,1.4,1.1h.4c.1-1.3.2-2.3.2-2.9a4.9,4.9,0,0,0-.1-1.4,1.8,1.8,0,0,0-1.5-.7v-.2l5.2.3h0c-.5.1-1.1.2-1.3.5s-.3,1-.4,1.6-.1,2-.1,3.1l-.2,3c0,.7-.1,1.5.2,1.8s.6.4,1.2.5v.2l-4.4-.3a6.3,6.3,0,0,1-3.2-.6A2.6,2.6,0,0,1,151,316a3,3,0,0,1,2.6-2.6h0c-.3-.1-.6-.6-.9-1l-1.5-2.5a3.2,3.2,0,0,0-2.3-1.7h3.4Zm1.9,10.4a2.8,2.8,0,0,0,1.5.4h.8a8.7,8.7,0,0,1,.1-1.1c.1-1.4.2-3.8.2-4.1a4.5,4.5,0,0,0-2,.1,2.6,2.6,0,0,0-.6,4.7Z"/><path class="cls-1" d="M144.4,307.3a1.4,1.4,0,0,1,1.3,1.5h0a2.5,2.5,0,0,1,2.3-1.2,1.3,1.3,0,0,1,1.2,1.6c0,.6-.6,1.1-1.3,1.4a22.4,22.4,0,0,1-2.6,1.1v1.3a1.1,1.1,0,0,0,1,1.1c.7,0,1.1-.4,1.1-.6v-.9c0-.3.5-.6.9-.5a.8.8,0,0,1,.7.7c-.1.5-.6.8-1,1a7.4,7.4,0,0,1-3,.8,1.4,1.4,0,0,1-1.3-1,1.3,1.3,0,0,1,0-.9c.1-1.4.2-1.9.4-3.3s-.3-1.2-.6-1.2-.7.2-.8.5h-.1A1.8,1.8,0,0,1,144.4,307.3Zm1,4.3c.7-.4,2.2-.8,2.3-1.9a.9.9,0,0,0-.8-1,1.3,1.3,0,0,0-1.1.2.5.5,0,0,0-.2.4Z"/><path class="cls-1" d="M134.8,311.7c.4,0,.9.7,1.4,1.1h0a2.5,2.5,0,0,1-.3-1.5c.3-1.6,1.6-2.1,3.5-1.8l1,.2a.8.8,0,0,0,1-.5c0-.6-.6-.9-1.3-1l-2.3-.4a2.1,2.1,0,0,1-2-2.5c.3-1.6,2.1-2.7,4.4-2.3s3.4,1.2,3.2,2.4-1.2,1.1-2.1,1.4h0c1,.3,1.5,1,1.4,1.7a2,2,0,0,1-2,1.4h0a2,2,0,0,1,1,2.2c-.2,1.3-1.6,2.1-3.3,1.8a3.6,3.6,0,0,1-2-.8H136c-.5-.1-.9.2-1.3.1a.5.5,0,0,1-.5-.7C134.2,311.9,134.5,311.6,134.8,311.7Zm2.8-5.8a3.2,3.2,0,0,0,1.9.6H141a1.2,1.2,0,0,0,.9-1.1,2.2,2.2,0,0,0-2-2.3h-1.2a1.8,1.8,0,0,0-1.5,1.5A1.2,1.2,0,0,0,137.6,305.9Zm.9,7.7c.9.1,1.6-.8,1.7-1.8s-.2-2.1-1-2.2-1.6.8-1.8,1.9S137.6,313.4,138.5,313.6Z"/><path class="cls-1" d="M131.2,305v.2c-.5-.1-.9-.1-1,.2l-.8,3.6c-.2,1.1,0,1.9.9,2.1a1.6,1.6,0,0,0,1.5-.3l1.1-4.8c0-.4-.4-.5-.7-.6v-.2l3.1.7v.2c-.5-.1-.9,0-1,.3l-1,4.9c-.1.1-.1.2.1.3s.3.3.6.5h-.1l-2.4.3h-.1l.4-1.6h0A3.4,3.4,0,0,1,129,312c-1.1-.3-1.5-1.3-1.2-2.7l.9-4.2c.1-.3-.5-.5-.8-.7h0Z"/><path class="cls-1" d="M122.7,302.8a1.4,1.4,0,0,1,1,1.7h0a2.3,2.3,0,0,1,2.4-.8,1.3,1.3,0,0,1,1,1.8c-.1.5-.8.9-1.5,1.1a17.5,17.5,0,0,1-2.7.7l-.3,1.3a1.1,1.1,0,0,0,.8,1.2,1.2,1.2,0,0,0,1.2-.4l.2-.9a.9.9,0,0,1,1-.4.8.8,0,0,1,.5.9c-.1.5-.7.6-1.1.8a7.3,7.3,0,0,1-3.1.3,1.3,1.3,0,0,1-1.1-1.1,1.5,1.5,0,0,1,.1-.9c.4-1.4.6-1.9.9-3.3s0-1.1-.4-1.2a.6.6,0,0,0-.9.3h-.1A1.8,1.8,0,0,1,122.7,302.8Zm.3,4.4c.8-.3,2.2-.4,2.5-1.5a.8.8,0,0,0-.6-1.1,1.4,1.4,0,0,0-1.1,0,.5.5,0,0,0-.2.4Z"/><path class="cls-1" d="M115,306.2c.8.3.6.8,1,.9s1-.2,1.4-.7l1.3-4.1c0-.4-.7-.7-1.1-.9h.1l3.5,1.1v.2c-.4-.1-.9-.1-1,.2l-1.4,4.7a.2.2,0,0,0,0,.3l.5.6h0l-2.4.2h-.1l.6-1.9h0c-.3.4-1.4,1.8-2.6,1.4s-.8-.6-.6-1.1S114.7,306.1,115,306.2Z"/><path class="cls-1" d="M113.7,299.9a5.8,5.8,0,0,1,2.2,1.3l-.7,2H115c0-1-.2-2.7-1.3-3.1a1.3,1.3,0,0,0-1.9,1c-.3.6,0,1,.6,1.4l1.3.9a2,2,0,0,1,.5,2.2,2.3,2.3,0,0,1-3.1,1.1,4.8,4.8,0,0,1-1.9-1.1l.5-1.9h.1c.1,1.2.4,2.5,1.4,2.8a1.1,1.1,0,0,0,1.6-.7c.3-.7-.1-1.1-.6-1.5l-1.2-.8a2,2,0,0,1-.8-2.5C110.7,299.5,112.3,299.4,113.7,299.9Z"/><path class="cls-1" d="M96,292.3l8.9,4.2v.2a2,2,0,0,0-1.5-.1c-.3.1-.6.8-.9,1.3s-.9,1.8-1.4,2.8l-1.2,2.6c-.3.7-.7,1.4-.6,1.7a2.1,2.1,0,0,0,1,1.1h-.1L95.5,304h0c.6.1,1.6.4,2.1-.5s.9-2,1.6-3.3l1.5-3.2a3.1,3.1,0,0,0,.4-1.5c0-.2-.7-.7-1.4-1.1a10.8,10.8,0,0,0-1.9-.6,3.9,3.9,0,0,0-3.5,1.3h-.2Z"/><path class="cls-1" d="M90.9,289.4a1.4,1.4,0,0,1,.6,1.9h0a2.4,2.4,0,0,1,2.5-.2,1.4,1.4,0,0,1,.6,2,2.1,2.1,0,0,1-1.8.8,22.1,22.1,0,0,1-2.7,0l-.7,1.2a1.2,1.2,0,0,0,.6,1.4,1.1,1.1,0,0,0,1.2-.2l.4-.8a.8.8,0,0,1,1-.1.7.7,0,0,1,.4.9c-.3.5-.8.5-1.3.6a11.1,11.1,0,0,1-3.1-.4,1.3,1.3,0,0,1-.8-1.4,2.3,2.3,0,0,1,.3-.9l1.7-2.9c.4-.8.2-1.1-.2-1.3s-.6-.1-.8.1h-.1A1.7,1.7,0,0,1,90.9,289.4Zm-.7,4.3c.8-.1,2.3.2,2.8-.8a1.1,1.1,0,0,0-.3-1.3,1.5,1.5,0,0,0-1.1-.2l-.3.3Z"/><path class="cls-1" d="M85.3,286h.1l-.8,1.3h0a3,3,0,0,1,2.9-.1c1,.7,1.1,1.7.4,2.9l-2,3.1c0,.2-.3.5-.3.7s.4.6.7.9h-.1l-2.3-1.4,2.3-3.6c.7-1.1.8-1.8-.1-2.3a1.6,1.6,0,0,0-1.6-.1l-2.3,3.6c-.1.1-.3.5-.2.7a2.9,2.9,0,0,0,.8.8h-.1l-2.4-1.4,3.1-5c.1-.1.1-.2,0-.4l-.5-.8H83Z"/><path class="cls-1" d="M75.9,286.4c.7.5.3.9.7,1.1s1,.1,1.5-.3l2.5-3.5c.1-.4-.5-.8-.8-1.1h.1l3,2h-.1a.9.9,0,0,0-1,0l-2.8,4c-.1.2-.1.2,0,.4l.3.7h0l-2.4-.6h-.1l1.2-1.7h0c-.5.2-1.9,1.2-2.9.5a1,1,0,0,1-.3-1.3A.9.9,0,0,1,75.9,286.4Z"/><path class="cls-1" d="M74.5,278.5a1.3,1.3,0,0,1,.3,2h0a2.7,2.7,0,0,1,2.6.1,1.5,1.5,0,0,1,.3,2.1,2.3,2.3,0,0,1-1.9.5l-2.7-.3-.9,1a1.4,1.4,0,0,0,.4,1.5c.5.3,1.1.2,1.2,0l.6-.8a.8.8,0,0,1,1,.1.7.7,0,0,1,.2.9c-.3.5-.9.4-1.3.4a9.1,9.1,0,0,1-3.1-.8,1.7,1.7,0,0,1-.6-1.5c0-.2.3-.5.5-.8l2-2.7c.6-.7.4-1.1.1-1.3a.6.6,0,0,0-.9,0h-.1A1.7,1.7,0,0,1,74.5,278.5Zm-1.3,4.2c.8,0,2.2.5,2.9-.4a1,1,0,0,0-.2-1.4,1.3,1.3,0,0,0-1-.3c-.1,0-.3.1-.3.2Z"/><path class="cls-1" d="M64.5,270.2a10.3,10.3,0,0,1-.1,1.4,33.9,33.9,0,0,0-.4,3.5,3.1,3.1,0,0,0,.4,1.7l.3.3,1.9-2.1c.5-.5.8-.9.8-1.2s-.1-.9-.7-1.5h.1l3.9,3.4v.2a1.8,1.8,0,0,0-1.3-.5,4,4,0,0,0-1.3,1.1l-2.1,2.3L64,280.9a3.5,3.5,0,0,0-1,1.5,1.6,1.6,0,0,0,.6,1.2h-.1l-3.3-2.9a6.7,6.7,0,0,1-2.1-2.5,2.5,2.5,0,0,1,.5-2.8c.9-1.1,2.4-1,3.7-.4h0a1.8,1.8,0,0,1-.1-1.3c.1-.9.3-2.1.3-2.9a3.2,3.2,0,0,0-.6-2.8H62Zm-5,9.3a2.7,2.7,0,0,0,.9,1.2l.6.5.9-.8,2.7-3.1a4.5,4.5,0,0,0-1.7-1.1,2.5,2.5,0,0,0-2.9.7A2.8,2.8,0,0,0,59.5,279.5Z"/><path class="cls-1" d="M58.8,264.6a1.4,1.4,0,0,1,.1,2h0a2.7,2.7,0,0,1,2.5.5,1.4,1.4,0,0,1,0,2.1,2.5,2.5,0,0,1-2,.3l-2.6-.8-1,1a1.1,1.1,0,0,0,.2,1.4c.5.4,1,.4,1.2.2l.6-.6a.8.8,0,0,1,1,.2c.3.2.4.7.1.9a1.4,1.4,0,0,1-1.4.2,12,12,0,0,1-2.9-1.2,1.9,1.9,0,0,1-.4-1.6l.6-.7c1-1,1.5-1.4,2.4-2.4s.5-1,.3-1.3-.7-.3-.9-.1h-.1A1.7,1.7,0,0,1,58.8,264.6Zm-1.9,3.9c.9.2,2.2.8,3,0a.9.9,0,0,0,0-1.3,1.6,1.6,0,0,0-1-.5l-.4.2Z"/><path class="cls-1" d="M48.6,262.1a4.7,4.7,0,0,1,.4,1.7h0a2.5,2.5,0,0,1,.8-1.4c1.1-1.1,2.5-.7,3.8.7a4.2,4.2,0,0,1,.6.8.8.8,0,0,0,1.1.2c.5-.4.1-1-.4-1.6l-1.6-1.7a2.1,2.1,0,0,1,.1-3.2c1.2-1.1,3.3-.8,4.9.9s1.9,3.1,1,3.9-1.7.2-2.5-.2h-.1c.6.9.6,1.7,0,2.2a1.7,1.7,0,0,1-2.3-.2h-.1a2.2,2.2,0,0,1-.5,2.4c-1,.9-2.6.6-3.8-.7a4.6,4.6,0,0,1-1-1.8l-.3-.4c-.3-.4-.8-.3-1.1-.7a.6.6,0,0,1,.1-.9C48,261.9,48.4,261.8,48.6,262.1Zm1.7,3.8c.6.6,1.7.3,2.5-.4s1.1-1.8.5-2.4-1.7-.3-2.5.4S49.6,265.1,50.3,265.9Zm4.1-6.7a3.1,3.1,0,0,0,1.1,1.7,4.7,4.7,0,0,0,1,1,1.2,1.2,0,0,0,1.5-.3,2.2,2.2,0,0,0-.1-3,3.1,3.1,0,0,0-1-.8,1.8,1.8,0,0,0-2.1.3A1.1,1.1,0,0,0,54.4,259.2Z"/><path class="cls-1" d="M49.9,254.6h-.1c-.4-.4-.7-.6-1-.4L46,256.6c-.8.7-1.2,1.5-.6,2.3a2,2,0,0,0,1.4.6l3.8-3.1c.2-.3,0-.6-.2-.9h.1l2.1,2.5h-.2c-.3-.4-.7-.6-.9-.4l-3.9,3.2c-.1.1-.1.1-.1.3s.1.5.1.8h0l-2.1-1.2h-.1l1.3-1h0a3.2,3.2,0,0,1-2.9-.9c-.7-.9-.4-2,.7-2.8l3.4-2.8c.2-.2-.1-.7-.3-1h.2Z"/><path class="cls-1" d="M44.6,247.6a1.3,1.3,0,0,1-.3,1.9h0a2.5,2.5,0,0,1,2.4.9,1.4,1.4,0,0,1-.3,2,2.3,2.3,0,0,1-2,0l-2.5-1.2-1.1.8a1.2,1.2,0,0,0,0,1.5,1,1,0,0,0,1.1.4l.8-.6c.2-.2.7,0,.9.4a.6.6,0,0,1-.1.9c-.4.3-.9.1-1.3,0a7.8,7.8,0,0,1-2.7-1.7,1.5,1.5,0,0,1-.2-1.6l.7-.6,2.7-2c.8-.5.7-.9.5-1.2a.7.7,0,0,0-.9-.3h0A1.8,1.8,0,0,1,44.6,247.6Zm-2.5,3.6c.8.2,2,1.1,2.9.4a.9.9,0,0,0,.2-1.3,1.1,1.1,0,0,0-.9-.6h-.4Z"/><path class="cls-1" d="M36.4,245.5c.5.7,0,1,.2,1.3s1,.4,1.6.3l3.6-2.4c.2-.3-.2-1-.4-1.3h.2l2,3h-.1c-.3-.3-.7-.6-.9-.4l-4.1,2.8c-.1,0-.2.1-.2.3a1.7,1.7,0,0,1,.1.7h-.1l-2-1.4h-.1l1.8-1.1h0c-.5.1-2.2.5-2.9-.6a.9.9,0,0,1,.2-1.3A1,1,0,0,1,36.4,245.5Z"/><path class="cls-1" d="M39.4,239.7a6.2,6.2,0,0,1,.8,2.4l-1.8,1.1h-.1c.7-.8,1.5-2.2.9-3.2a1.4,1.4,0,0,0-2.1-.5c-.6.4-.6.9-.4,1.6l.4,1.4a1.9,1.9,0,0,1-.9,2.1,2.4,2.4,0,0,1-3.2-1,8,8,0,0,1-.8-2.1l1.6-1.2h.1c-.7,1-1.2,2.2-.7,3.1a1.3,1.3,0,0,0,1.8.4,1.1,1.1,0,0,0,.4-1.5,12.7,12.7,0,0,0-.4-1.4,2.2,2.2,0,0,1,.8-2.5C37.2,237.6,38.6,238.4,39.4,239.7Z"/><path class="cls-1" d="M30.1,222.8l4.4,8.8h-.2a1.8,1.8,0,0,0-1.1-1,2.6,2.6,0,0,0-1.5.5l-2.8,1.3-2.7,1.3c-.6.3-1.3.6-1.4,1a1.7,1.7,0,0,0,.1,1.4h-.2l-2.2-4.6h.1c.3.4.9,1.3,1.9.9l3.3-1.6,3.1-1.6a4.2,4.2,0,0,0,1.3-.8,2.8,2.8,0,0,0-.4-1.8,5.9,5.9,0,0,0-1.1-1.7c-1.1-1.3-2.3-1.2-3.6-1.2h0Z"/><path class="cls-1" d="M27.9,217.3a1.3,1.3,0,0,1-.7,1.9h0a2.6,2.6,0,0,1,2.1,1.5,1.3,1.3,0,0,1-.8,1.9,2.2,2.2,0,0,1-1.8-.5c-1.3-.9-1.8-1.4-2.2-1.7l-1.3.5a1.2,1.2,0,0,0-.4,1.4,1,1,0,0,0,1.1.6l.8-.3c.3-.1.7.2.9.6a.8.8,0,0,1-.3.9,1.5,1.5,0,0,1-1.4-.4,11.3,11.3,0,0,1-2.2-2.2,1.5,1.5,0,0,1,.3-1.6c.1-.2.4-.3.7-.5l3.2-1.2c.8-.4.8-.8.7-1.2a.6.6,0,0,0-.8-.4h0A1.7,1.7,0,0,1,27.9,217.3Zm-3.2,3c.7.4,1.7,1.5,2.7,1.1a.9.9,0,0,0,.5-1.2,1.1,1.1,0,0,0-.7-.8h-.4Z"/><path class="cls-1" d="M25.6,211.2h.1l-1.5.5h0a3.1,3.1,0,0,1,2.3,1.8c.5,1.2-.1,2-1.5,2.5l-3.4,1.2-.7.4c-.2.2-.1.7,0,1h-.2l-.9-2.5,4.1-1.4c1.2-.5,1.7-1,1.3-1.9a1.6,1.6,0,0,0-1.2-1.1l-4,1.4-.6.4a2.6,2.6,0,0,0,.1,1.2h-.1l-1-2.6,5.5-2c.1-.1.2-.1.2-.3a2.5,2.5,0,0,0,.1-.9h.1Z"/><path class="cls-1" d="M18,205.7c.2.8-.3.9-.2,1.3a1.7,1.7,0,0,0,1.5.7l4.1-1.3c.3-.2.1-.9,0-1.3h.2l1.1,3.6h-.2c-.2-.4-.5-.7-.8-.7l-4.6,1.5c-.2,0-.2.1-.3.2s-.1.6-.1.8h-.1L17,208.5h0l2-.6h0c-.5,0-2.2-.1-2.6-1.3a.9.9,0,0,1,.6-1.2A.8.8,0,0,1,18,205.7Z"/><path class="cls-1" d="M21.8,198.6a1.4,1.4,0,0,1-.9,1.8h-.1a2.8,2.8,0,0,1,2,1.7,1.5,1.5,0,0,1-1.1,1.8,2.4,2.4,0,0,1-1.8-.7l-1.9-2-1.3.3a1.2,1.2,0,0,0-.6,1.4c.2.6.7.8.9.7l.9-.2c.3-.1.7.3.8.7a.7.7,0,0,1-.4.8c-.6.2-.9-.2-1.3-.5a10.9,10.9,0,0,1-1.9-2.5,1.6,1.6,0,0,1,.5-1.6l.8-.3,3.3-.8c.8-.3.9-.7.8-1a.6.6,0,0,0-.7-.6h0A1.6,1.6,0,0,1,21.8,198.6Zm-3.6,2.5c.7.5,1.5,1.8,2.6,1.5a.8.8,0,0,0,.6-1.1c-.1-.4-.3-.8-.6-.9h-.4Z"/><path class="cls-1" d="M19.2,185.9l-1,1.1a19.6,19.6,0,0,0-2.5,2.5A3.4,3.4,0,0,0,15,191v.5l2.9-.5a3.3,3.3,0,0,0,1.3-.4,2.1,2.1,0,0,0,.4-1.6h.1l.9,5.1h-.1a2.1,2.1,0,0,0-.8-1.2,5.3,5.3,0,0,0-1.7.1l-3,.5-2.9.5a3,3,0,0,0-1.7.6c-.3.3-.3.7-.3,1.3H10c-.1-.3-.6-3.3-.8-4.3a7.5,7.5,0,0,1-.1-3.3,2.6,2.6,0,0,1,2.1-1.9,3.2,3.2,0,0,1,3.2,2h0a2.8,2.8,0,0,1,.8-1.2l2.1-2a3.2,3.2,0,0,0,1.1-2.6h.2Zm-9.7,4.3a2.4,2.4,0,0,0-.1,1.5l.2.7h1.2l4-.7a5.9,5.9,0,0,0-.6-2,2.5,2.5,0,0,0-2.7-1.2A2.5,2.5,0,0,0,9.5,190.2Z"/><path class="cls-1" d="M18.2,178a1.4,1.4,0,0,1-1.2,1.6h-.1a2.5,2.5,0,0,1,1.7,2,1.5,1.5,0,0,1-1.3,1.6,2.4,2.4,0,0,1-1.7-1L14,179.9l-1.3.2a1.1,1.1,0,0,0-.8,1.2c.1.7.6,1,.8.9h.9a.9.9,0,0,1,.7.8c0,.4-.2.8-.6.8s-.8-.4-1.1-.7a8.6,8.6,0,0,1-1.5-2.8,1.5,1.5,0,0,1,.6-1.5h.9l3.4-.4c.9-.1,1-.5,1-.9s-.3-.6-.6-.6h-.1A1.8,1.8,0,0,1,18.2,178Zm-4,1.9c.6.6,1.2,2,2.4,1.8a.8.8,0,0,0,.8-1,1.2,1.2,0,0,0-.5-1h-.4Z"/><path class="cls-1" d="M11.7,169.7a4.8,4.8,0,0,1-.7,1.5h0a3.1,3.1,0,0,1,1.4-.7c1.6-.1,2.5,1.1,2.6,3v1c.1.6.4.8.8.8s.6-.8.6-1.5l-.2-2.3a2.2,2.2,0,0,1,2.1-2.5c1.6-.1,3,1.4,3.2,3.8s-.4,3.6-1.6,3.7-1.4-.9-1.9-1.7h0c-.1.9-.6,1.6-1.4,1.6s-1.5-.6-1.7-1.6h0a1.9,1.9,0,0,1-1.9,1.5c-1.3.1-2.4-1.1-2.5-2.8a3.7,3.7,0,0,1,.3-2.1V171c0-.5-.4-.7-.4-1.2s.2-.7.6-.7A.7.7,0,0,1,11.7,169.7Zm-1,4c.1.9,1.1,1.3,2.2,1.2s1.9-.7,1.9-1.5-1.2-1.3-2.3-1.3S10.6,172.7,10.7,173.7ZM18,171a3.7,3.7,0,0,0-.2,2c0,.4.2,1.2.2,1.5a1.3,1.3,0,0,0,1.4.6c1.2,0,1.8-1.3,1.8-2.4a13,13,0,0,0-.3-1.3,1.8,1.8,0,0,0-1.8-1A1.1,1.1,0,0,0,18,171Z"/><path class="cls-1" d="M17.4,164.6h-.2c0-.5-.1-.9-.5-.8H13.1c-1.1,0-1.9.4-1.9,1.4a1.9,1.9,0,0,0,.7,1.3h4.9c.4-.1.4-.5.4-.9h.2v3.2h-.1c-.1-.4-.2-.8-.6-.8H11.5l-.4.7H11l-.9-2.2h1.7a3.1,3.1,0,0,1-1.7-2.4c0-1.2.9-1.8,2.3-1.8h4.4c.3,0,.4-.6.4-.9h.1Z"/><path class="cls-1" d="M17.6,155.8a1.4,1.4,0,0,1-1.5,1.4h0a2.6,2.6,0,0,1,1.4,2.2,1.5,1.5,0,0,1-1.6,1.4c-.5,0-1.1-.6-1.5-1.2l-1.2-2.5H11.8a1,1,0,0,0-.9,1.1c0,.6.4,1,.6,1h1c.2,0,.5.5.5.9a.7.7,0,0,1-.7.7c-.5,0-.8-.5-1-.9a7.9,7.9,0,0,1-1.1-3,1.3,1.3,0,0,1,.9-1.3H12l3.4.2c.9,0,1.1-.4,1.1-.8a.7.7,0,0,0-.5-.7h0A1.9,1.9,0,0,1,17.6,155.8Zm-4.2,1.3c.5.7.9,2.1,2,2.2a1,1,0,0,0,1-.9,1.8,1.8,0,0,0-.3-1.1H13.4Z"/><path class="cls-1" d="M12.5,149.2c-.1.7-.6.7-.7,1.1s.5.9,1.1,1.2l4.3.3c.4-.1.4-.8.5-1.2h.2l-.3,3.6h-.1c-.1-.4-.2-.8-.5-.9l-4.9-.3h-.3a4.3,4.3,0,0,0-.4.7h-.1l-.8-2.4h0l2.1.2h0c-.5-.3-2-1-1.9-2.3a.8.8,0,0,1,.9-.8A.8.8,0,0,1,12.5,149.2Z"/><path class="cls-1" d="M18.4,146.4a6.7,6.7,0,0,1-.8,2.4l-2.1-.2v-.2c.9-.2,2.5-.8,2.7-1.9a1.5,1.5,0,0,0-1.5-1.7c-.6-.1-1,.3-1.2.9a9.8,9.8,0,0,1-.6,1.4,1.8,1.8,0,0,1-2,1.1,2.3,2.3,0,0,1-1.8-2.8,5.3,5.3,0,0,1,.6-2.1h2v.2c-1.2.4-2.4,1-2.5,2a1.2,1.2,0,0,0,1.1,1.4c.8.1,1.1-.3,1.3-1s.4-1.2.5-1.3a2.2,2.2,0,0,1,2.2-1.4C18,143.4,18.5,144.9,18.4,146.4Z"/><path class="cls-1" d="M22.4,124.4,20.2,134H20a2.1,2.1,0,0,0-.2-1.4c-.2-.3-.9-.5-1.5-.7l-3.1-.7-2.8-.7a3.8,3.8,0,0,0-1.7-.2,2.3,2.3,0,0,0-.9,1.2H9.7l1.2-5.1H11c0,.5-.1,1.6.9,1.9l3.6.8,3.4.8a2.9,2.9,0,0,0,1.5.2c.3-.1.6-.9.8-1.6a9.5,9.5,0,0,0,.3-2.1c-.1-1.6-1.1-2.3-2.1-3.1v-.2Z"/><path class="cls-1" d="M24.2,118.8a1.4,1.4,0,0,1-1.8,1h0a2.4,2.4,0,0,1,.7,2.5,1.4,1.4,0,0,1-1.8.9c-.5-.1-.9-.8-1.1-1.5s-.5-2.3-.6-2.7l-1.3-.4a1.1,1.1,0,0,0-1.2.8,1.1,1.1,0,0,0,.4,1.2l.9.2a1,1,0,0,1,.3,1,.7.7,0,0,1-.9.5c-.5-.1-.6-.7-.7-1.1a7.4,7.4,0,0,1-.3-3.1A1.5,1.5,0,0,1,18,117c.1-.1.5,0,.9.1s1.9.7,3.2,1,1.1,0,1.3-.4a.6.6,0,0,0-.4-.8h.1A1.7,1.7,0,0,1,24.2,118.8Zm-4.4.2c.3.8.3,2.3,1.4,2.6a.9.9,0,0,0,1.2-.6,1.4,1.4,0,0,0-.1-1.1c0-.1-.2-.2-.3-.2Z"/><path class="cls-1" d="M26.3,112.6h0l-1.5-.5h0a3.1,3.1,0,0,1,.7,2.8c-.4,1.2-1.4,1.5-2.8,1l-3.4-1.2-.7-.2a1.1,1.1,0,0,0-.7.8h-.2l.9-2.5,4,1.4c1.2.5,1.9.4,2.3-.5a1.9,1.9,0,0,0-.3-1.7l-4-1.4a.9.9,0,0,0-.7-.1,4.3,4.3,0,0,0-.7,1h-.1l.9-2.6,5.5,1.9c.2.1.3.1.4,0a4.6,4.6,0,0,0,.7-.7h0Z"/><path class="cls-1" d="M23.9,103.5c-.3.8-.7.5-.9.9s.2,1.1.6,1.5l4,1.6c.4,0,.7-.7.9-1h.2L27.3,110h-.2c.2-.5.1-.9-.2-1L22.4,107h-.3l-.6.5h-.1v-2.4h0l2,.8h0c-.4-.4-1.7-1.6-1.2-2.7a1,1,0,0,1,1.2-.6C23.9,102.7,24.1,103.2,23.9,103.5Z"/><path class="cls-1" d="M31.4,100.5a1.3,1.3,0,0,1-1.9.7h0a2.4,2.4,0,0,1,.4,2.6,1.4,1.4,0,0,1-1.9.7,2.1,2.1,0,0,1-.9-1.7c-.2-1.6-.2-2.3-.3-2.8l-1.2-.6a1.1,1.1,0,0,0-1.3.7,1.1,1.1,0,0,0,.2,1.2l.9.4c.2.1.3.6.1,1a.8.8,0,0,1-.9.4c-.4-.2-.5-.8-.6-1.3a9.4,9.4,0,0,1,.2-3.1,1.4,1.4,0,0,1,1.3-.9l.9.3,3,1.4c.8.4,1.2.2,1.3-.2a.6.6,0,0,0-.2-.9h.1A1.8,1.8,0,0,1,31.4,100.5Zm-4.4-.4c.2.8,0,2.3,1.1,2.8a.9.9,0,0,0,1.2-.5,1.1,1.1,0,0,0,.1-1.1c0-.1-.1-.2-.3-.2Z"/><path class="cls-1" d="M37.4,89l-1.4.2a23.5,23.5,0,0,0-3.5.4,3.3,3.3,0,0,0-1.6.7l-.2.4,2.5,1.4a3.6,3.6,0,0,0,1.3.5,1.8,1.8,0,0,0,1.3-1h.1l-2.5,4.5h-.1a2.3,2.3,0,0,0,.1-1.4c-.1-.3-.7-.6-1.3-1l-2.7-1.5-2.5-1.5c-.7-.3-1.4-.7-1.8-.6s-.6.4-1,.8H24c.2-.2,1.6-2.9,2.2-3.8a5.5,5.5,0,0,1,2-2.6,2.6,2.6,0,0,1,2.8-.1c1.3.7,1.5,2.1,1.2,3.5h0a2.6,2.6,0,0,1,1.4-.3l2.9-.3A3.3,3.3,0,0,0,39,86h.1ZM27.3,86.1a3.5,3.5,0,0,0-1,1.1,2.6,2.6,0,0,0-.3.7c.1.2.2.2.9.6l3.6,2.1a4.9,4.9,0,0,0,.7-1.9A2.4,2.4,0,0,0,29.9,86,2.4,2.4,0,0,0,27.3,86.1Z"/><path class="cls-1" d="M41.8,82.3a1.4,1.4,0,0,1-2,.4h0a2.7,2.7,0,0,1,0,2.6,1.4,1.4,0,0,1-2,.4,2.1,2.1,0,0,1-.7-1.8c.1-1.6.2-2.3.2-2.8l-1.1-.7a1.1,1.1,0,0,0-1.4.4,1.2,1.2,0,0,0,0,1.3l.8.5c.2.1.2.6,0,1a.7.7,0,0,1-.9.2c-.5-.3-.5-.8-.5-1.3a12.9,12.9,0,0,1,.6-3,1.7,1.7,0,0,1,1.5-.8l.8.4L39.9,81c.8.5,1.1.3,1.3,0a.6.6,0,0,0,0-.9h0A1.7,1.7,0,0,1,41.8,82.3Zm-4.3-1.1c0,.9-.3,2.3.6,2.9a.9.9,0,0,0,1.3-.2,1.7,1.7,0,0,0,.3-1.1l-.3-.3Z"/><path class="cls-1" d="M42.1,71.7c-.2.3-1,.5-1.6.7h0a3.7,3.7,0,0,1,1.5.4c1.3,1,1.2,2.4.1,4l-.7.7c-.2.5-.2.9.1,1.1s1-.1,1.4-.7l1.4-1.9a2.2,2.2,0,0,1,3.2-.6c1.3.9,1.4,3,0,5S44.9,83,44,82.3s-.5-1.6-.4-2.5h0a1.7,1.7,0,0,1-2.1.5,1.9,1.9,0,0,1-.3-2.4h0a2.1,2.1,0,0,1-2.5-.1c-1.1-.7-1.1-2.3-.1-3.7a3.9,3.9,0,0,1,1.5-1.4.8.8,0,0,0,.4-.4c.3-.4.2-.8.5-1.2s.6-.4.8-.1S42.3,71.4,42.1,71.7Zm-3.4,2.5c-.5.7,0,1.7.9,2.3s2,.7,2.4.1,0-1.8-.9-2.4S39.3,73.4,38.7,74.2ZM46,76.8a3.6,3.6,0,0,0-1.4,1.4l-.8,1.3a1.4,1.4,0,0,0,.7,1.3,2.1,2.1,0,0,0,2.9-.7A3,3,0,0,0,48,79a2,2,0,0,0-.7-2A1.1,1.1,0,0,0,46,76.8Z"/><path class="cls-1" d="M49.6,71.5h-.1c.3-.5.4-.8.2-1l-2.9-2.3c-.8-.7-1.6-.9-2.3-.2a2,2,0,0,0-.3,1.5L48,72.5c.4.2.6-.1.9-.4H49l-2,2.5h-.1c.2-.3.3-.8.1-1l-3.9-3.1h-.3l-.7.4H42l.7-2.3h.1l1.3,1h0a3.4,3.4,0,0,1,.3-2.9c.7-.9,1.8-.8,2.9,0l3.4,2.8c.2.2.7-.2.9-.5h.1Z"/><path class="cls-1" d="M55.4,64.8a1.3,1.3,0,0,1-2,.1h0a2.5,2.5,0,0,1-.4,2.6,1.3,1.3,0,0,1-2,.1,1.8,1.8,0,0,1-.4-1.9c.3-1.6.5-2.2.6-2.7l-1-.9a1.2,1.2,0,0,0-1.5.2c-.4.5-.3,1.1-.1,1.2l.7.6c.2.2.1.8-.1,1.1a.9.9,0,0,1-1,.1,1.4,1.4,0,0,1-.2-1.4A9.6,9.6,0,0,1,49,61a1.4,1.4,0,0,1,1.6-.5l.7.5,2.5,2.3c.7.6,1.1.4,1.3.1a.6.6,0,0,0,.1-.9h.1A1.8,1.8,0,0,1,55.4,64.8Zm-4.1-1.7c0,.9-.6,2.2.2,3a.9.9,0,0,0,1.3-.1,1.6,1.6,0,0,0,.5-1,.8.8,0,0,0-.2-.4Z"/><path class="cls-1" d="M55.7,56.4c-.5.6-.9.2-1.2.5s-.2,1,.1,1.6l3.1,3c.3.1.8-.4,1.2-.6H59l-2.6,2.6h-.1c.3-.4.4-.8.2-1L53,59.1h-.3l-.8.2h0l.9-2.3h0l1.5,1.5h0c-.2-.5-.9-2,0-3a.9.9,0,0,1,1.3,0A.9.9,0,0,1,55.7,56.4Z"/><path class="cls-1" d="M62,58.1a7.1,7.1,0,0,1-2.1,1.3l-1.5-1.5h.1c.9.4,2.5,1,3.3.2a1.4,1.4,0,0,0,0-2.2c-.4-.5-1-.4-1.6-.1a4.2,4.2,0,0,1-1.3.7,1.9,1.9,0,0,1-2.3-.5,2.5,2.5,0,0,1,.4-3.3,8.4,8.4,0,0,1,1.9-1.2l1.5,1.4h-.1c-1.1-.5-2.4-.8-3.2-.1a1.4,1.4,0,0,0,0,1.9c.5.5,1,.3,1.6,0l1.2-.7a2,2,0,0,1,2.6.4C63.6,55.5,63.1,57,62,58.1Z"/><path class="cls-1" d="M76.6,45.5l-7.7,6.1h0a4.2,4.2,0,0,0,.7-1.3,3.7,3.7,0,0,0-.8-1.5c-.4-.4-1.2-1.5-1.9-2.4L65.1,44c-.5-.6-.9-1.1-1.3-1.2a2,2,0,0,0-1.4.4V43l4.1-3.1h.1c-.4.4-1.1,1.1-.5,2l2.3,2.9,2.1,2.7c.4.5.8,1,1.1,1.1s1.1-.3,1.7-.8a6.1,6.1,0,0,0,1.4-1.4c1-1.3.7-2.5.4-3.8h.1Z"/><path class="cls-1" d="M81.5,42.2a1.4,1.4,0,0,1-2-.3h0a2.6,2.6,0,0,1-1,2.4,1.4,1.4,0,0,1-2-.4,2.1,2.1,0,0,1,.1-1.9,20,20,0,0,1,1.2-2.5L77,38.4a1,1,0,0,0-1.4-.1c-.5.4-.6.9-.4,1.1l.5.8c.2.2,0,.7-.4.9a.6.6,0,0,1-.9-.1c-.3-.4-.1-.9.1-1.4A6.9,6.9,0,0,1,76.2,37a1.5,1.5,0,0,1,1.6-.1l.6.7,1.9,2.8c.5.7.9.7,1.2.4a.6.6,0,0,0,.3-.8h.1A1.7,1.7,0,0,1,81.5,42.2Zm-3.6-2.6c-.2.8-1.1,2-.5,2.9a.9.9,0,0,0,1.3.3,1.6,1.6,0,0,0,.7-.9.8.8,0,0,0-.2-.4Z"/><path class="cls-1" d="M87,38.7h-.1l-.8-1.3h0A3.1,3.1,0,0,1,84.9,40c-1.1.7-2,.4-2.8-.9L80.2,36l-.5-.6c-.3-.2-.7.1-1.1.2h0l2.2-1.4,2.3,3.6c.7,1.1,1.2,1.5,2.1,1a2.1,2.1,0,0,0,.8-1.5l-2.3-3.6c-.1-.1-.3-.4-.5-.5a3,3,0,0,0-1.1.4v-.2l2.4-1.5,3.1,5,.3.2h1Z"/><path class="cls-1" d="M90.8,30.1c-.7.3-.9-.2-1.3,0a1.7,1.7,0,0,0-.4,1.6l2.1,3.8c.3.2,1-.1,1.3-.3h.1l-3.2,1.9V37c.4-.2.7-.6.5-.9l-2.4-4.2c-.1-.2-.1-.2-.3-.2h-.8l1.5-1.9h.1l1,1.9h0c0-.6-.3-2.3.8-2.9A1,1,0,0,1,91,29,.9.9,0,0,1,90.8,30.1Z"/><path class="cls-1" d="M98.5,32.3a1.3,1.3,0,0,1-1.9-.6h0a2.4,2.4,0,0,1-1.3,2.2,1.3,1.3,0,0,1-1.9-.6,1.9,1.9,0,0,1,.3-1.9l1.5-2.3-.6-1.2a1.1,1.1,0,0,0-1.4-.3,1,1,0,0,0-.6,1.1l.4.8c.2.2-.1.7-.5.9a.6.6,0,0,1-.9-.3,1.3,1.3,0,0,1,.3-1.3,10.8,10.8,0,0,1,2-2.4,2,2,0,0,1,1.7.1,2.9,2.9,0,0,1,.4.8c.7,1.2.9,1.8,1.5,3s.9.8,1.2.6a.6.6,0,0,0,.4-.8h.1A1.7,1.7,0,0,1,98.5,32.3Zm-3.2-3c-.3.7-1.4,1.8-.9,2.8a1,1,0,0,0,1.3.4c.3-.2.7-.4.7-.8s.1-.2,0-.4Z"/><path class="cls-1" d="M110.4,27l-1.2-.7a30.5,30.5,0,0,0-3-1.9,3.5,3.5,0,0,0-1.7-.4H104l1.2,2.7a2.2,2.2,0,0,0,.7,1.2,1.9,1.9,0,0,0,1.6.1h0l-4.8,2V30a1.9,1.9,0,0,0,1-1,4.1,4.1,0,0,0-.4-1.6c-.2-.5-.7-1.8-1.2-2.9L101,21.8a5.7,5.7,0,0,0-.9-1.6,2,2,0,0,0-1.3.1v-.2l4.1-1.7a8.3,8.3,0,0,1,3.1-.8,2.6,2.6,0,0,1,2.3,1.7c.6,1.4-.1,2.6-1.2,3.5h0a2.7,2.7,0,0,1,1.3.5l2.4,1.6a3.4,3.4,0,0,0,2.8.6h0Zm-6.2-8.6a4,4,0,0,0-1.5.3l-.6.3c0,.3,0,.3.3,1.1a36.1,36.1,0,0,0,1.6,3.8,3.7,3.7,0,0,0,1.7-1,2.3,2.3,0,0,0,.6-2.9A2.5,2.5,0,0,0,104.2,18.4Z"/><path class="cls-1" d="M117.9,24.4a1.4,1.4,0,0,1-1.8-.9h0a2.7,2.7,0,0,1-1.6,2.1,1.4,1.4,0,0,1-1.8-1,2,2,0,0,1,.6-1.8l1.8-2.1-.4-1.2a1.1,1.1,0,0,0-1.4-.5.9.9,0,0,0-.7,1l.3.8c.1.3-.2.7-.6.8a.6.6,0,0,1-.9-.3,1.2,1.2,0,0,1,.5-1.3,8.3,8.3,0,0,1,2.3-2.1,1.4,1.4,0,0,1,1.6.4,1.9,1.9,0,0,1,.4.8c.5,1.3.6,1.9,1,3.2s.8.9,1.1.8.6-.5.5-.8h.1A1.8,1.8,0,0,1,117.9,24.4Zm-2.7-3.5c-.5.7-1.7,1.6-1.3,2.7a.9.9,0,0,0,1.2.6,1.6,1.6,0,0,0,.9-.7v-.4Z"/><path class="cls-1" d="M124.7,16.3a4.5,4.5,0,0,1-1.7-.4h0c.4.4.8.7.9,1.2s-.5,2.6-2.3,3.2l-1,.2c-.6.2-.8.5-.7.9s.9.5,1.6.3l2.2-.7a2.2,2.2,0,0,1,2.9,1.5c.5,1.6-.7,3.3-3,4s-3.6.3-3.9-.8.6-1.6,1.3-2.2h0a1.7,1.7,0,0,1-2-1,1.8,1.8,0,0,1,1.3-2h0a2.2,2.2,0,0,1-2-1.5c-.3-1.3.6-2.6,2.3-3.1a5,5,0,0,1,2.1-.1h.5c.5-.1.7-.5,1.1-.6a.6.6,0,0,1,.8.4A.7.7,0,0,1,124.7,16.3Zm-4.1-.1c-.9.2-1.1,1.3-.8,2.4s1.1,1.7,1.9,1.5,1.1-1.4.8-2.5S121.5,15.9,120.6,16.2Zm4.1,6.6a3.8,3.8,0,0,0-2,.2l-1.4.5A1.4,1.4,0,0,0,121,25a2.2,2.2,0,0,0,2.7,1.2l1.2-.5a2.1,2.1,0,0,0,.7-2C125.4,23.1,125,22.8,124.7,22.8Z"/><path class="cls-1" d="M130.8,20.8h0c.5-.2.8-.4.8-.7l-.9-3.6c-.2-1-.7-1.7-1.7-1.5a1.7,1.7,0,0,0-1.2,1l1.1,4.7c.2.4.5.3.9.3h0l-3.1.8v-.2c.4-.1.8-.4.7-.7L126.3,16a.2.2,0,0,0-.2-.2l-.8-.2h0l2-1.4h.1l.4,1.6h0a3,3,0,0,1,2-2.1c1.2-.3,2,.5,2.3,1.8l1,4.3c0,.3.6.3,1,.2v.2Z"/><path class="cls-1" d="M139.5,19.2a1.4,1.4,0,0,1-1.7-1.2h0a2.5,2.5,0,0,1-1.9,1.8,1.4,1.4,0,0,1-1.6-1.2,2,2,0,0,1,.9-1.7l2.1-1.8-.2-1.3a1.2,1.2,0,0,0-1.3-.7,1,1,0,0,0-.9.9l.2.9c0,.3-.4.6-.8.7a.9.9,0,0,1-.8-.5c-.1-.6.3-.9.7-1.2a8.6,8.6,0,0,1,2.6-1.7,1.7,1.7,0,0,1,1.6.6c.1.1.1.5.2.8s.3,2,.5,3.4.6,1,1,.9.6-.3.6-.6h.1A1.8,1.8,0,0,1,139.5,19.2Zm-2.2-3.9c-.5.6-1.8,1.4-1.7,2.5a.9.9,0,0,0,1.1.7,1.2,1.2,0,0,0,1-.5.3.3,0,0,0,0-.4Z"/><path class="cls-1" d="M144.9,12.8c-.8.1-.8-.5-1.2-.4s-.8.7-1,1.3l.6,4.3c.2.3.9.2,1.3.2v.2l-3.7.5v-.2c.4-.1.8-.3.8-.6l-.7-4.9c0-.1,0-.2-.2-.3l-.7-.2h0l2.1-1.3h.1l.3,2.1h0c.1-.5.5-2.2,1.8-2.3a.8.8,0,0,1,1,.7C145.6,12.4,145.3,12.8,144.9,12.8Z"/><path class="cls-1" d="M148.8,18a5.1,5.1,0,0,1-2.5-.3l-.2-2.1h.1c.5.9,1.3,2.3,2.5,2.2a1.4,1.4,0,0,0,1.4-1.7,1.1,1.1,0,0,0-1.2-1l-1.5-.3a2,2,0,0,1-1.5-1.8,2.3,2.3,0,0,1,2.4-2.3,5,5,0,0,1,2.2.2l.4,1.9h-.2c-.6-1.1-1.4-2.1-2.4-2a1.2,1.2,0,0,0-1.2,1.4c.1.7.6.9,1.2,1l1.4.2a2.1,2.1,0,0,1,1.8,1.9C151.7,17,150.3,17.9,148.8,18Z"/></svg>
