<svg id="Layer_1" data-name="Layer 1" xmlns="http://www.w3.org/2000/svg" width="55" height="1080" viewBox="0 0 55 1080"><title>texi_left</title><path d="M2.1,1067.4v-5.3l34.8,7.4v-20l4.7,1v25.3Z"/><path d="M2.1,1025.4v-6.1l39.5-5.9v5.9l-11.9,1.5v15.6l11.9,6.7v5.5Zm23.3-3.8L8,1023.8l17.4,10.1Z"/><path d="M2.1,994.4l24.4,5.1a13,13,0,0,0,7.1,0c2.9-1,4.3-3.4,4.3-7.2s-1.5-7.9-4.6-10.2a17,17,0,0,0-6.8-2.8L2.1,974.1v-5.4l22.2,4.7c4.8,1.1,8.5,2.5,11.2,4.4,4.7,3.4,7.1,8.4,7.1,15.1s-2.4,10.7-7.1,12c-2.7.8-6.4.6-11.2-.4L2.1,999.8Z"/><path d="M2.1,959.8V941.5a15.5,15.5,0,0,1,1.3-7.1q2.5-5.1,9.3-3.6a12.5,12.5,0,0,1,5.8,2.7,14.1,14.1,0,0,1,3.7,4.9,6.2,6.2,0,0,1,2.4-3,8.7,8.7,0,0,1,5-.2l5.3.9a11.3,11.3,0,0,0,3.4.3,2.4,2.4,0,0,0,2.4-1.2l.9.2V942H40.2l-3.1-.4-6.6-1.1c-2.5-.4-4.3.2-5.1,1.8a10.7,10.7,0,0,0-.8,4.7v12.2l17,3.5v5.4Zm18.1-13.9a11.6,11.6,0,0,0-1.5-6.2c-1-1.7-2.8-2.8-5.4-3.4s-4.8,0-5.8,1.9a9.5,9.5,0,0,0-.8,4.2v13l13.5,2.9Z"/><path d="M2.1,909.3v-6.1l39.5-5.9v5.8l-11.9,1.5v15.6L41.6,927v5.5Zm23.3-3.9L8,907.7l17.4,10.1Z"/><path d="M2.1,871.1V852.9a16,16,0,0,1,1.3-7.2q2.5-5,9.3-3.6a12.5,12.5,0,0,1,5.8,2.7,14.1,14.1,0,0,1,3.7,4.9,6.2,6.2,0,0,1,2.4-3,8.7,8.7,0,0,1,5-.2l5.3.9a17.7,17.7,0,0,0,3.4.4,2.7,2.7,0,0,0,2.4-1.3l.9.2v6.6H40.2l-3.1-.4-6.6-1c-2.5-.4-4.3.1-5.1,1.7a10.7,10.7,0,0,0-.8,4.7v12.2l17,3.6v5.3Zm18.1-13.8a12.2,12.2,0,0,0-1.5-6.3c-1-1.7-2.8-2.8-5.4-3.4s-4.8.1-5.8,1.9a9.5,9.5,0,0,0-.8,4.2v13.1l13.5,2.8Z"/><path d="M2.1,820.6v-6.1l39.5-5.9v5.9L29.7,816v15.6l11.9,6.7v5.5Zm23.3-3.8L8,819l17.4,10.1Z"/><path d="M3.2,768.9c2.1-3.4,5.7-5.1,10.9-4.9v5.3q-4.3.2-6.3,2.7c-1.4,1.7-2,4.1-2,7.2a15,15,0,0,0,4.1,10.1c2.7,3.1,6.8,5.2,12.2,6.4s8.5.8,11.5-.7,4.4-4.5,4.4-9.1a15.1,15.1,0,0,0-3.1-9.5c-2.1-2.8-5.4-4.7-10-5.7V783l-4.5-.9V764.7l21.2,4.5v3.5l-5.1.2a26,26,0,0,1,4.1,5.7,20.6,20.6,0,0,1,2,9.3q0,7.1-4.5,11.1c-3.8,2.9-9,3.6-15.7,2.2a28,28,0,0,1-15.7-8.7,20.8,20.8,0,0,1-5.6-14.4A18.2,18.2,0,0,1,3.2,768.9Z"/><path d="M2.1,752.6v-6.3l32-13.2-32-6.8v-5l39.5,8.3v6l-32,13.5,32,6.8V761Z"/><path d="M2.1,701.4v-6.1l39.5-5.9v5.9l-11.9,1.5v15.6l11.9,6.7v5.5Zm23.3-3.8L8,699.9l17.4,10Z"/><path d="M2.1,675.5V657.3a16.3,16.3,0,0,1,1.3-7.2q2.5-5,9.3-3.6a12.5,12.5,0,0,1,5.8,2.7,14.1,14.1,0,0,1,3.7,4.9,6.2,6.2,0,0,1,2.4-3,8.7,8.7,0,0,1,5-.2l5.3.9a17.7,17.7,0,0,0,3.4.4,2.8,2.8,0,0,0,2.4-1.2h.9v6.6l-1.4.2-3.1-.4-6.6-1.1c-2.5-.4-4.3.2-5.1,1.8a9.9,9.9,0,0,0-.8,4.6V675l17,3.6v5.3Zm18.1-13.8a12.2,12.2,0,0,0-1.5-6.3q-1.5-2.5-5.4-3.3c-2.8-.6-4.8,0-5.8,1.8a9.5,9.5,0,0,0-.8,4.2v13.1L20.2,674Z"/><path d="M28.8,638.7a9.5,9.5,0,0,0,5.5-.5c2.6-1.2,3.9-4,3.9-8.5a17.9,17.9,0,0,0-.9-5.7c-1.1-3.4-3.1-5.4-5.9-6s-3.7-.1-4.6,1a16,16,0,0,0-2.3,5.9L23.2,630c-.7,3.3-1.6,5.6-2.6,6.9s-4.1,2.8-7.3,2.1a14.5,14.5,0,0,1-8.8-5.5,17.5,17.5,0,0,1-3.4-11.1q0-6.3,3-9.9c2-2.5,5.2-3.3,9.6-2.3v5a8,8,0,0,0-4.9.7c-2,1.2-3.1,3.7-3.1,7.6s.7,5.6,2,7.2a8.1,8.1,0,0,0,4.6,3.1c2,.4,3.4-.1,4.3-1.5a27.6,27.6,0,0,0,2.1-6.7l1.3-5.3a13.2,13.2,0,0,1,2.5-5.7c1.8-2.1,4.5-2.8,8-2a13.1,13.1,0,0,1,9.4,6.7A24.6,24.6,0,0,1,42.7,631c0,4.9-1.2,8.5-3.7,10.7s-5.9,2.9-10.2,2Z"/><path d="M2.1,584.5v-5.4l34.8,7.4V566.6l4.7.9v25.4Z"/><path d="M2.1,542.4v-6l39.5-5.9v5.8l-11.9,1.5v15.6l11.9,6.8v5.5Zm23.3-3.8L8,540.9,25.4,551Z"/><path d="M2.1,511.4l24.4,5.2a12.9,12.9,0,0,0,7.1-.1c2.9-1,4.3-3.3,4.3-7.1s-1.5-8-4.6-10.3a18.6,18.6,0,0,0-6.8-2.7L2.1,491.2v-5.4l22.2,4.7a31.9,31.9,0,0,1,11.2,4.3c4.7,3.4,7.1,8.5,7.1,15.1s-2.4,10.7-7.1,12.1c-2.7.7-6.4.6-11.2-.4L2.1,516.8Z"/><path d="M2.1,476.9V458.6a16.3,16.3,0,0,1,1.3-7.2q2.5-4.9,9.3-3.6a13.6,13.6,0,0,1,5.8,2.7,15.1,15.1,0,0,1,3.7,4.9,5.5,5.5,0,0,1,2.4-2.9c1.1-.6,2.7-.7,5-.3l5.3,1,3.4.3a2.8,2.8,0,0,0,2.4-1.2l.9.2V459l-1.4.2-3.1-.4-6.6-1.1c-2.5-.4-4.3.2-5.1,1.8a10.4,10.4,0,0,0-.8,4.7v12.1l17,3.6v5.3ZM20.2,463a12.2,12.2,0,0,0-1.5-6.3,7.8,7.8,0,0,0-5.4-3.3c-2.8-.6-4.8,0-5.8,1.8a9.7,9.7,0,0,0-.8,4.3v13l13.5,2.8Z"/><path d="M2.1,426.3v-6l39.5-6v5.9l-11.9,1.5v15.6l11.9,6.8v5.4Zm23.3-3.8L8,424.8l17.4,10.1Z"/><path d="M2.1,388.2V369.9a15.5,15.5,0,0,1,1.3-7.1q2.5-5.1,9.3-3.6a12.5,12.5,0,0,1,5.8,2.7,14.7,14.7,0,0,1,3.7,4.8,5.5,5.5,0,0,1,2.4-2.9c1.1-.6,2.7-.6,5-.3l5.3,1a11.3,11.3,0,0,0,3.4.3,2.4,2.4,0,0,0,2.4-1.2l.9.2v6.5a3,3,0,0,1-1.4.2l-3.1-.4L30.5,369c-2.5-.4-4.3.2-5.1,1.8a10.4,10.4,0,0,0-.8,4.7v12.1l17,3.6v5.4Zm18.1-13.9a12.2,12.2,0,0,0-1.5-6.3q-1.5-2.4-5.4-3.3c-2.8-.6-4.8,0-5.8,1.9a8.9,8.9,0,0,0-.8,4.2v13l13.5,2.9Z"/><path d="M2.1,337.6v-6l39.5-5.9v5.8L29.7,333v15.6l11.9,6.8v5.5Zm23.3-3.8L8,336.1l17.4,10.1Z"/><path d="M3.2,286c2.1-3.5,5.7-5.1,10.9-4.9v5.3q-4.3,0-6.3,2.7c-1.4,1.7-2,4.1-2,7.2a15.2,15.2,0,0,0,4.1,10.1c2.7,3.1,6.8,5.2,12.2,6.3s8.5.8,11.5-.6,4.4-4.5,4.4-9.2a15.5,15.5,0,0,0-3.1-9.5c-2.1-2.7-5.4-4.6-10-5.7v12.4l-4.5-1V281.8l21.2,4.5v3.4l-5.1.2a31.8,31.8,0,0,1,4.1,5.7,21.3,21.3,0,0,1,2,9.4q0,7-4.5,11.1c-3.8,2.9-9,3.6-15.7,2.2S10.6,314,6.7,309.5a20.4,20.4,0,0,1-5.6-14.4A17.8,17.8,0,0,1,3.2,286Z"/><path d="M2.1,269.6v-6.3l32-13.1-32-6.8v-5.1l39.5,8.4v6l-32,13.4,32,6.8V278Z"/><path d="M2.1,218.5v-6.1l39.5-5.9v5.8l-11.9,1.5v15.6l11.9,6.8v5.5Zm23.3-3.9L8,216.9,25.4,227Z"/><path d="M2.1,192.6V174.3a15.5,15.5,0,0,1,1.3-7.1q2.5-5.1,9.3-3.6a12.5,12.5,0,0,1,5.8,2.7,14.1,14.1,0,0,1,3.7,4.9,5.7,5.7,0,0,1,2.4-3c1.1-.6,2.7-.6,5-.2l5.3.9a11.3,11.3,0,0,0,3.4.3,2.4,2.4,0,0,0,2.4-1.2l.9.2v6.6H40.2l-3.1-.4-6.6-1.1c-2.5-.4-4.3.2-5.1,1.8a10.4,10.4,0,0,0-.8,4.7v12.2l17,3.5V201Zm18.1-13.9a11.6,11.6,0,0,0-1.5-6.2c-1-1.7-2.8-2.8-5.4-3.4s-4.8,0-5.8,1.9a9.5,9.5,0,0,0-.8,4.2v13l13.5,2.9Z"/><path d="M28.8,155.7a9.6,9.6,0,0,0,5.5-.4c2.6-1.2,3.9-4.1,3.9-8.6a17.3,17.3,0,0,0-.9-5.6c-1.1-3.4-3.1-5.5-5.9-6.1s-3.7-.1-4.6,1.1a14.6,14.6,0,0,0-2.3,5.9l-1.3,5.1c-.7,3.3-1.6,5.6-2.6,6.8s-4.1,2.9-7.3,2.2a15,15,0,0,1-8.8-5.5,17.8,17.8,0,0,1-3.4-11.2q0-6.2,3-9.9c2-2.4,5.2-3.2,9.6-2.3v5a9.8,9.8,0,0,0-4.9.7c-2,1.2-3.1,3.8-3.1,7.7a11.6,11.6,0,0,0,2,7.2,7.9,7.9,0,0,0,4.6,3c2,.4,3.4-.1,4.3-1.5s1.3-3.1,2.1-6.7l1.3-5.3a12.7,12.7,0,0,1,2.5-5.6c1.8-2.1,4.5-2.8,8-2.1s7.5,3.2,9.4,6.8a24.6,24.6,0,0,1,2.8,11.7c0,4.9-1.2,8.5-3.7,10.7s-5.9,2.9-10.2,1.9Z"/><path d="M2.1,101.5V96.2l34.8,7.4v-20l4.7,1v25.3Z"/><path d="M2.1,59.5v-6l39.5-6v5.9L29.7,54.9V70.5l11.9,6.7v5.5Zm23.3-3.8L8,58,25.4,68Z"/><path d="M2.1,28.5l24.4,5.2a13.9,13.9,0,0,0,7.1-.1c2.9-1,4.3-3.4,4.3-7.2s-1.5-7.9-4.6-10.2a18.6,18.6,0,0,0-6.8-2.8L2.1,8.3V2.8L24.3,7.6c4.8,1,8.5,2.4,11.2,4.3,4.7,3.4,7.1,8.4,7.1,15.1s-2.4,10.7-7.1,12c-2.7.8-6.4.6-11.2-.4L2.1,33.9Z"/></svg>
