<svg id="Layer_1" data-name="Layer 1" xmlns="http://www.w3.org/2000/svg" width="55" height="2500" viewBox="0 0 55 2500"><title>texi_left_lengri</title><path d="M2.1,2487.4v-5.3l34.8,7.4v-20l4.7,1v25.3Z"/><path d="M2.1,2445.4v-6.1l39.5-5.9v5.9l-11.9,1.5v15.6l11.9,6.7v5.5Zm23.3-3.8L8,2443.8l17.4,10.1Z"/><path d="M2.1,2414.4l24.4,5.1a13,13,0,0,0,7.1,0c2.9-1,4.3-3.4,4.3-7.2s-1.5-7.9-4.6-10.2a17,17,0,0,0-6.8-2.8l-24.4-5.2v-5.4l22.2,4.7c4.8,1.1,8.5,2.5,11.2,4.4,4.7,3.4,7.1,8.4,7.1,15.1s-2.4,10.7-7.1,12c-2.7.8-6.4.6-11.2-.4l-22.2-4.7Z"/><path d="M2.1,2379.8v-18.3a15.5,15.5,0,0,1,1.3-7.1q2.5-5.1,9.3-3.6a12.5,12.5,0,0,1,5.8,2.7,14.1,14.1,0,0,1,3.7,4.9,6.2,6.2,0,0,1,2.4-3,8.7,8.7,0,0,1,5-.2l5.3.9a11.3,11.3,0,0,0,3.4.3,2.4,2.4,0,0,0,2.4-1.2l.9.2v6.6H40.2l-3.1-.4-6.6-1.1c-2.5-.4-4.3.2-5.1,1.8a10.7,10.7,0,0,0-.8,4.7v12.2l17,3.5v5.4Zm18.1-13.9a11.6,11.6,0,0,0-1.5-6.2c-1-1.7-2.8-2.8-5.4-3.4s-4.8,0-5.8,1.9a9.5,9.5,0,0,0-.8,4.2v13l13.5,2.9Z"/><path d="M2.1,2329.3v-6.1l39.5-5.9v5.8l-11.9,1.5v15.6l11.9,6.8v5.5Zm23.3-3.9L8,2327.7l17.4,10.1Z"/><path d="M2.1,2291.1v-18.2a16,16,0,0,1,1.3-7.2q2.5-4.9,9.3-3.6a12.5,12.5,0,0,1,5.8,2.7,14.1,14.1,0,0,1,3.7,4.9,6.2,6.2,0,0,1,2.4-3,8.7,8.7,0,0,1,5-.2l5.3.9a17.7,17.7,0,0,0,3.4.4,2.7,2.7,0,0,0,2.4-1.3l.9.2v6.6H40.2l-3.1-.4-6.6-1c-2.5-.4-4.3.1-5.1,1.7a10.7,10.7,0,0,0-.8,4.7v12.2l17,3.6v5.3Zm18.1-13.8a12.2,12.2,0,0,0-1.5-6.3c-1-1.7-2.8-2.8-5.4-3.4s-4.8.1-5.8,1.9a9.5,9.5,0,0,0-.8,4.2v13.1l13.5,2.8Z"/><path d="M2.1,2240.6v-6.1l39.5-5.9v5.9L29.7,2236v15.6l11.9,6.7v5.5Zm23.3-3.8L8,2239l17.4,10.1Z"/><path d="M3.2,2188.9c2.1-3.4,5.7-5.1,10.9-4.9v5.3q-4.3.1-6.3,2.7c-1.4,1.7-2,4.1-2,7.2a15,15,0,0,0,4.1,10.1c2.7,3.1,6.8,5.2,12.2,6.4s8.5.8,11.5-.7,4.4-4.5,4.4-9.1a15.1,15.1,0,0,0-3.1-9.5c-2.1-2.8-5.4-4.7-10-5.7V2203l-4.5-.9v-17.4l21.2,4.5v3.5l-5.1.2a26,26,0,0,1,4.1,5.7,20.6,20.6,0,0,1,2,9.3q0,7-4.5,11.1c-3.8,2.9-9,3.6-15.7,2.2a28,28,0,0,1-15.7-8.7,20.8,20.8,0,0,1-5.6-14.4A18.2,18.2,0,0,1,3.2,2188.9Z"/><path d="M2.1,2172.6v-6.3l32-13.2-32-6.8v-5l39.5,8.3v6l-32,13.5,32,6.8v5.1Z"/><path d="M2.1,2121.4v-6.1l39.5-5.9v5.9l-11.9,1.5v15.6l11.9,6.7v5.5Zm23.3-3.8L8,2119.9l17.4,10Z"/><path d="M2.1,2095.5v-18.2a16.3,16.3,0,0,1,1.3-7.2q2.5-4.9,9.3-3.6a12.5,12.5,0,0,1,5.8,2.7,14.1,14.1,0,0,1,3.7,4.9,6.2,6.2,0,0,1,2.4-3,8.7,8.7,0,0,1,5-.2l5.3.9a17.7,17.7,0,0,0,3.4.4,2.8,2.8,0,0,0,2.4-1.2h.9v6.6l-1.4.2-3.1-.4-6.6-1.1c-2.5-.4-4.3.2-5.1,1.8a9.9,9.9,0,0,0-.8,4.6V2095l17,3.6v5.3Zm18.1-13.8a12.2,12.2,0,0,0-1.5-6.3q-1.5-2.6-5.4-3.3c-2.8-.6-4.8,0-5.8,1.8a9.5,9.5,0,0,0-.8,4.2v13.1l13.5,2.8Z"/><path d="M28.8,2058.7a9.5,9.5,0,0,0,5.5-.5c2.6-1.2,3.9-4,3.9-8.5a17.9,17.9,0,0,0-.9-5.7c-1.1-3.4-3.1-5.4-5.9-6s-3.7-.1-4.6,1a16,16,0,0,0-2.3,5.9l-1.3,5.1c-.7,3.3-1.6,5.6-2.6,6.9s-4.1,2.8-7.3,2.1a14.5,14.5,0,0,1-8.8-5.5,17.5,17.5,0,0,1-3.4-11.1q0-6.3,3-9.9c2-2.5,5.2-3.3,9.6-2.3v5a8,8,0,0,0-4.9.7c-2,1.2-3.1,3.7-3.1,7.6s.7,5.6,2,7.2a8.1,8.1,0,0,0,4.6,3.1c2,.4,3.4-.1,4.3-1.5a27.6,27.6,0,0,0,2.1-6.7l1.3-5.3a13.2,13.2,0,0,1,2.5-5.7c1.8-2.1,4.5-2.8,8-2a13.1,13.1,0,0,1,9.4,6.7,24.6,24.6,0,0,1,2.8,11.7c0,4.9-1.2,8.5-3.7,10.7s-5.9,2.9-10.2,2Z"/><path d="M2.1,2004.5v-5.4l34.8,7.4v-19.9l4.7.9v25.4Z"/><path d="M2.1,1962.4v-6l39.5-5.9v5.8l-11.9,1.5v15.6l11.9,6.8v5.5Zm23.3-3.8L8,1960.9,25.4,1971Z"/><path d="M2.1,1931.4l24.4,5.2a12.9,12.9,0,0,0,7.1-.1c2.9-1,4.3-3.3,4.3-7.1s-1.5-8-4.6-10.3a18.6,18.6,0,0,0-6.8-2.7l-24.4-5.2v-5.4l22.2,4.7a31.9,31.9,0,0,1,11.2,4.3c4.7,3.4,7.1,8.5,7.1,15.1s-2.4,10.7-7.1,12.1c-2.7.7-6.4.6-11.2-.4l-22.2-4.8Z"/><path d="M2.1,1896.9v-18.3a16.3,16.3,0,0,1,1.3-7.2q2.5-5,9.3-3.6a13.6,13.6,0,0,1,5.8,2.7,15.1,15.1,0,0,1,3.7,4.9,5.5,5.5,0,0,1,2.4-2.9c1.1-.6,2.7-.7,5-.3l5.3,1,3.4.3a2.8,2.8,0,0,0,2.4-1.2l.9.2v6.5l-1.4.2-3.1-.4-6.6-1.1c-2.5-.4-4.3.2-5.1,1.8a10.4,10.4,0,0,0-.8,4.7v12.1l17,3.6v5.3ZM20.2,1883a12.2,12.2,0,0,0-1.5-6.3,7.8,7.8,0,0,0-5.4-3.3c-2.8-.6-4.8,0-5.8,1.8a9.7,9.7,0,0,0-.8,4.3v13l13.5,2.8Z"/><path d="M2.1,1846.3v-6l39.5-6v5.9l-11.9,1.5v15.6l11.9,6.8v5.4Zm23.3-3.8L8,1844.8l17.4,10.1Z"/><path d="M2.1,1808.2v-18.3a15.5,15.5,0,0,1,1.3-7.1q2.5-5.1,9.3-3.6a12.5,12.5,0,0,1,5.8,2.7,14.7,14.7,0,0,1,3.7,4.8,5.5,5.5,0,0,1,2.4-2.9c1.1-.6,2.7-.6,5-.3l5.3,1a11.3,11.3,0,0,0,3.4.3,2.4,2.4,0,0,0,2.4-1.2l.9.2v6.5a3,3,0,0,1-1.4.2l-3.1-.4-6.6-1.1c-2.5-.4-4.3.2-5.1,1.8a10.4,10.4,0,0,0-.8,4.7v12.1l17,3.6v5.4Zm18.1-13.9a12.2,12.2,0,0,0-1.5-6.3q-1.5-2.4-5.4-3.3c-2.8-.6-4.8,0-5.8,1.9a8.9,8.9,0,0,0-.8,4.2v13l13.5,2.9Z"/><path d="M2.1,1757.6v-6l39.5-5.9v5.8L29.7,1753v15.6l11.9,6.8v5.5Zm23.3-3.8L8,1756.1l17.4,10.1Z"/><path d="M3.2,1706c2.1-3.5,5.7-5.1,10.9-4.9v5.3q-4.3,0-6.3,2.7c-1.4,1.7-2,4.1-2,7.2a15.2,15.2,0,0,0,4.1,10.1c2.7,3.1,6.8,5.2,12.2,6.3s8.5.8,11.5-.6,4.4-4.5,4.4-9.2a15.5,15.5,0,0,0-3.1-9.5c-2.1-2.7-5.4-4.6-10-5.7v12.4l-4.5-1v-17.3l21.2,4.5v3.4l-5.1.2a31.8,31.8,0,0,1,4.1,5.7,21.3,21.3,0,0,1,2,9.4q0,7.1-4.5,11.1c-3.8,2.9-9,3.6-15.7,2.2s-11.8-4.3-15.7-8.8a20.4,20.4,0,0,1-5.6-14.4A17.8,17.8,0,0,1,3.2,1706Z"/><path d="M2.1,1689.6v-6.3l32-13.1-32-6.8v-5.1l39.5,8.4v6l-32,13.4,32,6.8v5.1Z"/><path d="M2.1,1638.4v-6l39.5-5.9v5.8l-11.9,1.5v15.6l11.9,6.8v5.5Zm23.3-3.8L8,1636.9,25.4,1647Z"/><path d="M2.1,1612.6v-18.3a15.5,15.5,0,0,1,1.3-7.1q2.5-5.1,9.3-3.6a12.5,12.5,0,0,1,5.8,2.7,14.1,14.1,0,0,1,3.7,4.9,5.7,5.7,0,0,1,2.4-3c1.1-.6,2.7-.6,5-.2l5.3.9a11.3,11.3,0,0,0,3.4.3,2.4,2.4,0,0,0,2.4-1.2l.9.2v6.6H40.2l-3.1-.4-6.6-1.1c-2.5-.4-4.3.2-5.1,1.8a10.4,10.4,0,0,0-.8,4.7v12.2l17,3.5v5.4Zm18.1-13.9a11.6,11.6,0,0,0-1.5-6.2c-1-1.7-2.8-2.8-5.4-3.4s-4.8,0-5.8,1.9a9.5,9.5,0,0,0-.8,4.2v13l13.5,2.9Z"/><path d="M28.8,1575.7a9.6,9.6,0,0,0,5.5-.4c2.6-1.2,3.9-4.1,3.9-8.6a17.3,17.3,0,0,0-.9-5.6c-1.1-3.4-3.1-5.5-5.9-6.1s-3.7-.1-4.6,1.1a14.6,14.6,0,0,0-2.3,5.9l-1.3,5.1c-.7,3.3-1.6,5.6-2.6,6.8s-4.1,2.9-7.3,2.2a15,15,0,0,1-8.8-5.5,17.8,17.8,0,0,1-3.4-11.2q0-6.2,3-9.9c2-2.4,5.2-3.2,9.6-2.3v5a9.8,9.8,0,0,0-4.9.7c-2,1.2-3.1,3.8-3.1,7.7a11.6,11.6,0,0,0,2,7.2,7.9,7.9,0,0,0,4.6,3c2,.4,3.4-.1,4.3-1.5s1.3-3.1,2.1-6.7l1.3-5.3a12.7,12.7,0,0,1,2.5-5.6c1.8-2.1,4.5-2.8,8-2.1s7.5,3.2,9.4,6.8a24.6,24.6,0,0,1,2.8,11.7c0,4.9-1.2,8.5-3.7,10.7s-5.9,2.9-10.2,1.9Z"/><path d="M2.1,1521.5v-5.3l34.8,7.4v-20l4.7,1v25.3Z"/><path d="M2.1,1479.5v-6.1l39.5-5.9v5.9l-11.9,1.5v15.6l11.9,6.7v5.5Zm23.3-3.8L8,1478l17.4,10Z"/><path d="M2.1,1448.5l24.4,5.2a13.9,13.9,0,0,0,7.1-.1c2.9-1,4.3-3.4,4.3-7.2s-1.5-7.9-4.6-10.2a18.6,18.6,0,0,0-6.8-2.8l-24.4-5.1v-5.5l22.2,4.8c4.8,1,8.5,2.4,11.2,4.3,4.7,3.4,7.1,8.4,7.1,15.1s-2.4,10.7-7.1,12c-2.7.8-6.4.6-11.2-.4l-22.2-4.7Z"/><path d="M2.1,1413.9v-18.3a15.8,15.8,0,0,1,1.3-7.1q2.5-4.9,9.3-3.6a12.5,12.5,0,0,1,5.8,2.7,14.1,14.1,0,0,1,3.7,4.9,6.2,6.2,0,0,1,2.4-3,8.7,8.7,0,0,1,5-.2l5.3.9a11.3,11.3,0,0,0,3.4.3,2.4,2.4,0,0,0,2.4-1.2l.9.2v6.6H40.2l-3.1-.4-6.6-1c-2.5-.4-4.3.1-5.1,1.7a10.7,10.7,0,0,0-.8,4.7v12.2l17,3.5v5.4Zm18.1-13.8a12,12,0,0,0-1.5-6.3c-1-1.7-2.8-2.8-5.4-3.4s-4.8.1-5.8,1.9a9.5,9.5,0,0,0-.8,4.2v13.1l13.5,2.8Z"/><path d="M2.1,1363.4v-6.1l39.5-5.9v5.8l-11.9,1.6v15.6l11.9,6.7v5.5Zm23.3-3.8L8,1361.8l17.4,10.1Z"/><path d="M2.1,1325.2V1307a16.3,16.3,0,0,1,1.3-7.2q2.5-5,9.3-3.6a12.5,12.5,0,0,1,5.8,2.7,15.1,15.1,0,0,1,3.7,4.9,6.2,6.2,0,0,1,2.4-3,8.7,8.7,0,0,1,5-.2l5.3.9a17.7,17.7,0,0,0,3.4.4,2.8,2.8,0,0,0,2.4-1.2h.9v6.6l-1.4.2-3.1-.4-6.6-1.1c-2.5-.4-4.3.2-5.1,1.8a9.9,9.9,0,0,0-.8,4.6v12.2l17,3.6v5.3Zm18.1-13.8a12.2,12.2,0,0,0-1.5-6.3q-1.5-2.5-5.4-3.3c-2.8-.6-4.8,0-5.8,1.8a9.5,9.5,0,0,0-.8,4.2v13.1l13.5,2.8Z"/><path d="M2.1,1274.7v-6.1l39.5-5.9v5.9l-11.9,1.5v15.6l11.9,6.7v5.5Zm23.3-3.8L8,1273.2l17.4,10Z"/><path d="M3.2,1223c2.1-3.4,5.7-5.1,10.9-4.8v5.3c-2.9,0-5,.9-6.3,2.6s-2,4.2-2,7.2a14.8,14.8,0,0,0,4.1,10.1c2.7,3.1,6.8,5.2,12.2,6.4s8.5.8,11.5-.7,4.4-4.4,4.4-9.1a15.2,15.2,0,0,0-3.1-9.5c-2.1-2.8-5.4-4.7-10-5.7v12.3l-4.5-.9v-17.3l21.2,4.4v3.5l-5.1.2a26,26,0,0,1,4.1,5.7,20.7,20.7,0,0,1,2,9.4,14.5,14.5,0,0,1-4.5,11.1c-3.8,2.8-9,3.5-15.7,2.1a28,28,0,0,1-15.7-8.7,20.8,20.8,0,0,1-5.6-14.4A18.2,18.2,0,0,1,3.2,1223Z"/><path d="M2.1,1206.7v-6.3l32-13.1-32-6.8v-5.1l39.5,8.4v5.9l-32,13.5,32,6.8v5.1Z"/><path d="M2.1,1155.5v-6l39.5-6v5.9l-11.9,1.5v15.6l11.9,6.8v5.4Zm23.3-3.8L8,1154l17.4,10Z"/><path d="M2.1,1129.6v-18.2a16.3,16.3,0,0,1,1.3-7.2q2.5-5,9.3-3.6a12.5,12.5,0,0,1,5.8,2.7,15.1,15.1,0,0,1,3.7,4.9,5.5,5.5,0,0,1,2.4-2.9c1.1-.6,2.7-.7,5-.3l5.3,1,3.4.3a2.8,2.8,0,0,0,2.4-1.2l.9.2v6.5l-1.4.2-3.1-.4-6.6-1.1c-2.5-.4-4.3.2-5.1,1.8a10.2,10.2,0,0,0-.8,4.6v12.2l17,3.6v5.3Zm18.1-13.8a12.2,12.2,0,0,0-1.5-6.3q-1.5-2.6-5.4-3.3c-2.8-.6-4.8,0-5.8,1.8a9.5,9.5,0,0,0-.8,4.2v13.1l13.5,2.8Z"/><path d="M28.8,1092.8a9.5,9.5,0,0,0,5.5-.5c2.6-1.2,3.9-4,3.9-8.5a17.9,17.9,0,0,0-.9-5.7c-1.1-3.4-3.1-5.4-5.9-6s-3.7-.1-4.6,1a16,16,0,0,0-2.3,5.9l-1.3,5.1c-.7,3.3-1.6,5.6-2.6,6.9s-4.1,2.8-7.3,2.1a14.1,14.1,0,0,1-8.8-5.5c-2.3-2.9-3.4-6.6-3.4-11.1s1-7.5,3-9.9,5.2-3.3,9.6-2.3v5a8,8,0,0,0-4.9.7c-2,1.2-3.1,3.7-3.1,7.6s.7,5.6,2,7.2a8.1,8.1,0,0,0,4.6,3.1c2,.4,3.4-.1,4.3-1.5s1.3-3.2,2.1-6.7l1.3-5.3a12.7,12.7,0,0,1,2.5-5.6c1.8-2.2,4.5-2.9,8-2.1a13,13,0,0,1,9.4,6.8,24,24,0,0,1,2.8,11.6c0,5-1.2,8.5-3.7,10.8s-5.9,2.8-10.2,1.9Z"/><path d="M2.1,1038.6v-5.3l34.8,7.3v-19.9l4.7,1V1047Z"/><path d="M2.1,996.6v-6.1l39.5-5.9v5.8l-11.9,1.5v15.6l11.9,6.8v5.5Zm23.3-3.9L8,995l17.4,10.1Z"/><path d="M2.1,965.5l24.4,5.2a12.9,12.9,0,0,0,7.1-.1c2.9-.9,4.3-3.3,4.3-7.1s-1.5-7.9-4.6-10.2a17,17,0,0,0-6.8-2.8L2.1,945.3v-5.4l22.2,4.7a31.9,31.9,0,0,1,11.2,4.3c4.7,3.5,7.1,8.5,7.1,15.2s-2.4,10.6-7.1,12c-2.7.7-6.4.6-11.2-.4L2.1,971Z"/><path d="M2.1,931V912.7a15.5,15.5,0,0,1,1.3-7.1q2.5-5.1,9.3-3.6a12.5,12.5,0,0,1,5.8,2.7,14.7,14.7,0,0,1,3.7,4.8,5.5,5.5,0,0,1,2.4-2.9c1.1-.6,2.7-.7,5-.3l5.3,1a11.3,11.3,0,0,0,3.4.3,2.6,2.6,0,0,0,2.4-1.2l.9.2v6.5l-1.4.2-3.1-.4-6.6-1.1c-2.5-.4-4.3.2-5.1,1.8a10.4,10.4,0,0,0-.8,4.7v12.1l17,3.6v5.3Zm18.1-13.9a12.2,12.2,0,0,0-1.5-6.3q-1.5-2.4-5.4-3.3c-2.8-.6-4.8,0-5.8,1.8a9.7,9.7,0,0,0-.8,4.3v13l13.5,2.9Z"/><path d="M2.1,880.4v-6l39.5-6v5.9l-11.9,1.5v15.6l11.9,6.8v5.5Zm23.3-3.8L8,878.9,25.4,889Z"/><path d="M2.1,842.3V824a15.5,15.5,0,0,1,1.3-7.1q2.5-5.1,9.3-3.6a12.5,12.5,0,0,1,5.8,2.7,14.1,14.1,0,0,1,3.7,4.9,5.7,5.7,0,0,1,2.4-3,8.7,8.7,0,0,1,5-.2l5.3.9a11.3,11.3,0,0,0,3.4.3,2.4,2.4,0,0,0,2.4-1.2l.9.2v6.6H40.2l-3.1-.4-6.6-1.1c-2.5-.4-4.3.2-5.1,1.8a10.4,10.4,0,0,0-.8,4.7v12.2l17,3.5v5.4Zm18.1-13.9a11.6,11.6,0,0,0-1.5-6.2c-1-1.7-2.8-2.8-5.4-3.4s-4.8,0-5.8,1.9a9.5,9.5,0,0,0-.8,4.2v13l13.5,2.9Z"/><path d="M2.1,791.8v-6.1l39.5-5.9v5.8l-11.9,1.5v15.6l11.9,6.8V815Zm23.3-3.9L8,790.2l17.4,10.1Z"/><path d="M3.2,740.1c2.1-3.5,5.7-5.1,10.9-4.9v5.3q-4.3,0-6.3,2.7c-1.4,1.7-2,4.1-2,7.2a15.2,15.2,0,0,0,4.1,10.1c2.7,3.1,6.8,5.2,12.2,6.4s8.5.7,11.5-.7,4.4-4.5,4.4-9.1a15.5,15.5,0,0,0-3.1-9.6c-2.1-2.7-5.4-4.6-10-5.6v12.3l-4.5-1V735.9l21.2,4.5v3.4l-5.1.3a28.5,28.5,0,0,1,4.1,5.6,21.3,21.3,0,0,1,2,9.4q0,7-4.5,11.1c-3.8,2.9-9,3.6-15.7,2.2a28,28,0,0,1-15.7-8.7,20.8,20.8,0,0,1-5.6-14.4A18.2,18.2,0,0,1,3.2,740.1Z"/><path d="M2.1,723.8v-6.4l32-13.1-32-6.8v-5.1l39.5,8.4v6l-32,13.5,32,6.7v5.1Z"/><path d="M2.1,672.6v-6.1l39.5-5.9v5.8l-11.9,1.5v15.7l11.9,6.7v5.5Zm23.3-3.8L8,671l17.4,10.1Z"/><path d="M2.1,646.7V628.4a15.8,15.8,0,0,1,1.3-7.1q2.5-4.9,9.3-3.6a12.5,12.5,0,0,1,5.8,2.7,14.1,14.1,0,0,1,3.7,4.9,6.2,6.2,0,0,1,2.4-3,8.7,8.7,0,0,1,5-.2l5.3.9a11.3,11.3,0,0,0,3.4.3,2.4,2.4,0,0,0,2.4-1.2l.9.2v6.6H40.2l-3.1-.4-6.6-1c-2.5-.5-4.3.1-5.1,1.7a10.7,10.7,0,0,0-.8,4.7v12.2l17,3.5v5.4Zm18.1-13.9a11.9,11.9,0,0,0-1.5-6.2c-1-1.7-2.8-2.8-5.4-3.4s-4.8.1-5.8,1.9a9.5,9.5,0,0,0-.8,4.2v13.1l13.5,2.8Z"/><path d="M28.8,609.8a9.6,9.6,0,0,0,5.5-.4c2.6-1.2,3.9-4.1,3.9-8.5a17.9,17.9,0,0,0-.9-5.7c-1.1-3.4-3.1-5.4-5.9-6s-3.7-.2-4.6,1a15.3,15.3,0,0,0-2.3,5.9l-1.3,5.1c-.7,3.3-1.6,5.6-2.6,6.8s-4.1,2.9-7.3,2.2a14.5,14.5,0,0,1-8.8-5.5,17.8,17.8,0,0,1-3.4-11.2q0-6.2,3-9.9c2-2.4,5.2-3.2,9.6-2.3v5.1a8.9,8.9,0,0,0-4.9.6c-2,1.2-3.1,3.8-3.1,7.7a11.6,11.6,0,0,0,2,7.2,7.5,7.5,0,0,0,4.6,3c2,.5,3.4,0,4.3-1.5s1.3-3.1,2.1-6.7l1.3-5.2a12.6,12.6,0,0,1,2.5-5.7c1.8-2.1,4.5-2.8,8-2s7.5,3.1,9.4,6.7a24.6,24.6,0,0,1,2.8,11.7c0,4.9-1.2,8.5-3.7,10.7s-5.9,2.9-10.2,2Z"/><path d="M2.1,555.7v-5.4l34.8,7.4v-20l4.7,1V564Z"/><path d="M2.1,513.6v-6l39.5-6v5.9L29.7,509v15.6l11.9,6.8v5.4Zm23.3-3.8L8,512.1l17.4,10.1Z"/><path d="M2.1,482.6l24.4,5.2a12.9,12.9,0,0,0,7.1-.1c2.9-1,4.3-3.4,4.3-7.1s-1.5-8-4.6-10.3a18.6,18.6,0,0,0-6.8-2.7L2.1,462.4v-5.5l22.2,4.8c4.8,1,8.5,2.4,11.2,4.3,4.7,3.4,7.1,8.5,7.1,15.1s-2.4,10.7-7.1,12c-2.7.8-6.4.7-11.2-.4L2.1,488Z"/><path d="M2.1,448V429.8a16.3,16.3,0,0,1,1.3-7.2q2.5-5,9.3-3.6a12.5,12.5,0,0,1,5.8,2.7,14.1,14.1,0,0,1,3.7,4.9,6.2,6.2,0,0,1,2.4-3,8.7,8.7,0,0,1,5-.2l5.3.9a17.7,17.7,0,0,0,3.4.4,2.8,2.8,0,0,0,2.4-1.2h.9v6.6l-1.4.2-3.1-.4-6.6-1.1c-2.5-.4-4.3.2-5.1,1.8a9.9,9.9,0,0,0-.8,4.6v12.2l17,3.6v5.3Zm18.1-13.8a12.2,12.2,0,0,0-1.5-6.3q-1.5-2.5-5.4-3.3c-2.8-.6-4.8,0-5.8,1.8a9.5,9.5,0,0,0-.8,4.2v13.1l13.5,2.8Z"/><path d="M2.1,397.5v-6.1l39.5-5.9v5.9l-11.9,1.5v15.6l11.9,6.7v5.5Zm23.3-3.8L8,396l17.4,10Z"/><path d="M2.1,359.4V341.1a16.3,16.3,0,0,1,1.3-7.2q2.5-4.9,9.3-3.6a14.9,14.9,0,0,1,5.8,2.7,15.1,15.1,0,0,1,3.7,4.9,5.5,5.5,0,0,1,2.4-2.9c1.1-.6,2.7-.7,5-.3l5.3,1,3.4.3a2.8,2.8,0,0,0,2.4-1.2l.9.2v6.5l-1.4.2-3.1-.4-6.6-1.1c-2.5-.4-4.3.2-5.1,1.8a10.4,10.4,0,0,0-.8,4.7v12.1l17,3.6v5.3Zm18.1-13.9a12.2,12.2,0,0,0-1.5-6.3,7.8,7.8,0,0,0-5.4-3.3c-2.8-.6-4.8,0-5.8,1.8a9.7,9.7,0,0,0-.8,4.3v13l13.5,2.8Z"/><path d="M2.1,308.8v-6l39.5-6v5.9l-11.9,1.5v15.6l11.9,6.8V332ZM25.4,305,8,307.3l17.4,10.1Z"/><path d="M3.2,257.2c2.1-3.5,5.7-5.1,10.9-4.9v5.3c-2.9,0-5,.9-6.3,2.6s-2,4.2-2,7.3a15.2,15.2,0,0,0,4.1,10.1c2.7,3,6.8,5.2,12.2,6.3s8.5.8,11.5-.6,4.4-4.5,4.4-9.2a15.5,15.5,0,0,0-3.1-9.5c-2.1-2.8-5.4-4.7-10-5.7v12.4l-4.5-1V253l21.2,4.5v3.4l-5.1.2a31.8,31.8,0,0,1,4.1,5.7,21,21,0,0,1,2,9.4q0,7.1-4.5,11.1c-3.8,2.8-9,3.6-15.7,2.1a27.4,27.4,0,0,1-15.7-8.7,20.8,20.8,0,0,1-5.6-14.4A17.8,17.8,0,0,1,3.2,257.2Z"/><path d="M2.1,240.8v-6.3l32-13.1-32-6.8v-5.1l39.5,8.4v6l-32,13.4,32,6.8v5.1Z"/><path d="M2.1,189.6v-6l39.5-5.9v5.8L29.7,185v15.6l11.9,6.8v5.5Zm23.3-3.8L8,188.1l17.4,10.1Z"/><path d="M2.1,163.8V145.5a15.5,15.5,0,0,1,1.3-7.1q2.5-5.1,9.3-3.6a12.5,12.5,0,0,1,5.8,2.7,14.7,14.7,0,0,1,3.7,4.8,5.5,5.5,0,0,1,2.4-2.9c1.1-.6,2.7-.7,5-.3l5.3,1a16,16,0,0,0,3.4.3,2.8,2.8,0,0,0,2.4-1.2l.9.2v6.5l-1.4.2-3.1-.4-6.6-1.1c-2.5-.4-4.3.2-5.1,1.8a10.4,10.4,0,0,0-.8,4.7v12.1l17,3.6v5.3Zm18.1-13.9a12.2,12.2,0,0,0-1.5-6.3,7.8,7.8,0,0,0-5.4-3.3c-2.8-.6-4.8,0-5.8,1.8a9.7,9.7,0,0,0-.8,4.3v13l13.5,2.9Z"/><path d="M28.8,126.9a10.6,10.6,0,0,0,5.5-.4c2.6-1.3,3.9-4.1,3.9-8.6a16.9,16.9,0,0,0-.9-5.6c-1.1-3.5-3.1-5.5-5.9-6.1s-3.7-.1-4.6,1.1a14.7,14.7,0,0,0-2.3,5.8l-1.3,5.1c-.7,3.4-1.6,5.6-2.6,6.9s-4.1,2.9-7.3,2.2a14.7,14.7,0,0,1-8.8-5.6c-2.3-2.9-3.4-6.6-3.4-11.1s1-7.4,3-9.9,5.2-3.2,9.6-2.3v5a8.8,8.8,0,0,0-4.9.7c-2,1.2-3.1,3.7-3.1,7.6s.7,5.6,2,7.3a8.4,8.4,0,0,0,4.6,3c2,.4,3.4-.1,4.3-1.5s1.3-3.2,2.1-6.7l1.3-5.3a12.7,12.7,0,0,1,2.5-5.6c1.8-2.1,4.5-2.8,8-2.1a13,13,0,0,1,9.4,6.8,24.6,24.6,0,0,1,2.8,11.7c0,4.9-1.2,8.4-3.7,10.7s-5.9,2.9-10.2,1.9Z"/><path d="M2.1,72.7V67.4l34.8,7.4v-20l4.7,1V81.1Z"/><path d="M2.1,30.7V24.6l39.5-5.9v5.8L29.7,26.1V41.7l11.9,6.7v5.5Zm23.3-3.8L8,29.1,25.4,39.2Z"/></svg>
