<svg id="Layer_1" data-name="Layer 1" xmlns="http://www.w3.org/2000/svg" width="55" height="2500" viewBox="0 0 55 2500"><title>texti_right_lengri</title><path d="M50.6,13v5.4L15.9,11V31l-4.7-1V4.6Z"/><path d="M50.6,55.1v6l-39.4,6V61.2L23,59.7V44.1L11.2,37.3V31.9ZM27.3,58.9l17.4-2.3L27.3,46.5Z"/><path d="M50.6,86.1,26.2,80.9a12.9,12.9,0,0,0-7.1.1c-2.9,1-4.3,3.4-4.3,7.1s1.5,8,4.6,10.3a18.6,18.6,0,0,0,6.8,2.7l24.4,5.2v5.4L28.4,107c-4.8-1-8.5-2.4-11.2-4.3-4.7-3.4-7.1-8.5-7.1-15.1s2.4-10.7,7.1-12.1c2.7-.7,6.4-.6,11.2.4l22.2,4.8Z"/><path d="M50.6,120.7v18.2a16.3,16.3,0,0,1-1.3,7.2q-2.5,5-9.3,3.6a12.5,12.5,0,0,1-5.8-2.7,16.7,16.7,0,0,1-3.7-4.9,5.5,5.5,0,0,1-2.4,2.9c-1,.6-2.7.7-5,.3l-5.3-1-3.3-.3a2.9,2.9,0,0,0-2.5,1.2l-.8-.2v-6.5l1.3-.2,3.1.4,6.6,1.1c2.5.4,4.3-.2,5.1-1.8a10.2,10.2,0,0,0,.8-4.6V121.2l-16.9-3.6v-5.3ZM32.5,134.5a12.2,12.2,0,0,0,1.5,6.3q1.5,2.5,5.4,3.3c2.8.6,4.8,0,5.8-1.8a9.5,9.5,0,0,0,.8-4.2V125l-13.5-2.8Z"/><path d="M50.6,171.2v6l-39.4,6v-5.9L23,175.8V160.2l-11.8-6.7V148ZM27.3,175l17.4-2.3-17.4-10Z"/><path d="M50.6,209.3v18.3a15.5,15.5,0,0,1-1.3,7.1q-2.5,5.1-9.3,3.6a12.5,12.5,0,0,1-5.8-2.7,16.2,16.2,0,0,1-3.7-4.8,5.5,5.5,0,0,1-2.4,2.9c-1,.6-2.7.7-5,.3l-5.3-1a15.7,15.7,0,0,0-3.3-.3,2.9,2.9,0,0,0-2.5,1.2l-.8-.2v-6.5l1.3-.2,3.1.4,6.6,1.1c2.5.4,4.3-.2,5.1-1.8a10.4,10.4,0,0,0,.8-4.7V209.9l-16.9-3.6V201ZM32.5,223.2a12.2,12.2,0,0,0,1.5,6.3,7.8,7.8,0,0,0,5.4,3.3c2.8.6,4.8,0,5.8-1.8a9.7,9.7,0,0,0,.8-4.3v-13l-13.5-2.9Z"/><path d="M50.6,259.9v6l-39.4,6V266L23,264.5V248.9l-11.8-6.8v-5.4Zm-23.3,3.8,17.4-2.3L27.3,251.3Z"/><path d="M49.5,311.5c-2.1,3.5-5.7,5.1-10.8,4.9v-5.3a7.7,7.7,0,0,0,6.3-2.6c1.3-1.8,1.9-4.2,1.9-7.3a14.7,14.7,0,0,0-4.1-10.1c-2.7-3-6.8-5.2-12.2-6.3s-8.5-.8-11.5.6-4.4,4.5-4.4,9.2a16.1,16.1,0,0,0,3.1,9.5c2.1,2.8,5.4,4.7,10,5.7V297.4l4.5,1v17.3l-21.1-4.5v-3.4l5-.2a31.8,31.8,0,0,1-4.1-5.7,21,21,0,0,1-2-9.4q0-7,4.5-11.1c3.8-2.8,9-3.6,15.7-2.2S42.1,283.5,46,288a20.8,20.8,0,0,1,5.6,14.4A17.8,17.8,0,0,1,49.5,311.5Z"/><path d="M50.6,327.9v6.3l-32,13.1,32,6.8v5.1l-39.4-8.4v-6l31.9-13.4-31.9-6.8v-5.1Z"/><path d="M50.6,379.1v6L11.2,391v-5.8L23,383.7V368.1l-11.8-6.8v-5.5Zm-23.3,3.8,17.4-2.3L27.3,370.5Z"/><path d="M50.6,404.9v18.3a15.5,15.5,0,0,1-1.3,7.1q-2.5,5.1-9.3,3.6a12.5,12.5,0,0,1-5.8-2.7,16.2,16.2,0,0,1-3.7-4.8,5.5,5.5,0,0,1-2.4,2.9c-1,.6-2.7.6-5,.3l-5.3-1a10.9,10.9,0,0,0-3.3-.3,2.5,2.5,0,0,0-2.5,1.2l-.8-.2v-6.5l1.3-.2,3.1.4,6.6,1.1c2.5.4,4.3-.2,5.1-1.8a10.4,10.4,0,0,0,.8-4.7V405.5l-16.9-3.6v-5.4ZM32.5,418.8a12.2,12.2,0,0,0,1.5,6.3q1.5,2.4,5.4,3.3c2.8.6,4.8,0,5.8-1.9a8.9,8.9,0,0,0,.8-4.2v-13l-13.5-2.9Z"/><path d="M23.9,441.8a10.6,10.6,0,0,0-5.5.4c-2.6,1.2-3.9,4.1-3.9,8.6a16.9,16.9,0,0,0,.9,5.6c1.1,3.5,3.1,5.5,5.9,6.1s3.7.1,4.6-1.1a16.2,16.2,0,0,0,2.4-5.8l1.2-5.2c.8-3.3,1.6-5.5,2.6-6.8s4.1-2.9,7.4-2.2a14.7,14.7,0,0,1,8.7,5.6c2.3,2.9,3.4,6.6,3.4,11.1s-1,7.4-3,9.9-5.2,3.2-9.6,2.3v-5a8.8,8.8,0,0,0,4.9-.7c2-1.2,3.1-3.8,3.1-7.7a11.6,11.6,0,0,0-2-7.2,8.4,8.4,0,0,0-4.6-3c-2-.4-3.4.1-4.3,1.5a31,31,0,0,0-2.1,6.7l-1.3,5.3a12.7,12.7,0,0,1-2.5,5.6c-1.8,2.1-4.5,2.8-8,2.1s-7.5-3.2-9.4-6.8A24.6,24.6,0,0,1,10,449.4c0-4.9,1.3-8.5,3.8-10.7s5.8-2.9,10.1-1.9Z"/><path d="M50.6,496v5.3l-34.7-7.4v20l-4.7-1V487.6Z"/><path d="M50.6,538v6.1L11.2,550v-5.9L23,542.6V527l-11.8-6.7v-5.5Zm-23.3,3.8,17.4-2.2L27.3,529.5Z"/><path d="M50.6,569l-24.4-5.1a13.1,13.1,0,0,0-7.1,0c-2.9,1-4.3,3.4-4.3,7.2s1.5,7.9,4.6,10.2a18.6,18.6,0,0,0,6.8,2.8l24.4,5.2v5.4L28.4,590c-4.8-1.1-8.5-2.5-11.2-4.4-4.7-3.4-7.1-8.4-7.1-15.1s2.4-10.7,7.1-12c2.7-.8,6.4-.6,11.2.4l22.2,4.7Z"/><path d="M50.6,603.6v18.3a15.5,15.5,0,0,1-1.3,7.1q-2.5,5.1-9.3,3.6a12.5,12.5,0,0,1-5.8-2.7,15.4,15.4,0,0,1-3.7-4.9,6.2,6.2,0,0,1-2.4,3c-1,.5-2.7.6-5,.2l-5.3-.9a10.9,10.9,0,0,0-3.3-.3,2.5,2.5,0,0,0-2.5,1.2l-.8-.2v-6.6h1.3l3.1.4,6.6,1.1c2.5.4,4.3-.2,5.1-1.8a10.7,10.7,0,0,0,.8-4.7V604.1l-16.9-3.5v-5.4ZM32.5,617.5a11.6,11.6,0,0,0,1.5,6.2c1,1.7,2.8,2.8,5.4,3.4s4.8-.1,5.8-1.9A9.5,9.5,0,0,0,46,621V608l-13.5-2.9Z"/><path d="M50.6,654.1v6.1l-39.4,5.9v-5.8L23,658.8V643.2l-11.8-6.8v-5.5ZM27.3,658l17.4-2.3L27.3,645.6Z"/><path d="M50.6,692.3v18.2a16,16,0,0,1-1.3,7.2q-2.5,4.9-9.3,3.6a12.5,12.5,0,0,1-5.8-2.7,15.4,15.4,0,0,1-3.7-4.9,6.2,6.2,0,0,1-2.4,3c-1,.5-2.7.6-5,.2l-5.3-.9a17.7,17.7,0,0,0-3.3-.4,2.7,2.7,0,0,0-2.5,1.3l-.8-.2v-6.6h1.3l3.1.4,6.6,1c2.5.4,4.3-.2,5.1-1.7a10.7,10.7,0,0,0,.8-4.7V692.8l-16.9-3.6v-5.3ZM32.5,706.1a12.2,12.2,0,0,0,1.5,6.3c1,1.7,2.8,2.8,5.4,3.4s4.8-.1,5.8-1.9a9.5,9.5,0,0,0,.8-4.2V696.6l-13.5-2.8Z"/><path d="M50.6,742.8v6.1l-39.4,5.9v-5.9L23,747.4V731.8l-11.8-6.7v-5.5Zm-23.3,3.8,17.4-2.2L27.3,734.3Z"/><path d="M49.5,794.5c-2.1,3.4-5.7,5.1-10.8,4.9v-5.3a8.1,8.1,0,0,0,6.3-2.7c1.3-1.7,1.9-4.1,1.9-7.2a14.6,14.6,0,0,0-4.1-10.1c-2.7-3.1-6.8-5.2-12.2-6.4s-8.5-.8-11.5.7-4.4,4.5-4.4,9.1a15.7,15.7,0,0,0,3.1,9.5c2.1,2.8,5.4,4.7,10,5.7V780.4l4.5.9v17.4l-21.1-4.5v-3.5l5-.2a26,26,0,0,1-4.1-5.7,20.6,20.6,0,0,1-2-9.3q0-7.1,4.5-11.1c3.8-2.9,9-3.6,15.7-2.2A28,28,0,0,1,46,770.9a20.8,20.8,0,0,1,5.6,14.4A18.2,18.2,0,0,1,49.5,794.5Z"/><path d="M50.6,810.8v6.3l-32,13.2,32,6.8v5l-39.4-8.3v-6l31.9-13.5-31.9-6.8v-5.1Z"/><path d="M50.6,862v6l-39.4,6v-5.9L23,866.6V851l-11.8-6.7v-5.5Zm-23.3,3.8,17.4-2.3-17.4-10Z"/><path d="M50.6,887.9v18.2a16.3,16.3,0,0,1-1.3,7.2q-2.5,5-9.3,3.6a12.5,12.5,0,0,1-5.8-2.7,16.7,16.7,0,0,1-3.7-4.9,6.2,6.2,0,0,1-2.4,3c-1,.5-2.7.6-5,.2l-5.3-.9a17.7,17.7,0,0,0-3.3-.4,2.9,2.9,0,0,0-2.5,1.2h-.8v-6.6l1.3-.2,3.1.4,6.6,1.1c2.5.4,4.3-.2,5.1-1.8a9.9,9.9,0,0,0,.8-4.6V888.4l-16.9-3.6v-5.3ZM32.5,901.7A12.2,12.2,0,0,0,34,908q1.5,2.6,5.4,3.3c2.8.6,4.8,0,5.8-1.8a9.5,9.5,0,0,0,.8-4.2V892.2l-13.5-2.8Z"/><path d="M23.9,924.7a9.5,9.5,0,0,0-5.5.5c-2.6,1.2-3.9,4-3.9,8.5a17.9,17.9,0,0,0,.9,5.7c1.1,3.4,3.1,5.4,5.9,6s3.7.1,4.6-1a17.7,17.7,0,0,0,2.4-5.9l1.2-5.1c.8-3.3,1.6-5.6,2.6-6.9s4.1-2.8,7.4-2.1a14.6,14.6,0,0,1,8.7,5.5c2.3,2.9,3.4,6.6,3.4,11.1s-1,7.5-3,9.9-5.2,3.3-9.6,2.3v-5a8,8,0,0,0,4.9-.7c2-1.2,3.1-3.7,3.1-7.6s-.7-5.6-2-7.2a8.1,8.1,0,0,0-4.6-3.1c-2-.4-3.4.1-4.3,1.5a33.2,33.2,0,0,0-2.1,6.7l-1.3,5.3a13.2,13.2,0,0,1-2.5,5.7c-1.8,2.1-4.5,2.8-8,2a13.1,13.1,0,0,1-9.4-6.7A24.6,24.6,0,0,1,10,932.4c0-4.9,1.3-8.5,3.8-10.7s5.8-2.9,10.1-2Z"/><path d="M50.6,978.9v5.4l-34.7-7.4v19.9l-4.7-.9V970.5Z"/><path d="M50.6,1021v6l-39.4,5.9v-5.8l11.8-1.5V1010l-11.8-6.8v-5.5Zm-23.3,3.8,17.4-2.3-17.4-10.1Z"/><path d="M50.6,1052l-24.4-5.2a12.9,12.9,0,0,0-7.1.1c-2.9,1-4.3,3.3-4.3,7.1s1.5,8,4.6,10.3a18.6,18.6,0,0,0,6.8,2.7l24.4,5.2v5.4l-22.2-4.7a31.9,31.9,0,0,1-11.2-4.3c-4.7-3.4-7.1-8.5-7.1-15.1s2.4-10.7,7.1-12.1c2.7-.7,6.4-.6,11.2.4l22.2,4.8Z"/><path d="M50.6,1086.5v18.3a16.3,16.3,0,0,1-1.3,7.2c-1.7,3.3-4.8,4.5-9.3,3.5a12.5,12.5,0,0,1-5.8-2.7,15,15,0,0,1-3.7-4.8,5.5,5.5,0,0,1-2.4,2.9c-1,.6-2.7.7-5,.3l-5.3-1-3.3-.3a2.9,2.9,0,0,0-2.5,1.2l-.8-.2v-6.5l1.3-.2,3.1.4,6.6,1.1c2.5.4,4.3-.2,5.1-1.8a10.4,10.4,0,0,0,.8-4.7v-12.1l-16.9-3.6v-5.3Zm-18.1,13.9a12.2,12.2,0,0,0,1.5,6.3,7.8,7.8,0,0,0,5.4,3.3c2.8.6,4.8,0,5.8-1.8a9.7,9.7,0,0,0,.8-4.3v-13L32.5,1088Z"/><path d="M50.6,1137.1v6l-39.4,6v-5.9l11.8-1.5v-15.6l-11.8-6.8v-5.4Zm-23.3,3.8,17.4-2.3-17.4-10.1Z"/><path d="M50.6,1175.2v18.3a15.5,15.5,0,0,1-1.3,7.1q-2.5,5.1-9.3,3.6a12.5,12.5,0,0,1-5.8-2.7,16.2,16.2,0,0,1-3.7-4.8,5.5,5.5,0,0,1-2.4,2.9c-1,.6-2.7.6-5,.2l-5.3-.9a10.9,10.9,0,0,0-3.3-.3,2.5,2.5,0,0,0-2.5,1.2l-.8-.2v-6.5a2.4,2.4,0,0,1,1.3-.2l3.1.4,6.6,1.1c2.5.4,4.3-.2,5.1-1.8a10.4,10.4,0,0,0,.8-4.7v-12.1l-16.9-3.6v-5.4Zm-18.1,13.9a11.6,11.6,0,0,0,1.5,6.2c1,1.7,2.8,2.8,5.4,3.4s4.8,0,5.8-1.9a9.2,9.2,0,0,0,.8-4.2v-13l-13.5-2.9Z"/><path d="M50.6,1225.8v6l-39.4,5.9v-5.8l11.8-1.5v-15.6L11.2,1208v-5.5Zm-23.3,3.8,17.4-2.3-17.4-10.1Z"/><path d="M49.5,1277.4c-2.1,3.5-5.7,5.1-10.8,4.9V1277a7.5,7.5,0,0,0,6.3-2.7c1.3-1.7,1.9-4.1,1.9-7.2a14.7,14.7,0,0,0-4.1-10.1c-2.7-3.1-6.8-5.2-12.2-6.3s-8.5-.8-11.5.6-4.4,4.5-4.4,9.2a16.1,16.1,0,0,0,3.1,9.5c2.1,2.7,5.4,4.6,10,5.7v-12.4l4.5,1v17.3l-21.1-4.5v-3.4l5-.2a31.8,31.8,0,0,1-4.1-5.7,21.3,21.3,0,0,1-2-9.4q0-7.1,4.5-11.1c3.8-2.9,9-3.6,15.7-2.2s11.8,4.3,15.7,8.8a20.3,20.3,0,0,1,5.6,14.3A17.9,17.9,0,0,1,49.5,1277.4Z"/><path d="M50.6,1293.8v6.3l-32,13.1,32,6.8v5.1l-39.4-8.4v-6l31.9-13.4-31.9-6.8v-5.1Z"/><path d="M50.6,1344.9v6.1l-39.4,5.9v-5.8l11.8-1.5V1334l-11.8-6.8v-5.5Zm-23.3,3.9,17.4-2.3-17.4-10.1Z"/><path d="M50.6,1370.8v18.3a15.5,15.5,0,0,1-1.3,7.1q-2.5,5.1-9.3,3.6a12.5,12.5,0,0,1-5.8-2.7,15.4,15.4,0,0,1-3.7-4.9,5.7,5.7,0,0,1-2.4,3c-1,.5-2.7.6-5,.2l-5.3-.9a10.9,10.9,0,0,0-3.3-.3,2.5,2.5,0,0,0-2.5,1.2l-.8-.2v-6.6h1.3l3.1.4,6.6,1.1c2.5.4,4.3-.2,5.1-1.8a10.4,10.4,0,0,0,.8-4.7v-12.2l-16.9-3.5v-5.4Zm-18.1,13.9a11.6,11.6,0,0,0,1.5,6.2c1,1.7,2.8,2.8,5.4,3.4s4.8,0,5.8-1.9a9.5,9.5,0,0,0,.8-4.2v-13l-13.5-2.9Z"/><path d="M23.9,1407.7a9.6,9.6,0,0,0-5.5.4c-2.6,1.2-3.9,4.1-3.9,8.6a17.3,17.3,0,0,0,.9,5.6c1.1,3.4,3.1,5.5,5.9,6.1s3.7.1,4.6-1.1a16.8,16.8,0,0,0,2.4-5.9l1.2-5.1c.8-3.3,1.6-5.6,2.6-6.8s4.1-2.9,7.4-2.2a15.1,15.1,0,0,1,8.7,5.5,17.8,17.8,0,0,1,3.4,11.2q0,6.1-3,9.9c-2,2.4-5.2,3.2-9.6,2.3v-5a9.8,9.8,0,0,0,4.9-.7c2-1.2,3.1-3.8,3.1-7.7a11.6,11.6,0,0,0-2-7.2,7.9,7.9,0,0,0-4.6-3c-2-.4-3.4.1-4.3,1.5a29.1,29.1,0,0,0-2.1,6.7l-1.3,5.2a12.6,12.6,0,0,1-2.5,5.7c-1.8,2.1-4.5,2.8-8,2.1s-7.5-3.2-9.4-6.8a24.6,24.6,0,0,1-2.8-11.7c0-4.9,1.3-8.5,3.8-10.7s5.8-2.9,10.1-1.9Z"/><path d="M50.6,1461.8v5.4l-34.7-7.4v20l-4.7-1v-25.3Z"/><path d="M50.6,1503.9v6l-39.4,6V1510l11.8-1.5v-15.6l-11.8-6.7v-5.5Zm-23.3,3.8,17.4-2.3-17.4-10Z"/><path d="M50.6,1534.9l-24.4-5.2a14,14,0,0,0-7.1.1c-2.9,1-4.3,3.4-4.3,7.2s1.5,7.9,4.6,10.2a18.6,18.6,0,0,0,6.8,2.8l24.4,5.1v5.5l-22.2-4.8c-4.8-1-8.5-2.4-11.2-4.3-4.7-3.4-7.1-8.4-7.1-15.1s2.4-10.7,7.1-12c2.7-.8,6.4-.7,11.2.4l22.2,4.7Z"/><path d="M50.6,1569.5v18.2a16,16,0,0,1-1.3,7.2q-2.5,4.9-9.3,3.6a12.5,12.5,0,0,1-5.8-2.7,15.4,15.4,0,0,1-3.7-4.9,6.2,6.2,0,0,1-2.4,3c-1,.5-2.7.6-5,.2l-5.3-.9a17.7,17.7,0,0,0-3.3-.4,2.7,2.7,0,0,0-2.5,1.3l-.8-.2v-6.6h1.3l3.1.4,6.6,1c2.5.4,4.3-.1,5.1-1.7a10.7,10.7,0,0,0,.8-4.7V1570l-16.9-3.6v-5.3Zm-18.1,13.8a12.2,12.2,0,0,0,1.5,6.3c1,1.7,2.8,2.8,5.4,3.4s4.8-.1,5.8-1.9a9.5,9.5,0,0,0,.8-4.2v-13.1L32.5,1571Z"/><path d="M50.6,1620v6.1L11.2,1632v-5.9l11.8-1.5V1609l-11.8-6.7v-5.5Zm-23.3,3.8,17.4-2.2-17.4-10.1Z"/><path d="M50.6,1658.2v18.2a16.3,16.3,0,0,1-1.3,7.2q-2.5,5-9.3,3.6a12.5,12.5,0,0,1-5.8-2.7,16.7,16.7,0,0,1-3.7-4.9,5.5,5.5,0,0,1-2.4,2.9c-1,.6-2.7.7-5,.3l-5.3-1-3.3-.3a2.9,2.9,0,0,0-2.5,1.2l-.8-.2V1676l1.3-.2,3.1.4,6.6,1.1c2.5.4,4.3-.2,5.1-1.8a10.2,10.2,0,0,0,.8-4.6v-12.2l-16.9-3.6v-5.3ZM32.5,1672a12.2,12.2,0,0,0,1.5,6.3q1.5,2.5,5.4,3.3c2.8.6,4.8,0,5.8-1.8a9.5,9.5,0,0,0,.8-4.2v-13.1l-13.5-2.8Z"/><path d="M50.6,1708.7v6l-39.4,6v-5.9l11.8-1.5v-15.6L11.2,1691v-5.5Zm-23.3,3.8,17.4-2.3-17.4-10Z"/><path d="M49.5,1760.3c-2.1,3.5-5.7,5.1-10.8,4.9v-5.3a7.7,7.7,0,0,0,6.3-2.6,12,12,0,0,0,1.9-7.2,14.4,14.4,0,0,0-4.1-10.1c-2.7-3.1-6.8-5.2-12.2-6.4s-8.5-.8-11.5.7-4.4,4.4-4.4,9.1a15.9,15.9,0,0,0,3.1,9.5c2.1,2.8,5.4,4.7,10,5.7v-12.4l4.5,1v17.3L11.2,1760v-3.4l5-.2a26,26,0,0,1-4.1-5.7,21,21,0,0,1-2-9.4,14.5,14.5,0,0,1,4.5-11.1c3.8-2.8,9-3.5,15.7-2.1a28,28,0,0,1,15.7,8.7,20.8,20.8,0,0,1,5.6,14.4A17.8,17.8,0,0,1,49.5,1760.3Z"/><path d="M50.6,1776.7v6.3l-32,13.1,32,6.8v5.1l-39.4-8.4v-6l31.9-13.4-31.9-6.8v-5.1Z"/><path d="M50.6,1827.9v6l-39.4,6V1834l11.8-1.5v-15.6l-11.8-6.8v-5.4Zm-23.3,3.8,17.4-2.3-17.4-10.1Z"/><path d="M50.6,1853.7V1872a16.3,16.3,0,0,1-1.3,7.2q-2.5,5-9.3,3.6a14.9,14.9,0,0,1-5.8-2.7,16.7,16.7,0,0,1-3.7-4.9,5.5,5.5,0,0,1-2.4,2.9c-1,.6-2.7.7-5,.3l-5.3-1-3.3-.3a2.9,2.9,0,0,0-2.5,1.2l-.8-.2v-6.5l1.3-.2,3.1.4,6.6,1.1c2.5.4,4.3-.2,5.1-1.8a10.2,10.2,0,0,0,.8-4.6v-12.2l-16.9-3.6v-5.3Zm-18.1,13.9a12.2,12.2,0,0,0,1.5,6.3,7.8,7.8,0,0,0,5.4,3.3c2.8.6,4.8,0,5.8-1.8a9.7,9.7,0,0,0,.8-4.3v-13l-13.5-2.8Z"/><path d="M23.9,1890.6a10.6,10.6,0,0,0-5.5.4c-2.6,1.3-3.9,4.1-3.9,8.6a17.9,17.9,0,0,0,.9,5.7c1.1,3.4,3.1,5.4,5.9,6s3.7.1,4.6-1a17.7,17.7,0,0,0,2.4-5.9l1.2-5.1c.8-3.3,1.6-5.6,2.6-6.9s4.1-2.9,7.4-2.2a14.7,14.7,0,0,1,8.7,5.6c2.3,2.9,3.4,6.6,3.4,11.1s-1,7.5-3,9.9-5.2,3.2-9.6,2.3v-5a8.8,8.8,0,0,0,4.9-.7c2-1.2,3.1-3.7,3.1-7.6s-.7-5.6-2-7.2a8.1,8.1,0,0,0-4.6-3.1c-2-.4-3.4.1-4.3,1.5a31,31,0,0,0-2.1,6.7l-1.3,5.3a12.7,12.7,0,0,1-2.5,5.6c-1.8,2.2-4.5,2.8-8,2.1a13,13,0,0,1-9.4-6.8,24.4,24.4,0,0,1-2.8-11.7c0-4.9,1.3-8.4,3.8-10.7s5.8-2.9,10.1-1.9Z"/><path d="M50.6,1944.8v5.3l-34.7-7.4v20l-4.7-1v-25.3Z"/><path d="M50.6,1986.8v6.1l-39.4,5.9V1993l11.8-1.5v-15.6l-11.8-6.8v-5.5Zm-23.3,3.9,17.4-2.3-17.4-10.1Z"/><path d="M50.6,2017.9l-24.4-5.2a12.9,12.9,0,0,0-7.1.1c-2.9.9-4.3,3.3-4.3,7.1s1.5,7.9,4.6,10.2a17,17,0,0,0,6.8,2.8l24.4,5.2v5.4l-22.2-4.7a31.9,31.9,0,0,1-11.2-4.3c-4.7-3.5-7.1-8.5-7.1-15.2s2.4-10.6,7.1-12c2.7-.7,6.4-.6,11.2.4l22.2,4.7Z"/><path d="M50.6,2052.4v18.3a15.5,15.5,0,0,1-1.3,7.1q-2.5,5.1-9.3,3.6a12.5,12.5,0,0,1-5.8-2.7,16.2,16.2,0,0,1-3.7-4.8,5.5,5.5,0,0,1-2.4,2.9c-1,.6-2.7.6-5,.3l-5.3-1a10.9,10.9,0,0,0-3.3-.3A2.5,2.5,0,0,0,12,2077l-.8-.2v-6.5a2.4,2.4,0,0,1,1.3-.2l3.1.4,6.6,1.1c2.5.4,4.3-.2,5.1-1.8a10.4,10.4,0,0,0,.8-4.7V2053l-16.9-3.6V2044Zm-18.1,13.9a12.2,12.2,0,0,0,1.5,6.3q1.5,2.4,5.4,3.3c2.8.6,4.8,0,5.8-1.9a8.9,8.9,0,0,0,.8-4.2v-13l-13.5-2.9Z"/><path d="M50.6,2103v6l-39.4,5.9v-5.8l11.8-1.5V2092l-11.8-6.8v-5.5Zm-23.3,3.8,17.4-2.3-17.4-10.1Z"/><path d="M50.6,2141.1v18.3a15.5,15.5,0,0,1-1.3,7.1q-2.5,5.1-9.3,3.6a12.5,12.5,0,0,1-5.8-2.7,15.4,15.4,0,0,1-3.7-4.9,6.2,6.2,0,0,1-2.4,3c-1,.5-2.7.6-5,.2l-5.3-.9a10.9,10.9,0,0,0-3.3-.3,2.5,2.5,0,0,0-2.5,1.2l-.8-.2v-6.6h1.3l3.1.4,6.6,1c2.5.5,4.3-.1,5.1-1.7a10.7,10.7,0,0,0,.8-4.7v-12.2l-16.9-3.5v-5.4ZM32.5,2155a11.6,11.6,0,0,0,1.5,6.2c1,1.7,2.8,2.8,5.4,3.4s4.8-.1,5.8-1.9a9.5,9.5,0,0,0,.8-4.2v-13l-13.5-2.9Z"/><path d="M50.6,2191.6v6.1l-39.4,5.9v-5.8l11.8-1.5v-15.6l-11.8-6.8v-5.5Zm-23.3,3.9,17.4-2.3-17.4-10.1Z"/><path d="M49.5,2243.3c-2.1,3.5-5.7,5.1-10.8,4.9v-5.3c2.8-.1,4.9-.9,6.3-2.7s1.9-4.1,1.9-7.2a14.6,14.6,0,0,0-4.1-10.1c-2.7-3.1-6.8-5.2-12.2-6.4s-8.5-.7-11.5.7-4.4,4.5-4.4,9.1a15.7,15.7,0,0,0,3.1,9.5c2.1,2.8,5.4,4.7,10,5.7v-12.3l4.5,1v17.3L11.2,2243v-3.4l5-.3a26,26,0,0,1-4.1-5.7,20.6,20.6,0,0,1-2-9.3q0-7.1,4.5-11.1c3.8-2.9,9-3.6,15.7-2.2a28,28,0,0,1,15.7,8.7,20.8,20.8,0,0,1,5.6,14.4A18.2,18.2,0,0,1,49.5,2243.3Z"/><path d="M50.6,2259.6v6.3l-32,13.2,32,6.8v5.1l-39.4-8.4v-6l31.9-13.5-31.9-6.7v-5.1Z"/><path d="M50.6,2310.8v6.1l-39.4,5.9v-5.9l11.8-1.5v-15.6l-11.8-6.7v-5.5Zm-23.3,3.8,17.4-2.2-17.4-10.1Z"/><path d="M50.6,2336.7v18.2a16,16,0,0,1-1.3,7.2q-2.5,5-9.3,3.6a12.5,12.5,0,0,1-5.8-2.7,15.4,15.4,0,0,1-3.7-4.9,6.2,6.2,0,0,1-2.4,3c-1,.5-2.7.6-5,.2l-5.3-.9a10.9,10.9,0,0,0-3.3-.3,2.5,2.5,0,0,0-2.5,1.2l-.8-.2v-6.6h1.3l3.1.4,6.6,1c2.5.4,4.3-.1,5.1-1.7a10.7,10.7,0,0,0,.8-4.7v-12.2l-16.9-3.5v-5.4Zm-18.1,13.8a12,12,0,0,0,1.5,6.3c1,1.7,2.8,2.8,5.4,3.4s4.8-.1,5.8-1.9a9.5,9.5,0,0,0,.8-4.2V2341l-13.5-2.8Z"/><path d="M23.9,2373.6a9.6,9.6,0,0,0-5.5.4c-2.6,1.2-3.9,4.1-3.9,8.5a17.9,17.9,0,0,0,.9,5.7c1.1,3.4,3.1,5.4,5.9,6s3.7.2,4.6-1a16.8,16.8,0,0,0,2.4-5.9l1.2-5.1c.8-3.3,1.6-5.6,2.6-6.8s4.1-2.9,7.4-2.2a14.6,14.6,0,0,1,8.7,5.5,17.8,17.8,0,0,1,3.4,11.2q0,6.2-3,9.9c-2,2.4-5.2,3.2-9.6,2.3V2397a8.9,8.9,0,0,0,4.9-.6c2-1.2,3.1-3.8,3.1-7.7a11.6,11.6,0,0,0-2-7.2,8.1,8.1,0,0,0-4.6-3.1c-2-.4-3.4.1-4.3,1.6a29.1,29.1,0,0,0-2.1,6.7l-1.3,5.2a12.6,12.6,0,0,1-2.5,5.7c-1.8,2.1-4.5,2.8-8,2a13.1,13.1,0,0,1-9.4-6.7,24.6,24.6,0,0,1-2.8-11.7c0-4.9,1.3-8.5,3.8-10.7s5.8-2.9,10.1-2Z"/><path d="M50.6,2427.7v5.4l-34.7-7.4v20l-4.7-1v-25.4Z"/><path d="M50.6,2469.8v6l-39.4,6v-5.9l11.8-1.5v-15.6L11.2,2452v-5.4Zm-23.3,3.8,17.4-2.3-17.4-10.1Z"/></svg>
