<svg id="Layer_1" data-name="Layer 1" xmlns="http://www.w3.org/2000/svg" width="1920" height="95" viewBox="0 0 1920 95"><title>texti_top2</title><path d="M18.7,4.2h8L15.6,56.7H45.7l-1.5,7.1H6Z"/><path d="M82.1,4.2h9.2l8.9,59.6H91.4L89.1,45.9H65.6L55.4,63.8H47.1Zm5.8,35.2L84.5,13.1,69.3,39.4Z"/><path d="M129,4.2,121.1,41c-.9,4.3-.8,7.9.2,10.8s5,6.5,10.7,6.5,12-2.3,15.5-7A28,28,0,0,0,151.6,41l7.9-36.8h8.2l-7.2,33.5C159,45,156.8,50.6,154,54.6c-5.2,7.1-12.8,10.7-22.8,10.7S115.1,61.7,113,54.6c-1.1-4-.9-9.6.6-16.9l7.2-33.5Z"/><path d="M181.1,4.2h27.6c4.5,0,8.1.7,10.7,2,5.1,2.6,6.9,7.2,5.5,14.1a19.1,19.1,0,0,1-4.1,8.7,22.3,22.3,0,0,1-7.3,5.5,8.7,8.7,0,0,1,4.4,3.7c.8,1.6,1,4.1.4,7.5l-1.4,8a22.3,22.3,0,0,0-.5,5.1q.2,2.9,1.8,3.6l-.3,1.4H208a11.2,11.2,0,0,1-.2-2,34.1,34.1,0,0,1,.6-4.7l1.6-10c.6-3.8-.3-6.5-2.7-7.8s-3.7-1.1-7-1.1H181.9l-5.4,25.6h-8ZM202,31.5a18.3,18.3,0,0,0,9.5-2.3c2.5-1.5,4.2-4.2,5-8.1s0-7.2-2.8-8.7a13.6,13.6,0,0,0-6.3-1.2H187.7l-4.3,20.3Z"/><path d="M257.4,4.2h9.1l9,59.6h-8.9l-2.2-17.9H240.8L230.6,63.8h-8.3Zm5.7,35.2-3.4-26.3L244.5,39.4Z"/><path d="M314.9,4.2h27.6a25.1,25.1,0,0,1,10.8,2c5,2.6,6.8,7.2,5.4,14.1a19.1,19.1,0,0,1-4.1,8.7,21.3,21.3,0,0,1-7.3,5.5,8.7,8.7,0,0,1,4.4,3.7c.9,1.6,1,4.1.4,7.5l-1.4,8a22.3,22.3,0,0,0-.5,5.1q.2,2.9,1.8,3.6l-.3,1.4h-9.9a11.2,11.2,0,0,1-.2-2,34.1,34.1,0,0,1,.6-4.7l1.6-10c.6-3.8-.2-6.5-2.6-7.8a17.4,17.4,0,0,0-7.1-1.1H315.7l-5.3,25.6h-8.1Zm20.9,27.3a18.3,18.3,0,0,0,9.5-2.3q3.8-2.2,5.1-8.1c.8-4.3-.1-7.2-2.8-8.7a14,14,0,0,0-6.4-1.2H321.5l-4.3,20.3Z"/><path d="M391.2,4.2h9.1l9,59.6h-8.9l-2.2-17.9H374.6L364.4,63.8h-8.3ZM397,39.4l-3.5-26.3L378.3,39.4Z"/><path d="M469.1,5.9c5.3,3.1,7.7,8.6,7.4,16.4h-8c0-4.4-1.4-7.6-4-9.5s-6.2-3-10.9-3A22,22,0,0,0,438.4,16c-4.7,4.1-7.9,10.3-9.6,18.4s-1.2,12.9,1,17.3,6.7,6.7,13.8,6.7a23.6,23.6,0,0,0,14.3-4.7c4.2-3.1,7.1-8.2,8.6-15.1H447.9l1.4-6.7h26.2l-6.8,31.9h-5.2l-.3-7.7a41.1,41.1,0,0,1-8.6,6.2,31.3,31.3,0,0,1-14.2,3c-7,0-12.6-2.2-16.7-6.8s-5.4-13.6-3.3-23.6,6.5-17.9,13.2-23.8a31.8,31.8,0,0,1,21.7-8.4C460.9,2.7,465.5,3.8,469.1,5.9Z"/><path d="M493.8,4.2h9.5l19.9,48.3L533.4,4.2h7.7L528.4,63.8h-9L499.1,15.6,488.9,63.8h-7.7Z"/><path d="M571.1,4.2h9.1l8.9,59.6h-8.8L578,45.9H554.5L544.3,63.8H536Zm5.7,35.2-3.4-26.3L558.2,39.4Z"/><path d="M610.1,4.2h27.6c4.5,0,8.1.7,10.7,2,5.1,2.6,6.9,7.2,5.5,14.1a20.1,20.1,0,0,1-4.1,8.7,21.7,21.7,0,0,1-7.4,5.5,8.6,8.6,0,0,1,4.5,3.7c.8,1.6.9,4.1.4,7.5l-1.5,8a20.9,20.9,0,0,0-.4,5.1q0,2.9,1.8,3.6l-.3,1.4H637a6.2,6.2,0,0,1-.2-2,34.1,34.1,0,0,1,.6-4.7l1.6-10c.6-3.8-.3-6.5-2.7-7.8s-3.7-1.1-7-1.1H610.9l-5.4,25.6h-8.1ZM631,31.5a18.6,18.6,0,0,0,9.5-2.3c2.5-1.5,4.2-4.2,5-8.1s0-7.2-2.8-8.7a13.6,13.6,0,0,0-6.3-1.2H616.7l-4.3,20.3Z"/><path d="M665.7,44.5c-.5,3.4-.3,6.2.7,8.3,1.8,3.9,6.1,5.9,12.9,5.9a26.5,26.5,0,0,0,8.5-1.3c5.2-1.7,8.2-4.7,9.1-9s.2-5.6-1.5-6.9-4.8-2.6-8.9-3.6l-7.7-1.8c-5-1.2-8.5-2.5-10.3-3.9S664.1,26,665.2,21a21.8,21.8,0,0,1,8.3-13.1c4.4-3.5,10.1-5.2,16.8-5.2s11.3,1.5,15,4.5,4.8,7.9,3.4,14.5h-7.5c.2-3.2-.1-5.6-1.1-7.3s-5.6-4.7-11.5-4.7-8.4,1-10.9,3a12.2,12.2,0,0,0-4.6,7c-.6,2.9.1,5,2.3,6.4s4.8,1.9,10.1,3.2l8,1.9A20.4,20.4,0,0,1,702,35c3.2,2.8,4.2,6.8,3.1,12.1s-4.8,11.3-10.2,14.1a36.8,36.8,0,0,1-17.7,4.3c-7.4,0-12.7-1.9-16.1-5.7s-4.4-8.8-2.9-15.3Z"/><path d="M747.5,4.2h8L744.4,56.7h30.2l-1.5,7.1H734.8Z"/><path d="M810.9,4.2h9.2L829,63.8h-8.8l-2.3-17.9H794.4L784.2,63.8h-8.3Zm5.8,35.2-3.4-26.3L798.1,39.4Z"/><path d="M857.8,4.2,849.9,41c-.9,4.3-.8,7.9.2,10.8s5,6.5,10.7,6.5,12-2.3,15.5-7A29.9,29.9,0,0,0,880.5,41l7.8-36.8h8.2l-7.2,33.5c-1.5,7.3-3.7,12.9-6.5,16.9C877.6,61.7,870,65.3,860,65.3s-16.1-3.6-18.2-10.7c-1.1-4-.9-9.6.6-16.9l7.2-33.5Z"/><path d="M909.9,4.2h27.6a25.1,25.1,0,0,1,10.8,2c5,2.6,6.8,7.2,5.4,14.1a19.1,19.1,0,0,1-4.1,8.7,21.3,21.3,0,0,1-7.3,5.5,8.7,8.7,0,0,1,4.4,3.7c.8,1.6,1,4.1.4,7.5l-1.4,8a22.3,22.3,0,0,0-.5,5.1q.1,2.9,1.8,3.6l-.3,1.4h-9.9a11.2,11.2,0,0,1-.2-2,34.1,34.1,0,0,1,.6-4.7l1.6-10c.6-3.8-.3-6.5-2.7-7.8s-3.7-1.1-7-1.1H910.7l-5.4,25.6h-8Zm20.9,27.3a18.3,18.3,0,0,0,9.5-2.3c2.5-1.5,4.2-4.2,5-8.1s0-7.2-2.8-8.7a13.3,13.3,0,0,0-6.3-1.2H916.5l-4.3,20.3Z"/><path d="M986.2,4.2h9.1l9,59.6h-8.9l-2.2-17.9H969.6L959.4,63.8h-8.3Zm5.7,35.2-3.4-26.3L973.3,39.4Z"/><path d="M1043.7,4.2h27.6a25.1,25.1,0,0,1,10.8,2c5,2.6,6.8,7.2,5.4,14.1a19.1,19.1,0,0,1-4.1,8.7,21.3,21.3,0,0,1-7.3,5.5,8.7,8.7,0,0,1,4.4,3.7c.9,1.6,1,4.1.4,7.5l-1.4,8a22.3,22.3,0,0,0-.5,5.1q.1,2.9,1.8,3.6l-.3,1.4h-9.9a11.2,11.2,0,0,1-.2-2,34.1,34.1,0,0,1,.6-4.7l1.6-10c.7-3.8-.2-6.5-2.6-7.8s-3.8-1.1-7.1-1.1h-18.4l-5.3,25.6h-8.1Zm20.9,27.3a18.3,18.3,0,0,0,9.5-2.3q3.8-2.2,5.1-8.1c.8-4.3-.1-7.2-2.8-8.7a13.7,13.7,0,0,0-6.4-1.2h-19.7L1046,31.5Z"/><path d="M1120,4.2h9.1l9,59.6h-8.9L1127,45.9h-23.6l-10.2,17.9H1085Zm5.8,35.2-3.5-26.3-15.2,26.3Z"/><path d="M1197.9,5.9c5.3,3.1,7.7,8.6,7.4,16.4h-8c0-4.4-1.4-7.6-4-9.5s-6.2-3-10.9-3a22,22,0,0,0-15.2,6.2c-4.7,4.1-7.9,10.3-9.6,18.4s-1.2,12.9,1,17.3,6.7,6.7,13.8,6.7a23.6,23.6,0,0,0,14.3-4.7c4.2-3.1,7.1-8.2,8.6-15.1h-18.6l1.4-6.7h26.2l-6.8,31.9h-5.2l-.3-7.7a41.1,41.1,0,0,1-8.6,6.2,31.3,31.3,0,0,1-14.2,3c-7,0-12.6-2.2-16.7-6.8s-5.4-13.6-3.3-23.6,6.5-17.9,13.2-23.8a31.8,31.8,0,0,1,21.7-8.4C1189.7,2.7,1194.3,3.8,1197.9,5.9Z"/><path d="M1222.6,4.2h9.5L1252,52.5l10.2-48.3h7.7l-12.7,59.6h-9l-20.3-48.2-10.2,48.2H1210Z"/><path d="M1299.9,4.2h9.1l8.9,59.6h-8.8l-2.3-17.9h-23.5l-10.2,17.9h-8.3Zm5.7,35.2-3.4-26.3L1287,39.4Z"/><path d="M1338.9,4.2h27.6c4.5,0,8.1.7,10.7,2,5.1,2.6,6.9,7.2,5.5,14.1a20.1,20.1,0,0,1-4.1,8.7,21.7,21.7,0,0,1-7.4,5.5,8.6,8.6,0,0,1,4.5,3.7c.8,1.6,1,4.1.4,7.5l-1.5,8a20.9,20.9,0,0,0-.4,5.1q0,2.9,1.8,3.6l-.3,1.4h-9.9a6.2,6.2,0,0,1-.2-2,34.1,34.1,0,0,1,.6-4.7l1.6-10c.6-3.8-.3-6.5-2.7-7.8s-3.7-1.1-7-1.1h-18.4l-5.4,25.6h-8.1Zm20.9,27.3a18.6,18.6,0,0,0,9.5-2.3c2.5-1.5,4.2-4.2,5-8.1s0-7.2-2.8-8.7a13.6,13.6,0,0,0-6.3-1.2h-19.7l-4.3,20.3Z"/><path d="M1394.5,44.5c-.5,3.4-.3,6.2.7,8.3,1.8,3.9,6.1,5.9,12.9,5.9a26.1,26.1,0,0,0,8.5-1.3c5.2-1.7,8.2-4.7,9.1-9s.2-5.6-1.5-6.9-4.8-2.6-8.9-3.6l-7.7-1.8c-5-1.2-8.5-2.5-10.3-3.9S1392.9,26,1394,21a21.8,21.8,0,0,1,8.3-13.1c4.5-3.5,10.1-5.2,16.8-5.2s11.3,1.5,15,4.5,4.8,7.9,3.4,14.5H1430c.2-3.2-.1-5.6-1.1-7.3s-5.6-4.7-11.5-4.7-8.4,1-10.9,3a12.2,12.2,0,0,0-4.6,7c-.6,2.9.1,5,2.3,6.4s4.8,1.9,10.1,3.2l8,1.9a20.4,20.4,0,0,1,8.5,3.8c3.2,2.8,4.2,6.8,3.1,12.1s-4.8,11.3-10.2,14.1a36.8,36.8,0,0,1-17.7,4.3c-7.4,0-12.7-1.9-16.1-5.7s-4.4-8.8-2.9-15.3Z"/><path d="M1476.3,4.2h8l-11.1,52.5h30.2l-1.5,7.1h-38.3Z"/><path d="M1539.7,4.2h9.2l8.9,59.6H1549l-2.3-17.9h-23.5L1513,63.8h-8.3Zm5.8,35.2-3.4-26.3-15.2,26.3Z"/><path d="M1586.6,4.2,1578.7,41c-.9,4.3-.8,7.9.2,10.8s5,6.5,10.7,6.5,12-2.3,15.5-7a29.9,29.9,0,0,0,4.2-10.3l7.8-36.8h8.2l-7.2,33.5c-1.5,7.3-3.7,12.9-6.5,16.9-5.2,7.1-12.8,10.7-22.8,10.7s-16.1-3.6-18.2-10.7c-1.1-4-.9-9.6.6-16.9l7.2-33.5Z"/><path d="M1638.7,4.2h27.6a25.1,25.1,0,0,1,10.8,2c5,2.6,6.8,7.2,5.4,14.1a19.1,19.1,0,0,1-4.1,8.7,21.3,21.3,0,0,1-7.3,5.5,8.7,8.7,0,0,1,4.4,3.7c.9,1.6,1,4.1.4,7.5l-1.4,8a22.3,22.3,0,0,0-.5,5.1q.1,2.9,1.8,3.6l-.3,1.4h-9.9a11.2,11.2,0,0,1-.2-2,34.1,34.1,0,0,1,.6-4.7l1.6-10c.6-3.8-.3-6.5-2.7-7.8s-3.7-1.1-7-1.1h-18.4l-5.4,25.6h-8Zm20.9,27.3a18.3,18.3,0,0,0,9.5-2.3c2.5-1.5,4.2-4.2,5-8.1s0-7.2-2.8-8.7a13.3,13.3,0,0,0-6.3-1.2h-19.7L1641,31.5Z"/><path d="M1715,4.2h9.1l9,59.6h-8.9L1722,45.9h-23.6l-10.2,17.9h-8.3Zm5.7,35.2-3.4-26.3-15.2,26.3Z"/><path d="M1772.5,4.2h27.6a25.1,25.1,0,0,1,10.8,2c5,2.6,6.8,7.2,5.4,14.1a19.1,19.1,0,0,1-4.1,8.7,21.3,21.3,0,0,1-7.3,5.5,8.7,8.7,0,0,1,4.4,3.7c.9,1.6,1,4.1.4,7.5l-1.4,8a22.3,22.3,0,0,0-.5,5.1q.2,2.9,1.8,3.6l-.3,1.4h-9.9a11.2,11.2,0,0,1-.2-2,34.1,34.1,0,0,1,.6-4.7l1.6-10c.7-3.8-.2-6.5-2.6-7.8s-3.8-1.1-7.1-1.1h-18.4L1768,63.8h-8.1Zm20.9,27.3a18.3,18.3,0,0,0,9.5-2.3q3.8-2.2,5.1-8.1c.8-4.3-.1-7.2-2.8-8.7a13.7,13.7,0,0,0-6.4-1.2h-19.7l-4.3,20.3Z"/><path d="M1848.8,4.2h9.1l9,59.6H1858l-2.2-17.9h-23.6L1822,63.8h-8.2Zm5.8,35.2-3.5-26.3-15.2,26.3Z"/><path d="M1926.7,5.9c5.3,3.1,7.7,8.6,7.4,16.4h-8c0-4.4-1.4-7.6-4-9.5s-6.2-3-10.9-3A22,22,0,0,0,1896,16c-4.7,4.1-7.9,10.3-9.6,18.4s-1.2,12.9,1,17.3,6.7,6.7,13.8,6.7a23.6,23.6,0,0,0,14.3-4.7c4.2-3.1,7.1-8.2,8.6-15.1h-18.6l1.4-6.7h26.2l-6.8,31.9h-5.2l-.3-7.7a41.1,41.1,0,0,1-8.6,6.2,31.3,31.3,0,0,1-14.2,3c-7,0-12.6-2.2-16.7-6.8s-5.4-13.6-3.3-23.6,6.5-17.9,13.2-23.8a31.8,31.8,0,0,1,21.7-8.4C1918.5,2.7,1923.1,3.8,1926.7,5.9Z"/></svg>
