<svg id="Layer_1" data-name="Layer 1" xmlns="http://www.w3.org/2000/svg" width="1920" height="55" viewBox="0 0 1920 55"><title>texti_top</title><path d="M12.3,12.4h5.3L10.2,47.1h20l-1,4.7H3.9Z"/><path d="M54.3,12.4h6.1l5.9,39.4H60.5L59,40H43.4L36.6,51.8H31.1Zm3.8,23.2L55.9,18.2,45.8,35.6Z"/><path d="M85.4,12.4,80.2,36.7a14.5,14.5,0,0,0,0,7.2c1,2.8,3.4,4.3,7.2,4.3s7.9-1.6,10.2-4.7a15.9,15.9,0,0,0,2.8-6.8l5.2-24.3H111l-4.7,22.1c-1,4.9-2.5,8.6-4.4,11.2-3.4,4.8-8.4,7.2-15.1,7.2s-10.6-2.4-12-7.2c-.8-2.6-.6-6.3.4-11.2l4.7-22.1Z"/><path d="M119.9,12.4h18.3a15.5,15.5,0,0,1,7.1,1.3q5.1,2.6,3.6,9.3a12.5,12.5,0,0,1-2.7,5.8,13.9,13.9,0,0,1-4.9,3.6,5.9,5.9,0,0,1,3,2.5c.6,1,.6,2.7.2,5l-.9,5.2a11.5,11.5,0,0,0-.3,3.4q0,1.9,1.2,2.4l-.2.9h-6.6a4.9,4.9,0,0,1-.1-1.3,18.1,18.1,0,0,1,.4-3.1l1.1-6.6c.4-2.6-.2-4.3-1.8-5.2a10.7,10.7,0,0,0-4.7-.7H120.5l-3.6,16.9h-5.4Zm13.9,18a11.6,11.6,0,0,0,6.2-1.5c1.7-1,2.8-2.8,3.4-5.4s0-4.7-1.9-5.7a8.3,8.3,0,0,0-4.2-.8h-13l-2.9,13.4Z"/><path d="M170.5,12.4h6l5.9,39.4h-5.8L175.1,40H159.5l-6.8,11.8h-5.5Zm3.8,23.2L172,18.2,161.9,35.6Z"/><path d="M208.6,12.4h18.3a15.8,15.8,0,0,1,7.1,1.3q5,2.6,3.6,9.3a12.5,12.5,0,0,1-2.7,5.8,13.9,13.9,0,0,1-4.9,3.6,6.3,6.3,0,0,1,3,2.5c.5,1,.6,2.7.2,5l-.9,5.2a11.5,11.5,0,0,0-.3,3.4q0,1.9,1.2,2.4l-.2.9h-6.6a4.9,4.9,0,0,1-.1-1.3,18.1,18.1,0,0,1,.4-3.1l1-6.6c.5-2.6-.1-4.3-1.7-5.2a11,11,0,0,0-4.7-.7H209.1l-3.5,16.9h-5.4Zm13.8,18a12,12,0,0,0,6.3-1.5c1.7-1,2.8-2.8,3.4-5.4s-.1-4.7-1.9-5.7A8.3,8.3,0,0,0,226,17H212.9l-2.8,13.4Z"/><path d="M259.1,12.4h6.1l5.9,39.4h-5.8L263.8,40H248.1l-6.7,11.8h-5.5Zm3.8,23.2-2.2-17.4L250.6,35.6Z"/><path d="M310.8,13.5c3.4,2,5.1,5.6,4.9,10.8h-5.3c-.1-2.9-.9-5-2.7-6.3a11.6,11.6,0,0,0-7.2-2,15,15,0,0,0-10.1,4.1c-3.1,2.8-5.2,6.9-6.4,12.3s-.8,8.5.7,11.4,4.5,4.4,9.1,4.4a15.1,15.1,0,0,0,9.5-3.1c2.8-2,4.7-5.4,5.7-10H296.7l.9-4.4H315l-4.5,21.1H307l-.2-5.1a27.1,27.1,0,0,1-5.7,4.2,20.6,20.6,0,0,1-9.3,2,14.2,14.2,0,0,1-11.1-4.6c-2.9-3.8-3.6-9-2.2-15.6s4.3-11.9,8.7-15.8a21.2,21.2,0,0,1,14.4-5.6A18.1,18.1,0,0,1,310.8,13.5Z"/><path d="M327.1,12.4h6.3l13.2,31.9,6.8-31.9h5l-8.3,39.4h-6L330.6,19.9l-6.7,31.9h-5.1Z"/><path d="M378.3,12.4h6.1l5.9,39.4h-5.9L382.9,40H367.3l-6.7,11.8h-5.5Zm3.8,23.2-2.3-17.4-10,17.4Z"/><path d="M404.2,12.4h18.2a16.3,16.3,0,0,1,7.2,1.3q4.9,2.6,3.6,9.3a12.5,12.5,0,0,1-2.7,5.8,13.9,13.9,0,0,1-4.9,3.6,6.3,6.3,0,0,1,3,2.5c.5,1,.6,2.7.2,5l-.9,5.2a18.5,18.5,0,0,0-.4,3.4c.1,1.3.5,2.1,1.3,2.4l-.2.9H422a4.9,4.9,0,0,1-.1-1.3,18.1,18.1,0,0,1,.4-3.1l1-6.6c.4-2.6-.2-4.3-1.7-5.2a11,11,0,0,0-4.7-.7H404.7l-3.6,16.9h-5.3Zm13.8,18a12.2,12.2,0,0,0,6.3-1.5c1.7-1,2.8-2.8,3.4-5.4s-.1-4.7-1.9-5.7a8.3,8.3,0,0,0-4.2-.8H408.5l-2.8,13.4Z"/><path d="M441.1,39.1a9.4,9.4,0,0,0,.4,5.4c1.2,2.6,4,3.9,8.5,3.9a17.9,17.9,0,0,0,5.7-.8q5.1-1.6,6-6c.5-2.1.1-3.7-1-4.6a17.1,17.1,0,0,0-5.9-2.3l-5.1-1.2c-3.3-.8-5.6-1.7-6.8-2.6s-2.9-4.1-2.2-7.4a14.3,14.3,0,0,1,5.5-8.7c2.9-2.3,6.7-3.4,11.2-3.4s7.4,1,9.8,3,3.3,5.1,2.3,9.5h-5a8.5,8.5,0,0,0-.6-4.8c-1.2-2.1-3.8-3.1-7.7-3.1s-5.6.6-7.2,2a7.8,7.8,0,0,0-3.1,4.6,3.6,3.6,0,0,0,1.5,4.2,30.8,30.8,0,0,0,6.8,2.2l5.2,1.2a14.5,14.5,0,0,1,5.7,2.5c2.1,1.9,2.8,4.6,2,8.1a12.9,12.9,0,0,1-6.7,9.3A24.7,24.7,0,0,1,448.7,53c-4.9,0-8.5-1.3-10.7-3.8s-2.9-5.9-2-10.1Z"/><path d="M495.2,12.4h5.4l-7.4,34.7h20l-1,4.7H486.8Z"/><path d="M537.3,12.4h6l6,39.4h-5.9L541.9,40H526.3l-6.8,11.8H514Zm3.8,23.2-2.3-17.4L528.7,35.6Z"/><path d="M568.3,12.4l-5.2,24.3a13.3,13.3,0,0,0,.1,7.2c1,2.8,3.4,4.3,7.1,4.3s8-1.6,10.3-4.7a17.2,17.2,0,0,0,2.7-6.8l5.2-24.3h5.4l-4.7,22.1c-1,4.9-2.4,8.6-4.3,11.2-3.4,4.8-8.5,7.2-15.1,7.2s-10.7-2.4-12.1-7.2c-.7-2.6-.6-6.3.4-11.2l4.8-22.1Z"/><path d="M602.9,12.4h18.2a16.3,16.3,0,0,1,7.2,1.3q5,2.6,3.6,9.3a12.5,12.5,0,0,1-2.7,5.8,14.8,14.8,0,0,1-4.9,3.6,5.6,5.6,0,0,1,2.9,2.5c.6,1,.7,2.7.3,5l-1,5.2a29.2,29.2,0,0,0-.3,3.4q.1,1.9,1.2,2.4l-.2.9h-6.5a4.4,4.4,0,0,1-.2-1.3c0-.5.2-1.6.4-3.1l1.1-6.6c.4-2.6-.2-4.3-1.8-5.2a10.5,10.5,0,0,0-4.6-.7H603.4l-3.6,16.9h-5.3Zm13.8,18a12.2,12.2,0,0,0,6.3-1.5q2.6-1.5,3.3-5.4t-1.8-5.7a8.3,8.3,0,0,0-4.2-.8H607.2l-2.8,13.4Z"/><path d="M653.4,12.4h6l6,39.4h-5.9L658,40H642.4l-6.8,11.8h-5.4Zm3.8,23.2-2.3-17.4-10,17.4Z"/><path d="M691.5,12.4h18.3a15.5,15.5,0,0,1,7.1,1.3q5.1,2.6,3.6,9.3a12.5,12.5,0,0,1-2.7,5.8,14.4,14.4,0,0,1-4.8,3.6,5.6,5.6,0,0,1,2.9,2.5c.6,1,.7,2.7.3,5l-1,5.2a16.5,16.5,0,0,0-.3,3.4q.1,1.9,1.2,2.4l-.2.9h-6.5a4.4,4.4,0,0,1-.2-1.3,18.1,18.1,0,0,1,.4-3.1l1.1-6.6c.4-2.6-.2-4.3-1.8-5.2a10.7,10.7,0,0,0-4.7-.7H692.1l-3.6,16.9h-5.3Zm13.9,18a12.2,12.2,0,0,0,6.3-1.5,7.8,7.8,0,0,0,3.3-5.4q.9-4.2-1.8-5.7a8.4,8.4,0,0,0-4.3-.8h-13L693,30.4Z"/><path d="M742.1,12.4h6l6,39.4h-5.9L746.7,40H731.1l-6.8,11.8h-5.5Zm3.8,23.2-2.3-17.4L733.5,35.6Z"/><path d="M793.7,13.5c3.5,2,5.1,5.6,4.9,10.8h-5.3c0-2.9-.9-5-2.6-6.3a12.2,12.2,0,0,0-7.3-2,15.2,15.2,0,0,0-10.1,4.1c-3,2.8-5.2,6.9-6.3,12.3s-.8,8.5.6,11.4,4.5,4.4,9.2,4.4a15.5,15.5,0,0,0,9.5-3.1c2.8-2,4.7-5.4,5.7-10H779.6l1-4.4h17.3l-4.5,21.1H790l-.2-5.1a33.4,33.4,0,0,1-5.7,4.2,21.3,21.3,0,0,1-9.4,2,14.2,14.2,0,0,1-11.1-4.6c-2.9-3.8-3.6-9-2.2-15.6s4.3-11.9,8.8-15.8a21.2,21.2,0,0,1,14.4-5.6A17.8,17.8,0,0,1,793.7,13.5Z"/><path d="M810.1,12.4h6.3l13.1,31.9,6.8-31.9h5.1L833,51.8h-6L813.6,19.9l-6.8,31.9h-5.1Z"/><path d="M861.3,12.4h6l5.9,39.4h-5.8L865.9,40H850.3l-6.8,11.8H838Zm3.8,23.2-2.3-17.4L852.7,35.6Z"/><path d="M887.1,12.4h18.3a15.5,15.5,0,0,1,7.1,1.3q5.1,2.6,3.6,9.3a12.5,12.5,0,0,1-2.7,5.8,14.4,14.4,0,0,1-4.8,3.6,5.6,5.6,0,0,1,2.9,2.5c.6,1,.6,2.7.2,5l-.9,5.2a11.5,11.5,0,0,0-.3,3.4q0,1.9,1.2,2.4l-.2.9H905a2.5,2.5,0,0,1-.2-1.3,18.1,18.1,0,0,1,.4-3.1l1.1-6.6c.4-2.6-.2-4.3-1.8-5.2a10.7,10.7,0,0,0-4.7-.7H887.7l-3.6,16.9h-5.4Zm13.9,18a11.6,11.6,0,0,0,6.2-1.5c1.7-1,2.8-2.8,3.4-5.4s0-4.7-1.9-5.7a7.8,7.8,0,0,0-4.2-.8h-13l-2.9,13.4Z"/><path d="M924,39.1a10.3,10.3,0,0,0,.4,5.4c1.2,2.6,4.1,3.9,8.6,3.9a16.9,16.9,0,0,0,5.6-.8c3.5-1.1,5.5-3.1,6.1-6s.1-3.7-1.1-4.6-3.1-1.6-5.9-2.3l-5.1-1.2c-3.3-.8-5.6-1.7-6.8-2.6s-2.9-4.1-2.2-7.4a14.5,14.5,0,0,1,5.6-8.7c2.9-2.3,6.6-3.4,11.1-3.4s7.4,1,9.9,3,3.2,5.1,2.3,9.5h-5a9.4,9.4,0,0,0-.7-4.8C945.6,17,943,16,939.1,16s-5.5.6-7.2,2a8.1,8.1,0,0,0-3,4.6,3.6,3.6,0,0,0,1.5,4.2c.9.6,3.2,1.3,6.7,2.2l5.3,1.2a14,14,0,0,1,5.6,2.5q3.2,2.8,2.1,8.1c-1,4.3-3.2,7.5-6.8,9.3A24.7,24.7,0,0,1,931.6,53c-4.9,0-8.5-1.3-10.7-3.8S918,43.3,919,39.1Z"/><path d="M978.2,12.4h5.3l-7.4,34.7h20l-1,4.7H969.8Z"/><path d="M1020.2,12.4h6.1l5.9,39.4h-5.9L1024.8,40h-15.6l-6.7,11.8H997Zm3.8,23.2-2.3-17.4-10,17.4Z"/><path d="M1051.2,12.4l-5.1,24.3a13.4,13.4,0,0,0,0,7.2c1,2.8,3.4,4.3,7.2,4.3s7.9-1.6,10.2-4.7a17.2,17.2,0,0,0,2.8-6.8l5.2-24.3h5.4l-4.7,22.1c-1.1,4.9-2.5,8.6-4.4,11.2-3.4,4.8-8.4,7.2-15.1,7.2s-10.7-2.4-12-7.2c-.8-2.6-.6-6.3.4-11.2l4.7-22.1Z"/><path d="M1085.8,12.4h18.3a15.8,15.8,0,0,1,7.1,1.3q5.1,2.6,3.6,9.3a12.5,12.5,0,0,1-2.7,5.8,13.9,13.9,0,0,1-4.9,3.6,6.3,6.3,0,0,1,3,2.5c.5,1,.6,2.7.2,5l-.9,5.2a11.5,11.5,0,0,0-.3,3.4q0,1.9,1.2,2.4l-.2.9h-6.6a4.9,4.9,0,0,1-.1-1.3,18.1,18.1,0,0,1,.4-3.1l1-6.6c.5-2.6-.1-4.3-1.7-5.2a11,11,0,0,0-4.7-.7h-12.2l-3.5,16.9h-5.4Zm13.9,18a11.6,11.6,0,0,0,6.2-1.5c1.7-1,2.8-2.8,3.4-5.4s-.1-4.7-1.9-5.7a8.3,8.3,0,0,0-4.2-.8h-13.1l-2.8,13.4Z"/><path d="M1136.3,12.4h6.1l5.9,39.4h-5.8L1141,40h-15.6l-6.8,11.8h-5.5Zm3.9,23.2-2.3-17.4-10.1,17.4Z"/><path d="M1174.5,12.4h18.2a16.3,16.3,0,0,1,7.2,1.3q4.9,2.6,3.6,9.3a12.5,12.5,0,0,1-2.7,5.8,13.9,13.9,0,0,1-4.9,3.6,6.3,6.3,0,0,1,3,2.5c.5,1,.6,2.7.2,5l-.9,5.2a18.5,18.5,0,0,0-.4,3.4q.2,1.9,1.2,2.4v.9h-6.6a4.4,4.4,0,0,1-.2-1.3c0-.5.2-1.6.4-3.1l1.1-6.6c.4-2.6-.2-4.3-1.8-5.2a10.2,10.2,0,0,0-4.6-.7H1175l-3.6,16.9h-5.3Zm13.8,18a12.2,12.2,0,0,0,6.3-1.5q2.6-1.5,3.3-5.4t-1.8-5.7a8.3,8.3,0,0,0-4.2-.8h-13.1L1176,30.4Z"/><path d="M1225,12.4h6.1l5.9,39.4h-5.9L1229.6,40H1214l-6.7,11.8h-5.5Zm3.8,23.2-2.3-17.4-10,17.4Z"/><path d="M1276.7,13.5c3.4,2,5.1,5.6,4.8,10.8h-5.2q-.1-4.4-2.7-6.3a11.6,11.6,0,0,0-7.2-2,15,15,0,0,0-10.1,4.1c-3.1,2.8-5.2,6.9-6.4,12.3s-.8,8.5.7,11.4,4.5,4.4,9.1,4.4a15.2,15.2,0,0,0,9.5-3.1c2.8-2,4.7-5.4,5.7-10h-12.3l.9-4.4h17.3l-4.4,21.1h-3.5l-.2-5.1a27.1,27.1,0,0,1-5.7,4.2,20.7,20.7,0,0,1-9.4,2,14.2,14.2,0,0,1-11-4.6c-2.9-3.8-3.6-9-2.2-15.6s4.3-11.9,8.7-15.8a21.2,21.2,0,0,1,14.4-5.6A18.1,18.1,0,0,1,1276.7,13.5Z"/><path d="M1293,12.4h6.3l13.2,31.9,6.8-31.9h5l-8.4,39.4H1310l-13.5-31.9-6.8,31.9h-5.1Z"/><path d="M1344.2,12.4h6l6,39.4h-5.9L1348.8,40h-15.6l-6.8,11.8H1321Zm3.8,23.2-2.3-17.4-10,17.4Z"/><path d="M1370.1,12.4h18.2a16.3,16.3,0,0,1,7.2,1.3q4.9,2.6,3.6,9.3a12.5,12.5,0,0,1-2.7,5.8,14.8,14.8,0,0,1-4.9,3.6,5.6,5.6,0,0,1,2.9,2.5c.6,1,.7,2.7.3,5l-1,5.2a29.2,29.2,0,0,0-.3,3.4q.1,1.9,1.2,2.4l-.2.9h-6.5a4.4,4.4,0,0,1-.2-1.3c0-.5.2-1.6.4-3.1l1.1-6.6c.4-2.6-.2-4.3-1.8-5.2a10.5,10.5,0,0,0-4.6-.7h-12.2L1367,51.8h-5.3Zm13.8,18a12.2,12.2,0,0,0,6.3-1.5q2.5-1.5,3.3-5.4t-1.8-5.7a8.3,8.3,0,0,0-4.2-.8h-13.1l-2.8,13.4Z"/><path d="M1406.9,39.1a9.3,9.3,0,0,0,.5,5.4c1.2,2.6,4,3.9,8.5,3.9a17.9,17.9,0,0,0,5.7-.8q5.1-1.6,6-6c.5-2.1.1-3.7-1-4.6a18,18,0,0,0-5.9-2.3l-5.1-1.2a22.1,22.1,0,0,1-6.9-2.6c-2.1-1.7-2.8-4.1-2.1-7.4a14.3,14.3,0,0,1,5.5-8.7c2.9-2.3,6.6-3.4,11.1-3.4s7.5,1,9.9,3,3.3,5.1,2.3,9.5h-5a7.6,7.6,0,0,0-.7-4.8c-1.2-2.1-3.7-3.1-7.6-3.1s-5.6.6-7.2,2a7.8,7.8,0,0,0-3.1,4.6,3.6,3.6,0,0,0,1.5,4.2A31.3,31.3,0,0,0,1420,29l5.3,1.2a14,14,0,0,1,5.6,2.5q3.3,2.8,2.1,8.1a12.8,12.8,0,0,1-6.8,9.3,24,24,0,0,1-11.6,2.9c-4.9,0-8.5-1.3-10.8-3.8s-2.8-5.9-1.9-10.1Z"/><path d="M1461.1,12.4h5.3l-7.3,34.7H1479l-1,4.7h-25.3Z"/><path d="M1503.2,12.4h6l5.9,39.4h-5.8L1507.8,40h-15.6l-6.8,11.8h-5.5Zm3.8,23.2-2.3-17.4-10.1,17.4Z"/><path d="M1534.2,12.4,1529,36.7a13.3,13.3,0,0,0,.1,7.2c1,2.8,3.3,4.3,7.1,4.3s8-1.6,10.2-4.7a15.9,15.9,0,0,0,2.8-6.8l5.2-24.3h5.4l-4.7,22.1a30.4,30.4,0,0,1-4.3,11.2c-3.4,4.8-8.5,7.2-15.1,7.2s-10.7-2.4-12.1-7.2c-.7-2.6-.6-6.3.4-11.2l4.8-22.1Z"/><path d="M1568.7,12.4H1587a15.5,15.5,0,0,1,7.1,1.3q5.1,2.6,3.6,9.3a12.5,12.5,0,0,1-2.7,5.8,14.4,14.4,0,0,1-4.8,3.6,5.6,5.6,0,0,1,2.9,2.5c.6,1,.7,2.7.3,5l-1,5.2a16.5,16.5,0,0,0-.3,3.4q.2,1.9,1.2,2.4l-.2.9h-6.5a4.4,4.4,0,0,1-.2-1.3,18.1,18.1,0,0,1,.4-3.1l1.1-6.6c.4-2.6-.2-4.3-1.8-5.2a10.7,10.7,0,0,0-4.7-.7h-12.1l-3.6,16.9h-5.3Zm13.9,18a12.2,12.2,0,0,0,6.3-1.5,7.8,7.8,0,0,0,3.3-5.4q.9-4.2-1.8-5.7a8.4,8.4,0,0,0-4.3-.8h-13l-2.9,13.4Z"/><path d="M1619.3,12.4h6l6,39.4h-5.9L1623.9,40h-15.6l-6.8,11.8H1596Zm3.8,23.2-2.3-17.4-10.1,17.4Z"/><path d="M1657.4,12.4h18.3a15.5,15.5,0,0,1,7.1,1.3q5.1,2.6,3.6,9.3a12.5,12.5,0,0,1-2.7,5.8,13.9,13.9,0,0,1-4.9,3.6,5.9,5.9,0,0,1,3,2.5c.6,1,.6,2.7.2,5l-.9,5.2a11.5,11.5,0,0,0-.3,3.4q0,1.9,1.2,2.4l-.2.9h-6.6a4.9,4.9,0,0,1-.1-1.3,18.1,18.1,0,0,1,.4-3.1l1.1-6.6c.4-2.6-.2-4.3-1.8-5.2a10.7,10.7,0,0,0-4.7-.7H1658l-3.6,16.9H1649Zm13.9,18a11.6,11.6,0,0,0,6.2-1.5c1.7-1,2.8-2.8,3.4-5.4s0-4.7-1.9-5.7a8.3,8.3,0,0,0-4.2-.8h-13l-2.9,13.4Z"/><path d="M1708,12.4h6l5.9,39.4h-5.8L1712.6,40H1697l-6.8,11.8h-5.5Zm3.8,23.2-2.3-17.4-10.1,17.4Z"/><path d="M1759.6,13.5c3.5,2,5.1,5.6,4.9,10.8h-5.3q0-4.4-2.7-6.3a11.6,11.6,0,0,0-7.2-2,15.2,15.2,0,0,0-10.1,4.1q-4.7,4.2-6.3,12.3c-1.1,4.7-.8,8.5.6,11.4s4.5,4.4,9.2,4.4a15.5,15.5,0,0,0,9.5-3.1c2.7-2,4.6-5.4,5.7-10h-12.4l1-4.4h17.3l-4.5,21.1h-3.4l-.2-5.1a33.4,33.4,0,0,1-5.7,4.2,21.3,21.3,0,0,1-9.4,2,14.2,14.2,0,0,1-11.1-4.6c-2.9-3.8-3.6-9-2.2-15.6s4.3-11.9,8.7-15.8a21.2,21.2,0,0,1,14.4-5.6A18.1,18.1,0,0,1,1759.6,13.5Z"/><path d="M1776,12.4h6.3l13.1,31.9,6.8-31.9h5.1l-8.4,39.4h-6l-13.5-31.9-6.7,31.9h-5.1Z"/><path d="M1827.1,12.4h6.1l5.9,39.4h-5.8L1831.8,40h-15.6l-6.8,11.8h-5.5Zm3.9,23.2-2.3-17.4-10.1,17.4Z"/><path d="M1853,12.4h18.3a15.5,15.5,0,0,1,7.1,1.3q5.1,2.6,3.6,9.3a12.5,12.5,0,0,1-2.7,5.8,13.9,13.9,0,0,1-4.9,3.6,6.3,6.3,0,0,1,3,2.5c.5,1,.6,2.7.2,5l-.9,5.2a11.5,11.5,0,0,0-.3,3.4q0,1.9,1.2,2.4l-.2.9h-6.6a4.9,4.9,0,0,1-.1-1.3,18.1,18.1,0,0,1,.4-3.1l1-6.6c.5-2.6-.1-4.3-1.7-5.2a11,11,0,0,0-4.7-.7h-12.2L1850,51.8h-5.4Zm13.9,18a11.6,11.6,0,0,0,6.2-1.5c1.7-1,2.8-2.8,3.4-5.4s-.1-4.7-1.9-5.7a8.3,8.3,0,0,0-4.2-.8h-13l-2.9,13.4Z"/><path d="M1889.9,39.1a9.4,9.4,0,0,0,.4,5.4c1.2,2.6,4.1,3.9,8.5,3.9a17.9,17.9,0,0,0,5.7-.8c3.4-1.1,5.4-3.1,6.1-6s.1-3.7-1.1-4.6a17.1,17.1,0,0,0-5.9-2.3l-5.1-1.2c-3.3-.8-5.6-1.7-6.8-2.6s-2.9-4.1-2.2-7.4a14.3,14.3,0,0,1,5.5-8.7,17.8,17.8,0,0,1,11.2-3.4q6.1,0,9.9,3c2.4,2,3.2,5.1,2.3,9.5h-5.1a8.5,8.5,0,0,0-.6-4.8c-1.2-2.1-3.8-3.1-7.7-3.1s-5.5.6-7.2,2a7.6,7.6,0,0,0-3,4.6,3.5,3.5,0,0,0,1.5,4.2c.9.6,3.1,1.3,6.7,2.2l5.2,1.2a13.8,13.8,0,0,1,5.7,2.5q3.1,2.8,2.1,8.1c-1,4.3-3.2,7.5-6.8,9.3a24.7,24.7,0,0,1-11.7,2.9c-4.9,0-8.5-1.3-10.7-3.8s-2.9-5.9-1.9-10.1Z"/></svg>
