<?xml version="1.0" standalone="no"?>
<!DOCTYPE svg PUBLIC "-//W3C//DTD SVG 20010904//EN"
 "http://www.w3.org/TR/2001/REC-SVG-20010904/DTD/svg10.dtd">
<svg version="1.0" xmlns="http://www.w3.org/2000/svg"
 width="601.000000pt" height="601.000000pt" viewBox="0 0 601.000000 601.000000"
 preserveAspectRatio="xMidYMid meet">
<metadata>
Created by potrace 1.11, written by Peter Selinger 2001-2013
</metadata>
<g transform="translate(0.000000,601.000000) scale(0.100000,-0.100000)"
fill="#000000" stroke="none">
<path d="M2848 5545 c-2 -1 -37 -5 -78 -9 -506 -43 -1031 -264 -1417 -598 -46
-39 -224 -217 -273 -273 -152 -171 -328 -457 -434 -705 -67 -159 -142 -451
-167 -655 -14 -111 -17 -394 -5 -525 56 -657 382 -1290 876 -1702 41 -35 77
-65 80 -69 18 -21 224 -159 314 -210 492 -280 1042 -385 1616 -310 464 61 953
285 1310 600 210 185 422 441 535 646 15 28 39 70 52 95 89 161 211 501 239
665 38 229 48 328 48 500 -1 333 -56 630 -177 947 -31 80 -153 326 -173 349
-8 8 -14 19 -14 23 0 4 -31 53 -69 109 -290 425 -682 745 -1136 930 -160 65
-356 125 -473 143 -20 3 -39 7 -42 9 -3 2 -42 8 -86 14 -44 7 -91 14 -105 17
-25 5 -416 14 -421 9z m-13 -831 l0 -446 -90 6 c-49 4 -101 8 -115 11 -29 4
-74 11 -145 20 -76 10 -93 13 -151 26 -63 14 -62 3 -7 144 80 204 214 429 325
546 59 62 153 139 171 139 9 0 12 -114 12 -446z m405 407 c93 -67 204 -200
288 -346 56 -96 108 -206 170 -362 l29 -71 -36 -8 c-20 -4 -38 -8 -41 -9 -60
-14 -249 -40 -380 -51 -41 -3 -79 -7 -84 -8 -9 -1 -17 869 -8 887 4 8 12 4 62
-32z m-1031 -137 c-84 -133 -218 -423 -245 -527 -3 -15 -9 -27 -13 -27 -11 0
-234 87 -301 117 -36 16 -84 38 -108 48 l-42 19 32 34 c50 52 240 192 355 261
56 33 104 61 107 61 2 0 43 18 91 41 97 45 179 78 183 74 1 -1 -25 -46 -59
-101z m1581 85 c218 -82 498 -253 673 -411 l49 -43 -94 -42 c-194 -86 -359
-146 -369 -136 -4 4 -24 53 -44 108 -61 166 -167 377 -263 523 -17 27 -20 27
48 1z m-2379 -778 c140 -67 310 -136 398 -163 24 -7 45 -18 48 -24 2 -7 -7
-65 -21 -130 -13 -66 -27 -139 -31 -164 -3 -25 -10 -70 -15 -100 -9 -57 -20
-145 -25 -215 -9 -105 -15 -186 -17 -247 l-3 -68 -60 0 c-75 -1 -774 -1 -837
0 -45 0 -46 1 -43 28 2 15 6 52 10 82 30 269 143 596 292 845 53 87 149 225
158 225 1 0 67 -31 146 -69z m3420 -49 c189 -276 322 -624 359 -939 13 -111
13 -105 11 -118 -1 -7 -165 -10 -472 -10 l-471 0 -3 65 c-6 117 -15 244 -20
270 -2 14 -6 52 -9 85 -8 82 -14 124 -32 230 -9 50 -18 104 -21 120 -3 17 -11
57 -19 90 -7 33 -14 63 -14 67 0 3 37 19 83 34 118 39 301 116 414 173 54 28
103 49 108 47 6 -1 44 -53 86 -114z m-2564 -238 c37 -8 81 -17 98 -19 16 -2
59 -9 95 -14 95 -15 145 -20 245 -27 50 -4 97 -8 105 -10 8 -1 17 -3 20 -3 4
-1 5 -650 1 -736 -1 -20 -8 -20 -377 -20 l-375 0 6 125 c3 68 8 138 10 155 2
16 7 57 10 90 9 87 45 314 59 370 2 6 6 28 11 50 8 40 13 55 20 55 2 0 34 -7
72 -16z m1558 -21 c5 -21 9 -42 11 -48 10 -35 55 -321 60 -379 3 -39 8 -74 10
-77 1 -3 6 -68 9 -145 4 -76 8 -143 8 -148 1 -6 -142 -10 -370 -11 -324 0
-372 2 -375 15 -2 8 -4 179 -3 379 l0 363 45 4 c124 9 191 16 250 24 36 5 88
12 115 15 28 4 58 8 67 11 20 6 44 10 94 18 21 4 40 9 43 11 14 15 30 1 36
-32z m-2089 -1156 c4 -4 9 -20 10 -35 1 -15 5 -76 8 -137 12 -208 39 -409 82
-622 13 -67 24 -124 24 -127 0 -2 -46 -21 -102 -41 -133 -49 -338 -135 -408
-172 -91 -48 -85 -48 -131 14 -169 228 -320 564 -375 836 -20 97 -40 262 -35
287 2 8 919 6 927 -3z m1095 -17 c4 -123 1 -721 -4 -726 -4 -4 -33 -8 -64 -10
-83 -5 -256 -25 -333 -39 -14 -2 -41 -7 -60 -9 -19 -3 -46 -8 -60 -11 -14 -3
-38 -8 -55 -11 -71 -12 -67 -15 -86 66 -18 78 -20 88 -38 210 -7 41 -14 86
-16 100 -2 14 -7 54 -10 90 -3 36 -8 80 -10 99 -8 61 -16 251 -11 259 2 4 171
7 375 7 l371 0 1 -25z m1090 21 c3 0 4 -16 3 -33 -1 -18 -5 -76 -9 -128 -3
-52 -7 -108 -9 -125 -2 -16 -7 -59 -11 -95 -4 -36 -8 -76 -10 -90 -16 -101
-27 -171 -36 -208 -5 -23 -11 -57 -14 -75 -3 -18 -9 -44 -13 -58 l-7 -26 -65
14 c-149 31 -395 63 -517 67 -23 1 -45 5 -50 9 -9 10 -11 740 -1 747 5 4 720
5 739 1z m1281 -36 c-12 -168 -84 -466 -148 -613 -57 -132 -144 -295 -214
-400 -45 -67 -85 -124 -90 -127 -5 -3 -58 19 -117 48 -109 55 -301 134 -426
178 -75 26 -71 18 -51 104 7 31 32 169 39 217 3 24 8 50 10 58 2 8 7 38 10 65
3 28 7 61 9 75 7 40 15 129 21 210 12 174 15 212 19 219 2 3 215 6 473 6 l468
0 -3 -40z m-2368 -1500 c1 -318 -2 -445 -10 -445 -16 0 -81 49 -134 101 -145
141 -252 315 -360 583 -38 94 -49 131 -40 136 11 7 135 31 181 36 8 0 31 4 50
7 68 13 300 35 308 30 2 -2 5 -203 5 -448z m456 440 c100 -7 173 -15 255 -30
17 -3 46 -8 65 -11 19 -3 49 -8 65 -11 17 -3 34 -8 39 -13 11 -11 -52 -174
-122 -315 -91 -184 -172 -299 -286 -408 -71 -68 -123 -101 -128 -84 -4 10 -3
822 1 869 0 10 7 16 14 13 6 -2 50 -6 97 -10z m-1325 -177 c40 -140 182 -443
264 -565 22 -34 41 -64 41 -67 0 -15 -248 96 -349 156 -34 21 -65 38 -67 38
-7 0 -167 111 -218 152 -62 48 -139 119 -134 123 28 25 414 184 450 185 4 0
10 -10 13 -22z m2161 -2 c88 -31 152 -57 234 -93 36 -17 84 -38 108 -48 l42
-19 -37 -39 c-46 -47 -222 -178 -318 -236 -120 -73 -411 -209 -422 -197 -2 1
10 20 25 42 72 100 190 336 249 499 39 106 42 115 46 115 2 0 35 -11 73 -24z"/>
</g>
</svg>
